SplineFontDB: 3.0
FontName: SPRama-Oblique
FullName: SP Rama Oblique
FamilyName: SP Rama
Weight: Book
Copyright: Copyright (c) 2006 by Department of Intellectual Property (DIP), Ministry of Commerce and Software Industry Promotion Agency (Public Organization) (SIPA). All rights reserved.
Version: 2.1
ItalicAngle: -12
UnderlinePosition: -35
UnderlineWidth: 30
Ascent: 800
Descent: 200
LayerCount: 2
Layer: 0 0 "Back" 
Layer: 1 0 "Fore" 
NeedsXUIDChange: 1
XUID: [1021 375 425136265 11227877]
FSType: 0
OS2Version: 3
OS2_WeightWidthSlopeOnly: 0
OS2_UseTypoMetrics: 1
CreationTime: 1157457519
ModificationTime: 1211189807
PfmFamily: 17
TTFWeight: 400
TTFWidth: 5
LineGap: 60
VLineGap: 0
Panose: 2 0 5 6 0 0 0 2 0 4
OS2TypoAscent: 0
OS2TypoAOffset: 1
OS2TypoDescent: 0
OS2TypoDOffset: 1
OS2TypoLinegap: 0
OS2WinAscent: 17
OS2WinAOffset: 1
OS2WinDescent: 9
OS2WinDOffset: 1
HheadAscent: -39
HheadAOffset: 1
HheadDescent: 276
HheadDOffset: 1
OS2SubXSize: 700
OS2SubYSize: 650
OS2SubXOff: 0
OS2SubYOff: 140
OS2SupXSize: 700
OS2SupYSize: 650
OS2SupXOff: 0
OS2SupYOff: 477
OS2StrikeYSize: 30
OS2StrikeYPos: 250
OS2FamilyClass: 773
OS2Vendor: 'IPTH'
Lookup: 4 0 0 "'frac' Diagonal Fractions in Latin lookup 0"  {"'frac' Diagonal Fractions in Latin lookup 0 subtable"  } ['frac' ('latn' <'dflt' > ) ]
Lookup: 6 0 0 "'liga' Standard Ligatures in Latin lookup 1"  {"'liga' Standard Ligatures in Latin lookup 1 subtable"  } ['liga' ('latn' <'dflt' > ) ]
Lookup: 6 0 0 "'liga' Standard Ligatures in Latin lookup 2"  {"'liga' Standard Ligatures in Latin lookup 2 subtable"  } ['liga' ('latn' <'dflt' > ) ]
Lookup: 6 0 0 "'liga' Standard Ligatures in Latin lookup 3"  {"'liga' Standard Ligatures in Latin lookup 3 subtable"  } ['liga' ('latn' <'dflt' > ) ]
Lookup: 6 0 0 "'liga' Standard Ligatures in Latin lookup 4"  {"'liga' Standard Ligatures in Latin lookup 4 subtable"  } ['liga' ('latn' <'dflt' > ) ]

StartChar: .notdef
Encoding: 65536 -1 0
Width: 747
VWidth: 1494
Flags: W
HStem: 0 52<155 611> 987 52<354 810>
LayerCount: 2
Fore
SplineSet
611 52 m 1
 810 987 l 1
 354 987 l 1
 155 52 l 1
 611 52 l 1
652 0 m 1
 94 0 l 1
 314 1039 l 1
 871 1039 l 1
 652 0 l 1
EndSplineSet
EndChar

StartChar: numbersign
Encoding: 35 35 4
Width: 509
VWidth: 1494
Flags: W
HStem: 0 21G<96 154.637 271 329.726> 223 46<84 170 238 346 413 506> 435 48<151 241 309 418 486 572>
LayerCount: 2
Fore
SplineSet
258 483 m 1
 289 569 301 612 332 698 c 1
 381 698 l 1
 309 483 l 1
 435 483 l 1
 450 526 464 569 505 698 c 1
 558 698 l 1
 486 483 l 1
 583 483 l 1
 572 435 l 1
 469 435 l 1
 442 352 433 336 413 269 c 1
 516 269 l 1
 506 223 l 1
 398 223 l 1
 323 0 l 1
 271 0 l 1
 346 223 l 1
 222 223 l 1
 148 0 l 1
 96 0 l 1
 170 223 l 1
 74 223 l 1
 84 269 l 1
 186 269 l 1
 206 336 221 368 241 435 c 1
 140 435 l 1
 151 483 l 1
 258 483 l 1
362 269 m 1
 382 336 391 352 418 435 c 1
 292 435 l 1
 273 368 258 336 238 269 c 1
 362 269 l 1
EndSplineSet
EndChar

StartChar: dollar
Encoding: 36 36 5
Width: 568
VWidth: 1494
Flags: W
HStem: -18 54<221.141 252 316 395.57> 665 58<324.75 397 462 475.653>
VStem: 173 64<461.258 587.826> 506 64<124.228 245.221>
LayerCount: 2
Fore
SplineSet
397 665 m 1
 285 654 237 576 237 521 c 0
 237 489 253 444 341 399 c 1
 397 665 l 1
570 213 m 0
 570 179 552 -0 304 -18 c 1
 289 -90 l 1
 237 -90 l 1
 252 -18 l 1
 224 -16 138 -14 59 75 c 1
 117 121 l 1
 173 50 225 40 264 36 c 1
 326 330 l 1
 225 370 173 433 173 510 c 0
 173 608 262 714 410 723 c 1
 426 800 l 1
 478 800 l 1
 462 723 l 1
 528 717 593 694 625 664 c 1
 584 613 l 1
 519 662 460 664 449 665 c 1
 388 377 l 1
 482 341 570 306 570 213 c 0
316 37 m 1
 410 45 506 97 506 187 c 0
 506 246 457 277 374 311 c 1
 316 37 l 1
EndSplineSet
EndChar

StartChar: percent
Encoding: 37 37 6
Width: 874
VWidth: 1494
Flags: W
HStem: 3 43<596.189 701.24> 330 45<646.341 752.265> 341 45<272.403 378.547> 668 45<325.546 429.442>
VStem: 205 49<403.966 577.369> 450 48<478.429 647.578> 527 48<66.766 236.339> 772 48<140.431 310.781>
LayerCount: 2
Fore
SplineSet
794 725 m 1x9f
 266 -16 l 1
 215 -16 l 1
 741 725 l 1
 794 725 l 1x9f
527 132 m 0
 527 226 591 375 714 375 c 0xdf
 782 375 820 320 820 244 c 0
 820 135 743 3 635 3 c 0
 566 3 527 55 527 132 c 0
704 330 m 0
 622 330 575 218 575 137 c 0
 575 83 598 46 644 46 c 0
 726 46 772 162 772 243 c 0
 772 311 734 330 704 330 c 0
205 471 m 0
 205 584 285 713 391 713 c 256
 460 713 498 655 498 580 c 0
 498 475 422 341 311 341 c 256xbf
 243 341 205 394 205 471 c 0
321 386 m 0
 410 386 450 508 450 579 c 0
 450 634 425 668 381 668 c 0
 303 668 254 561 254 474 c 0
 254 427 270 386 321 386 c 0
EndSplineSet
EndChar

StartChar: ampersand
Encoding: 38 38 7
Width: 641
VWidth: 1494
Flags: W
HStem: -10 58<206.324 375.562> 668 60<339.309 460.003>
VStem: 83 67<104.773 245.361> 244 64<492.247 635.63> 471 64<551.624 655.73> 602 59<352.524 416>
LayerCount: 2
Fore
SplineSet
535 632 m 0
 535 545 462 475 375 416 c 1
 515 194 l 1
 565 277 592 371 602 416 c 1
 661 413 l 1
 605 243 586 206 545 151 c 1
 635 4 l 1
 551 4 l 1
 496 97 l 1
 400 0 327 -10 278 -10 c 0
 159 -10 83 54 83 154 c 0
 83 310 241 378 296 423 c 1
 255 493 244 531 244 563 c 0
 244 662 325 728 417 728 c 0
 463 728 535 708 535 632 c 0
350 457 m 1
 390 494 471 544 471 615 c 0
 471 657 432 668 405 668 c 0
 349 668 308 634 308 573 c 0
 308 527 334 482 350 457 c 1
322 378 m 1
 156 272 150 216 150 176 c 0
 150 98 209 48 285 48 c 0
 327 48 389 58 471 141 c 1
 322 378 l 1
EndSplineSet
EndChar

StartChar: quotesingle
Encoding: 39 39 8
Width: 267
VWidth: 1494
Flags: W
HStem: 459 242<248 253 212 318 248 248>
LayerCount: 2
Fore
SplineSet
294 587 m 1
 253 459 l 1
 212 459 l 1
 224 587 l 1
 248 701 l 1
 318 701 l 1
 294 587 l 1
EndSplineSet
EndChar

StartChar: parenleft
Encoding: 40 40 9
Width: 298
VWidth: 1494
Flags: W
VStem: 106 54<8.80329 323.652>
LayerCount: 2
Fore
SplineSet
401 738 m 1
 303 624 160 410 160 154 c 0
 160 48 185 -45 221 -120 c 1
 176 -120 l 1
 137 -42 106 58 106 172 c 0
 106 429 262 626 359 738 c 1
 401 738 l 1
EndSplineSet
EndChar

StartChar: parenright
Encoding: 41 41 10
Width: 298
VWidth: 1494
Flags: W
VStem: 269 55<289.5 602.973>
LayerCount: 2
Fore
SplineSet
324 442 m 0
 324 218 200 18 72 -118 c 1
 27 -118 l 1
 135 1 269 204 269 462 c 0
 269 568 245 662 212 740 c 1
 254 740 l 1
 287 663 324 564 324 442 c 0
EndSplineSet
EndChar

StartChar: asterisk
Encoding: 42 42 11
Width: 527
VWidth: 1494
Flags: W
HStem: 507 55<202.586 219.5 219.5 245.5 524 538.6>
VStem: 398 53<377.188 407.155>
LayerCount: 2
Fore
SplineSet
556 545 m 0
 556 521 538 510 527 510 c 2
 524 510 l 1
 390 528 l 1
 451 417 l 1
 456 398 438 378 415 378 c 0
 405 378 400 382 398 392 c 2
 375 519 l 1
 357 490 351 484 329 448 c 2
 305 410 l 2
 288 381 285 379 268 379 c 0
 252 379 247 390 247 398 c 0
 247 412 261 425 270 434 c 2
 337 502 l 2
 349 513 357 522 363 529 c 1
 222 508 l 2
 220 508 219 507 217 507 c 0
 209 507 199 515 199 528 c 0
 199 542 212 562 228 562 c 2
 231 562 l 1
 364 544 l 1
 305 655 l 2
 293 678 328 695 339 695 c 0
 346 695 355 692 357 680 c 2
 381 553 l 1
 401 583 l 2
 461 672 459 694 489 694 c 0
 505 694 508 681 508 673 c 0
 508 666 508 662 485 638 c 2
 394 544 l 1
 534 564 l 1
 541 564 556 564 556 545 c 0
EndSplineSet
EndChar

StartChar: plus
Encoding: 43 43 12
Width: 576
VWidth: 1494
Flags: MW
HStem: 215 59<128 308 373 553 116 565 128 128>
LayerCount: 2
Fore
SplineSet
366 487 m 1
 419 487 l 1
 373 274 l 1
 565 274 l 1
 553 215 l 1
 361 215 l 1
 315 0 l 1
 262 0 l 1
 308 215 l 1
 116 215 l 1
 128 274 l 1
 320 274 l 1
 366 487 l 1
EndSplineSet
EndChar

StartChar: comma
Encoding: 44 44 13
Width: 298
VWidth: 1494
Flags: MW
VStem: 100 122<2.20834 86.7926>
LayerCount: 2
Fore
SplineSet
100 40 m 0
 100 71 131 108 169 108 c 0
 211 108 222 83 222 58 c 0
 222 10 177 -74 81 -112 c 1
 80 -109 65 -79 65 -78 c 1
 100 -65 148 -32 160 1 c 1
 154 -1 147 -3 141 -3 c 0
 120 -3 100 14 100 40 c 0
EndSplineSet
EndChar

StartChar: hyphen
Encoding: 45 45 14
Width: 576
VWidth: 1494
Flags: W
HStem: 215 59<128 553 116 565 128 128>
LayerCount: 2
Fore
SplineSet
128 274 m 1
 565 274 l 1
 553 215 l 1
 116 215 l 1
 128 274 l 1
EndSplineSet
EndChar

StartChar: period
Encoding: 46 46 15
Width: 270
VWidth: 1494
Flags: W
HStem: 0 109<109.984 181.817>
VStem: 91 109<17.8447 90.5391>
LayerCount: 2
Fore
SplineSet
200 66 m 0
 200 37 176 0 135 0 c 256
 100 0 91 23 91 42 c 0
 91 62 108 109 158 109 c 256
 192 109 200 85 200 66 c 0
EndSplineSet
EndChar

StartChar: slash
Encoding: 47 47 16
Width: 260
VWidth: 1494
Flags: MW
HStem: 723 20G<366.149 435>
LayerCount: 2
Fore
SplineSet
33 -61 m 1
 -20 -61 l 1
 376 743 l 1
 435 743 l 1
 33 -61 l 1
EndSplineSet
EndChar

StartChar: zero
Encoding: 48 48 17
Width: 588
VWidth: 1494
Flags: W
HStem: -10 65<225.459 394.831> 670 64<352.358 515.579>
VStem: 99 63<125.592 379.541> 578 63<346.071 600.048>
LayerCount: 2
Fore
SplineSet
641 509 m 0
 641 372 571 -10 292 -10 c 256
 208 -10 99 32 99 217 c 0
 99 391 195 734 450 734 c 0
 532 734 641 697 641 509 c 0
436 670 m 0
 217 670 162 332 162 230 c 0
 162 82 244 55 306 55 c 0
 535 55 578 404 578 493 c 0
 578 643 498 670 436 670 c 0
EndSplineSet
EndChar

StartChar: one
Encoding: 49 49 18
Width: 426
VWidth: 1494
Flags: MW
HStem: -1 21G<235 301.257> 582 20G<334.158 358.755> 698 20G<434 444.5>
LayerCount: 2
Fore
SplineSet
436 652 m 1
 297 -1 l 1
 235 -1 l 1
 363 602 l 1
 226 507 l 1
 189 549 l 1
 418 713 l 2
 424 717 431 718 437 718 c 0
 452 718 474 705 474 688 c 0
 474 674 454 661 436 652 c 1
EndSplineSet
EndChar

StartChar: two
Encoding: 50 50 19
Width: 568
VWidth: 1494
Flags: W
HStem: 0 64<57.3594 81.3385 81.3385 89 165 465> 655 61<337.852 491.469>
VStem: 179 62<471 503.702> 539 65<452.101 608.785>
LayerCount: 2
Fore
SplineSet
604 552 m 0
 604 321 288 196 165 64 c 1
 465 64 l 1
 506 120 l 1
 507 120 509 119 513 116 c 2
 553 91 l 1
 490 0 l 1
 78 0 l 2
 53 0 48 3 48 10 c 0
 48 23 63 65 74 65 c 0
 77 65 79 64 89 64 c 1
 116 100 173 150 267 218 c 2
 357 284 l 2
 497 387 539 466 539 538 c 0
 539 612 488 655 422 655 c 0
 368 655 270 625 245 507 c 0
 243 495 241 486 241 477 c 0
 241 471 l 1
 179 456 l 1
 179 580 283 716 435 716 c 0
 554 716 604 641 604 552 c 0
EndSplineSet
EndChar

StartChar: three
Encoding: 51 51 20
Width: 594
VWidth: 1494
Flags: W
HStem: -9 51<218.491 390.448> 415 63<417 482.461> 646 63<282 526 606 629.754>
VStem: 77 61<123.865 194> 536 60<202.673 361.987>
LayerCount: 2
Fore
SplineSet
596 311 m 0
 596 141 444 -9 316 -9 c 0
 232 -9 94 3 77 194 c 1
 138 212 l 1
 143 85 228 42 305 42 c 0
 437 42 536 185 536 290 c 0
 536 383 461 415 414 415 c 0
 385 415 360 409 342 401 c 1
 342 401 301 359 289 359 c 0
 281 359 259 380 259 394 c 0
 259 399 264 405 268 408 c 2
 526 646 l 1
 282 646 l 1
 232 555 l 1
 184 582 l 1
 250 709 l 1
 632 709 l 2
 647 709 651 706 651 700 c 0
 651 692 634 654 630 650 c 1
 629 647 623 646 614 646 c 2
 606 646 l 1
 417 478 l 1
 488 478 596 443 596 311 c 0
EndSplineSet
EndChar

StartChar: four
Encoding: 52 52 21
Width: 541
VWidth: 1494
Flags: W
HStem: 0 21G<365 432.25> 160 60<149 399 475 559> 700 20G<556 564>
LayerCount: 2
Fore
SplineSet
412 220 m 1
 487 573 l 1
 149 220 l 1
 412 220 l 1
558 720 m 0
 570 720 582 695 582 683 c 0
 582 678 568 658 568 658 c 1
 475 220 l 1
 572 220 l 1
 559 160 l 1
 462 160 l 1
 428 0 l 1
 365 0 l 1
 399 160 l 1
 74 160 l 2
 65 160 56 173 56 188 c 0
 56 198 60 207 64 211 c 2
 547 713 l 2
 551 718 554 720 558 720 c 0
EndSplineSet
EndChar

StartChar: five
Encoding: 53 53 22
Width: 594
VWidth: 1494
Flags: W
HStem: -13 61<231.793 387.202> 446 61<315.464 482.972> 647 63<319 654>
VStem: 545 64<212.527 386.416>
LayerCount: 2
Fore
SplineSet
295 48 m 0
 435 48 545 176 545 308 c 0
 545 389 494 446 394 446 c 0
 323 446 244 406 188 317 c 1
 168 326 139 335 138 338 c 1
 151 365 177 434 193 476 c 2
 227 571 l 2
 240 603 249 631 257 655 c 1
 253 659 251 664 251 670 c 0
 251 687 267 706 271 708 c 1
 276 709 283 710 293 710 c 2
 667 710 l 1
 654 647 l 1
 319 647 l 1
 306 607 270 528 243 448 c 1
 303 487 361 507 417 507 c 0
 535 507 609 440 609 327 c 0
 609 166 479 -13 285 -13 c 0
 254 -13 168 -7 93 87 c 1
 145 133 l 1
 214 54 261 48 295 48 c 0
EndSplineSet
EndChar

StartChar: six
Encoding: 54 54 23
Width: 605
VWidth: 1494
Flags: W
HStem: -16 56<249.299 415.91> 418 61<329.649 492.601> 532 21G<596.5 653> 662 56<381.135 540.387>
VStem: 110 72<102.114 265.957> 547 61<183.66 363.18> 597 56<547 604.973>
LayerCount: 2
Fore
SplineSet
182 174 m 0xfc
 182 82 265 40 330 40 c 0
 460 40 547 170 547 285 c 0
 547 377 485 418 417 418 c 0
 297 418 182 305 182 174 c 0xfc
110 218 m 0
 110 408 239 718 478 718 c 0
 559 718 649 673 653 547 c 1
 597 532 l 1xfa
 596 611 540 662 464 662 c 0
 283 662 191 410 180 326 c 1
 253 443 358 479 427 479 c 0
 534 479 608 407 608 293 c 0
 608 135 485 -16 313 -16 c 0
 164 -16 110 90 110 218 c 0
EndSplineSet
EndChar

StartChar: seven
Encoding: 55 55 24
Width: 542
VWidth: 1494
Flags: W
HStem: -1 21G<194 271> 646 63<236 576 636 638.954 638.954 644.523 644.523 665.366>
VStem: 167 64<573 601.384 601.384 624.1> 194 62<16.9805 213.637>
LayerCount: 2
Fore
SplineSet
626 606 m 0xe0
 613 545 531 520 387 288 c 0
 329 195 286 98 256 -1 c 1
 194 -1 l 1xd0
 263 209 400 439 538 575 c 0
 562 599 566 604 571 624 c 1
 571 628 573 636 576 646 c 1
 236 646 l 1
 231 573 l 1
 167 553 l 1
 167 584 172 670 174 676 c 0
 178 694 195 709 212 709 c 2
 661 709 l 2
 670 709 675 704 675 694 c 0
 675 687 660 643 647 643 c 0
 646 643 644 644 642 644 c 0
 639 644 637 643 636 643 c 1
 629 623 631 630 626 606 c 0xe0
EndSplineSet
EndChar

StartChar: eight
Encoding: 56 56 25
Width: 606
VWidth: 1494
Flags: W
HStem: -18 54<223.639 405.831> 389 62<333.198 466.18> 665 64<367.269 510.065>
VStem: 92 66<98.9227 262.713> 232 66<482.763 598.78> 533 68<167.813 323.719> 543 64<515.267 632.218>
LayerCount: 2
Fore
SplineSet
232 521 m 0xfc
 232 617 318 729 455 729 c 0
 548 729 607 678 607 596 c 0xfa
 607 477 501 422 501 422 c 1
 539 403 601 354 601 263 c 0
 601 126 469 -18 296 -18 c 0
 170 -18 92 63 92 168 c 0
 92 264 157 372 280 420 c 1
 280 420 232 451 232 521 c 0xfc
396 451 m 0
 488 451 543 523 543 577 c 0
 543 628 501 665 441 665 c 0
 369 665 298 604 298 537 c 0
 298 486 342 451 396 451 c 0
383 389 m 0
 278 389 158 302 158 174 c 0
 158 90 220 36 308 36 c 0
 464 36 533 168 533 249 c 0xfc
 533 325 478 389 383 389 c 0
EndSplineSet
EndChar

StartChar: nine
Encoding: 57 57 26
Width: 605
VWidth: 1494
Flags: W
HStem: -12 55<210.963 378.144> 235 57<276.607 446.955> 665 62<342.145 516.257>
VStem: 143 68<358.029 530.629> 577 68<446.171 604.329>
LayerCount: 2
Fore
SplineSet
143 426 m 0
 143 565 263 727 443 727 c 0
 586 727 645 653 645 523 c 0
 645 481 639 434 628 382 c 0
 556 41 388 -12 283 -12 c 0
 203 -12 93 20 86 123 c 1
 147 152 l 1
 148 94 215 43 296 43 c 0
 387 43 476 121 515 220 c 0
 528 254 540 292 551 333 c 1
 502 275 428 235 342 235 c 0
 216 235 143 317 143 426 c 0
435 665 m 0
 300 665 211 546 211 440 c 0
 211 358 264 292 359 292 c 0
 499 292 577 417 577 523 c 0
 577 598 534 665 435 665 c 0
EndSplineSet
EndChar

StartChar: colon
Encoding: 58 58 27
Width: 297
VWidth: 1494
Flags: W
HStem: -1 109<125.457 199.066> 390 109<208.934 282.543>
VStem: 107 110<16.4778 89.5391> 191 110<408.461 481.522>
LayerCount: 2
Fore
SplineSet
301 457 m 0xd0
 301 428 277 390 234 390 c 256
 199 390 191 414 191 433 c 0
 191 462 214 499 257 499 c 256
 292 499 301 476 301 457 c 0xd0
217 65 m 0xe0
 217 36 194 -1 151 -1 c 256
 116 -1 107 22 107 41 c 0
 107 70 131 108 174 108 c 256
 209 108 217 84 217 65 c 0xe0
EndSplineSet
EndChar

StartChar: semicolon
Encoding: 59 59 28
Width: 298
VWidth: 1494
Flags: W
HStem: -19 20G<133.5 147 157 160> 390 109<210.615 279.958>
VStem: 103 122<2.20834 86.6919> 191 110<411.024 478.539>
LayerCount: 2
Fore
SplineSet
301 456 m 0xd0
 301 421 264 390 234 390 c 256
 213 390 191 407 191 434 c 0
 191 472 231 499 257 499 c 256
 278 499 301 482 301 456 c 0xd0
103 40 m 0xe0
 103 80 145 108 172 108 c 0
 214 108 225 83 225 58 c 0
 225 10 180 -74 84 -112 c 1
 83 -109 68 -79 68 -78 c 1
 103 -65 151 -32 163 1 c 1
 157 -1 150 -3 144 -3 c 0
 123 -3 103 14 103 40 c 0xe0
EndSplineSet
EndChar

StartChar: less
Encoding: 60 60 29
Width: 615
VWidth: 1494
Flags: W
HStem: -12 21G<510.132 550.375>
LayerCount: 2
Fore
SplineSet
644 445 m 1
 178 256 l 1
 560 52 l 1
 546 -12 l 1
 112 230 l 1
 123 283 l 1
 657 510 l 1
 644 445 l 1
EndSplineSet
EndChar

StartChar: equal
Encoding: 61 61 30
Width: 636
VWidth: 1494
Flags: W
HStem: 126 59<112 586> 329 57<155 629>
LayerCount: 2
Fore
SplineSet
629 329 m 1
 143 329 l 1
 155 386 l 1
 641 386 l 1
 629 329 l 1
586 126 m 1
 100 126 l 1
 112 185 l 1
 598 185 l 1
 586 126 l 1
EndSplineSet
EndChar

StartChar: greater
Encoding: 62 62 31
Width: 600
VWidth: 1494
Flags: W
HStem: -12 21G<62.375 102.463>
LayerCount: 2
Fore
SplineSet
169 510 m 1
 607 283 l 1
 596 230 l 1
 58 -12 l 1
 72 52 l 1
 540 256 l 1
 156 445 l 1
 169 510 l 1
EndSplineSet
EndChar

StartChar: question
Encoding: 63 63 32
Width: 518
VWidth: 1494
Flags: W
HStem: 1 111<235.879 310.046> 681 56<325.616 479.987>
VStem: 216 114<20.875 92.5797> 511 64<516.986 651.223>
LayerCount: 2
Fore
SplineSet
198 608 m 1
 259 714 358 737 425 737 c 0
 546 737 575 662 575 603 c 0
 575 438 370 370 342 239 c 2
 324 154 l 1
 265 154 l 1
 283 239 l 2
 317 402 511 452 511 589 c 0
 511 631 490 681 408 681 c 0
 324 681 272 624 246 578 c 1
 198 608 l 1
216 44 m 0
 216 86 254 112 287 112 c 0
 311 112 330 95 330 70 c 0
 330 31 296 1 263 1 c 0
 233 1 216 19 216 44 c 0
EndSplineSet
EndChar

StartChar: at
Encoding: 64 64 33
Width: 820
VWidth: 1494
Flags: W
HStem: -25 46<311.774 518.125> 138 38<580.786 681.956> 144 42<359.916 474.446> 537 41<476.512 590.286> 682 46<450.759 685.669>
VStem: 123 49<166.126 391.55> 297 44<205.227 368.222> 530 44<183.266 248.482> 805 43<347.409 571.285>
LayerCount: 2
Fore
SplineSet
123 259 m 0xdf80
 123 509 344 728 577 728 c 0
 694 728 848 677 848 482 c 0
 848 307 745 138 608 138 c 0xdf80
 568 138 530 156 530 204 c 0
 530 209 530 215 531 221 c 1
 508 174 447 144 398 144 c 0xbf80
 334 144 297 189 297 265 c 0
 297 411 424 578 555 578 c 0
 625 578 630 531 630 517 c 1
 654 577 l 1
 701 577 l 1
 684 530 664 480 643 428 c 2
 585 277 l 2
 579 261 574 239 574 226 c 0
 574 188 601 176 622 176 c 0
 708 176 805 307 805 468 c 0
 805 636 676 682 567 682 c 0
 358 682 172 481 172 273 c 0
 172 126 272 21 417 21 c 0
 470 21 527 36 588 66 c 1
 578 21 l 1
 516 -9 457 -25 400 -25 c 0
 248 -25 123 80 123 259 c 0xdf80
545 537 m 0
 436 537 341 377 341 269 c 0
 341 226 358 186 414 186 c 0xbf80
 519 186 601 380 601 471 c 0
 601 528 569 537 545 537 c 0
EndSplineSet
EndChar

StartChar: A
Encoding: 65 65 34
Width: 612
VWidth: 1494
Flags: W
HStem: -12 21G<9 74.8269 538.115 602> 196 49<215 502>
LayerCount: 2
Fore
SplineSet
490 685 m 1
 602 0 l 1
 541 -12 l 1
 511 196 l 1
 186 196 l 1
 63 -12 l 1
 9 0 l 1
 419 692 l 2
 436 719 460 731 468 731 c 0
 486 731 501 707 501 701 c 0
 501 697 498 693 490 685 c 1
502 245 m 1
 437 622 l 1
 215 245 l 1
 502 245 l 1
EndSplineSet
EndChar

StartChar: B
Encoding: 66 66 35
Width: 584
VWidth: 1494
Flags: W
HStem: 0 58<156 417.744> 341 55<228 355 437 441.992> 650 59<282 512.23>
VStem: 507 58<146.118 294.166> 538 58<486.71 625.417>
LayerCount: 2
Fore
SplineSet
353 396 m 2xe8
 457 396 538 466 538 570 c 0
 538 630 497 650 418 650 c 2
 282 650 l 1
 228 396 l 1
 353 396 l 2xe8
317 58 m 2
 486 58 507 187 507 228 c 0xf0
 507 282 475 341 355 341 c 2
 216 341 l 1
 156 58 l 1
 317 58 l 2
565 235 m 0
 565 159 505 0 332 0 c 2
 87 0 l 1
 223 638 l 2
 224 642 224 646 224 650 c 0
 224 672 208 677 208 689 c 0
 208 697 227 726 251 726 c 0
 256 726 266 721 274 709 c 1
 442 709 l 2
 535 709 596 657 596 576 c 0xe8
 596 482 523 387 437 375 c 1
 499 369 565 318 565 235 c 0
EndSplineSet
EndChar

StartChar: C
Encoding: 67 67 36
Width: 597
VWidth: 1494
Flags: W
HStem: -17 64<274.566 471.033> 654 62<391.994 583.002>
VStem: 115 66<144.314 383.397>
LayerCount: 2
Fore
SplineSet
489 654 m 0
 302 654 181 439 181 255 c 0
 181 138 235 47 371 47 c 0
 429 47 490 64 537 108 c 1
 567 58 l 1
 554 48 473 -17 356 -17 c 0
 251 -17 115 44 115 238 c 0
 115 474 276 716 504 716 c 0
 597 716 649 675 675 647 c 1
 635 589 l 1
 627 600 585 654 489 654 c 0
EndSplineSet
EndChar

StartChar: D
Encoding: 68 68 37
Width: 674
VWidth: 1494
Flags: W
HStem: 0 58<150 395.24> 650 59<276 502.571>
VStem: 641 64<314.772 529.568>
LayerCount: 2
Fore
SplineSet
705 448 m 0
 705 249 563 0 253 0 c 2
 79 0 l 1
 215 638 l 2
 216 642 216 646 216 649 c 0
 216 672 200 680 200 689 c 0
 200 696 221 726 244 726 c 0
 249 726 259 720 266 709 c 1
 404 709 l 2
 585 709 705 619 705 448 c 0
278 58 m 2
 529 58 641 275 641 434 c 0
 641 582 531 650 365 650 c 2
 276 650 l 1
 150 58 l 1
 278 58 l 2
EndSplineSet
EndChar

StartChar: E
Encoding: 69 69 38
Width: 511
VWidth: 1494
Flags: W
HStem: 0 58<158 454> 338 58<230 495> 650 59<284 594>
LayerCount: 2
Fore
SplineSet
251 726 m 0
 256 726 266 721 274 709 c 1
 607 709 l 1
 594 650 l 1
 284 650 l 1
 230 396 l 1
 507 396 l 1
 495 338 l 1
 218 338 l 1
 158 58 l 1
 466 58 l 1
 454 0 l 1
 87 0 l 1
 223 638 l 2
 224 642 224 646 224 650 c 0
 224 672 208 677 208 689 c 0
 208 697 227 726 251 726 c 0
EndSplineSet
EndChar

StartChar: F
Encoding: 70 70 39
Width: 499
VWidth: 1494
Flags: W
HStem: 0 21G<84 148.26> 338 58<228 492> 650 59<282 591>
LayerCount: 2
Fore
SplineSet
248 726 m 0
 253 726 263 721 271 709 c 1
 604 709 l 1
 591 650 l 1
 282 650 l 1
 228 396 l 1
 504 396 l 1
 492 338 l 1
 216 338 l 1
 144 0 l 1
 84 0 l 1
 220 638 l 2
 221 642 221 646 221 650 c 0
 221 672 205 677 205 689 c 0
 205 697 224 726 248 726 c 0
EndSplineSet
EndChar

StartChar: G
Encoding: 71 71 40
Width: 630
VWidth: 1494
Flags: W
HStem: -19 58<264.04 446.019> 299 58<412 563> 661 58<377.379 549.868>
VStem: 117 61<127.39 377.874> 600 67<567 612.346>
LayerCount: 2
Fore
SplineSet
468 661 m 0
 275 661 178 399 178 234 c 0
 178 127 223 39 367 39 c 0
 395 39 427 42 514 70 c 1
 563 299 l 1
 400 299 l 1
 412 357 l 1
 596 357 l 1
 605 366 614 371 622 371 c 0
 645 371 650 344 650 336 c 0
 650 321 624 321 617 287 c 2
 561 24 l 1
 484 -7 417 -19 323 -19 c 0
 171 -19 117 91 117 223 c 0
 117 428 245 719 480 719 c 0
 590 719 663 655 667 567 c 1
 600 544 l 1
 599 637 522 661 468 661 c 0
EndSplineSet
EndChar

StartChar: H
Encoding: 72 72 41
Width: 630
VWidth: 1494
Flags: W
HStem: 0 21G<84 146.26 490 550.26> 338 58<226 562> 689 20G<230.74 293 636.719 697>
LayerCount: 2
Fore
SplineSet
697 709 m 1
 546 0 l 1
 490 0 l 1
 562 338 l 1
 214 338 l 1
 142 0 l 1
 84 0 l 1
 235 709 l 1
 293 709 l 1
 226 396 l 1
 574 396 l 1
 641 709 l 1
 697 709 l 1
EndSplineSet
EndChar

StartChar: I
Encoding: 73 73 42
Width: 243
VWidth: 1494
Flags: MW
HStem: 0 21G<96 156.26> 689 20G<242.74 303>
LayerCount: 2
Fore
SplineSet
303 709 m 1
 152 0 l 1
 96 0 l 1
 247 709 l 1
 303 709 l 1
EndSplineSet
EndChar

StartChar: J
Encoding: 74 74 43
Width: 373
VWidth: 1494
Flags: MW
HStem: -16 50<49.3951 199.885> 689 20G<385.73 448>
LayerCount: 2
Fore
SplineSet
130 34 m 0
 199 34 258 91 273 161 c 2
 390 709 l 1
 448 709 l 1
 333 170 l 2
 307 49 211 -16 125 -16 c 0
 91 -16 50 -3 22 15 c 1
 51 64 l 1
 65 46 98 34 130 34 c 0
EndSplineSet
EndChar

StartChar: K
Encoding: 75 75 44
Width: 585
VWidth: 1494
Flags: W
HStem: -9 21G<91 152.278 498.336 584> 689 20G<237.74 299 622.985 707>
LayerCount: 2
Fore
SplineSet
584 0 m 1
 514 -9 l 1
 225 360 l 1
 148 0 l 1
 91 0 l 1
 242 709 l 1
 299 709 l 1
 229 380 l 1
 648 715 l 1
 707 700 l 1
 294 371 l 1
 584 0 l 1
EndSplineSet
EndChar

StartChar: L
Encoding: 76 76 45
Width: 484
VWidth: 1494
Flags: MW
HStem: 0 52<156 451> 689 20G<233.743 296>
LayerCount: 2
Fore
SplineSet
64 16 m 1
 68 33 95 36 102 70 c 2
 238 709 l 1
 296 709 l 1
 156 52 l 1
 462 52 l 1
 451 0 l 1
 123 0 l 1
 110 -12 98 -18 93 -18 c 0
 68 -18 64 13 64 16 c 1
EndSplineSet
EndChar

StartChar: M
Encoding: 77 77 46
Width: 826
VWidth: 1494
Flags: W
HStem: -10 21G<29 89.6898 407 420 751.825 810> 706 20G<318 334 809 826>
VStem: 751 59<3 74.84>
LayerCount: 2
Fore
SplineSet
818 726 m 0
 834 726 850 708 850 696 c 0
 850 688 834 676 834 674 c 2
 810 3 l 1
 751 -10 l 1
 776 596 l 1
 455 22 l 1
 456 7 457 8 456 5 c 0
 453 -8 427 -17 413 -17 c 0
 401 -17 398 -13 397 -7 c 2
 315 596 l 1
 82 -10 l 1
 29 3 l 1
 289 674 l 1
 281 689 281 688 282 692 c 0
 285 704 309 726 327 726 c 0
 341 726 358 698 361 685 c 2
 440 100 l 1
 768 685 l 2
 775 698 800 726 818 726 c 0
EndSplineSet
EndChar

StartChar: N
Encoding: 78 78 47
Width: 636
VWidth: 1494
Flags: MW
HStem: 0 21G<81 142.255 496.241 560.26> 689 20G<650 707 707 707> 705 20<237 250.5 645.752 707>
LayerCount: 2
Fore
SplineSet
217 640 m 2
 218 644 218 648 218 652 c 0
 218 672 205 676 205 687 c 0
 205 698 226 725 248 725 c 0xa0
 253 725 264 719 270 707 c 2
 520 97 l 1
 650 709 l 1
 707 709 l 1xc0
 556 0 l 1
 505 0 l 1
 258 564 l 1
 138 0 l 1
 81 0 l 1
 217 640 l 2
EndSplineSet
EndChar

StartChar: O
Encoding: 79 79 48
Width: 686
VWidth: 1494
Flags: W
HStem: -19 55<265.57 444.711> 664 55<392.918 572.923>
VStem: 120 61<128.603 379.782> 654 63<324.182 570.265>
LayerCount: 2
Fore
SplineSet
340 -19 m 0
 181 -19 120 87 120 225 c 0
 120 426 236 719 497 719 c 0
 608 719 717 654 717 475 c 0
 717 283 601 -19 340 -19 c 0
485 664 m 0
 285 664 181 417 181 245 c 0
 181 140 218 36 352 36 c 0
 556 36 654 292 654 456 c 0
 654 566 611 664 485 664 c 0
EndSplineSet
EndChar

StartChar: P
Encoding: 80 80 49
Width: 547
VWidth: 1494
Flags: W
HStem: 0 21G<88 150.266> 286 55<218 442.952> 655 54<285 497.082>
VStem: 560 59<448.287 599.997>
LayerCount: 2
Fore
SplineSet
223 637 m 2
 224 641 224 645 224 649 c 0
 224 671 209 681 209 690 c 0
 209 696 230 726 253 726 c 0
 258 726 268 720 275 709 c 1
 401 709 l 2
 525 709 619 663 619 550 c 0
 619 433 539 286 317 286 c 2
 207 286 l 1
 146 0 l 1
 88 0 l 1
 223 637 l 2
325 341 m 2
 523 341 560 471 560 531 c 0
 560 586 530 655 391 655 c 2
 285 655 l 1
 218 341 l 1
 325 341 l 2
EndSplineSet
EndChar

StartChar: Q
Encoding: 81 81 50
Width: 680
VWidth: 1494
Flags: W
HStem: -19 58<262.017 444.596> 661 58<385.875 566.193>
VStem: 117 62<130.193 381.169> 649 63<319.648 570.359>
LayerCount: 2
Fore
SplineSet
712 474 m 0
 712 380 678 211 582 97 c 1
 654 21 l 1
 606 -24 l 1
 534 52 l 1
 476 5 410 -19 335 -19 c 0
 177 -19 117 85 117 222 c 0
 117 416 227 719 492 719 c 256
 636 719 712 627 712 474 c 0
480 661 m 256
 271 661 179 398 179 239 c 0
 179 94 259 39 347 39 c 0
 409 39 456 60 495 93 c 1
 432 158 l 1
 480 205 l 1
 541 139 l 1
 621 236 649 378 649 457 c 0
 649 585 587 661 480 661 c 256
EndSplineSet
EndChar

StartChar: R
Encoding: 82 82 51
Width: 584
VWidth: 1494
Flags: W
HStem: -13 21G<88 150.266 457.505 529> 286 55<218 339> 655 54<285 497.082>
VStem: 560 59<446.366 602.095>
LayerCount: 2
Fore
SplineSet
619 550 m 0
 619 467 576 333 404 294 c 1
 529 1 l 1
 466 -13 l 1
 339 286 l 1
 207 286 l 1
 146 0 l 1
 88 0 l 1
 224 638 l 2
 225 642 225 646 225 649 c 0
 225 672 209 680 209 689 c 0
 209 696 230 726 253 726 c 0
 258 726 268 720 275 709 c 1
 401 709 l 2
 525 709 619 663 619 550 c 0
325 341 m 2
 524 341 560 472 560 532 c 0
 560 591 526 655 390 655 c 2
 285 655 l 1
 218 341 l 1
 325 341 l 2
EndSplineSet
EndChar

StartChar: S
Encoding: 83 83 52
Width: 579
VWidth: 1494
Flags: W
HStem: -19 55<194.479 399.682> 667 58<324.045 531.974>
VStem: 172 64<459.962 585.08> 506 64<124.18 245.152>
LayerCount: 2
Fore
SplineSet
172 510 m 0
 172 607 268 725 434 725 c 0
 511 725 589 696 625 664 c 1
 584 613 l 1
 552 641 499 667 420 667 c 0
 293 667 236 578 236 519 c 0
 236 399 445 378 530 301 c 0
 553 280 570 253 570 213 c 0
 570 135 512 -17 274 -19 c 0
 137 -19 83 54 59 75 c 1
 117 121 l 1
 158 74 200 36 294 36 c 256
 396 36 506 91 506 188 c 0
 506 311 288 302 206 414 c 0
 187 440 172 472 172 510 c 0
EndSplineSet
EndChar

StartChar: T
Encoding: 84 84 53
Width: 497
VWidth: 1494
Flags: MW
HStem: 0 21G<221 282.244> 655 54<170.582 360 417 623.928>
LayerCount: 2
Fore
SplineSet
614 709 m 2
 626 709 630 705 630 699 c 0
 630 697 629 695 629 693 c 0
 629 691 619 655 607 655 c 2
 417 655 l 1
 278 0 l 1
 221 0 l 1
 360 655 l 1
 169 655 l 2
 164 655 160 659 160 670 c 0
 160 676 161 683 163 693 c 0
 166 705 172 709 185 709 c 2
 614 709 l 2
EndSplineSet
EndChar

StartChar: U
Encoding: 85 85 54
Width: 680
VWidth: 1494
Flags: W
HStem: -16 58<245.862 460.999> 689 20G<230.732 292 683.723 743>
VStem: 123 59<98.4297 190.612 176.48 204.743 204.743 217 218 233.4>
LayerCount: 2
Fore
SplineSet
348 42 m 0
 461 42 558 97 583 218 c 2
 688 709 l 1
 743 709 l 1
 638 217 l 2
 599 31 452 -16 336 -16 c 256
 236 -16 123 20 123 154 c 0
 123 173 125 194 130 217 c 2
 235 709 l 1
 292 709 l 1
 187 218 l 2
 183 201 182 185 182 171 c 0
 182 69 270 42 348 42 c 0
EndSplineSet
EndChar

StartChar: V
Encoding: 86 86 55
Width: 614
VWidth: 1494
Flags: W
HStem: -19 21G<288 299.5> 700 20G<160 223.229 687.213 753>
LayerCount: 2
Fore
SplineSet
294 -19 m 0
 282 -19 264 -3 264 10 c 0
 264 20 272 24 278 31 c 1
 160 709 l 1
 220 720 l 1
 323 82 l 1
 699 720 l 1
 753 709 l 1
 363 52 l 2
 351 34 346 23 346 22 c 1
 339 15 305 -19 294 -19 c 0
EndSplineSet
EndChar

StartChar: W
Encoding: 87 87 56
Width: 834
VWidth: 1494
Flags: W
HStem: -18 21G<159.5 174 653.5 670> 706 20G<178 236.176 565.5 578.5 898.323 959>
VStem: 178 59<634.02 706>
LayerCount: 2
Fore
SplineSet
569 726 m 0
 588 726 605 717 605 706 c 0
 605 702 596 688 596 686 c 2
 673 112 l 1
 906 719 l 1
 959 706 l 1
 698 34 l 1
 703 25 707 20 706 16 c 0
 704 4 678 -18 662 -18 c 0
 645 -18 625 16 627 24 c 1
 548 608 l 1
 220 24 l 1
 219 17 181 -18 167 -18 c 0
 152 -18 138 1 138 14 c 0
 138 21 153 34 153 34 c 1
 178 706 l 1
 237 719 l 1
 212 112 l 1
 550 716 l 2
 556 725 562 726 569 726 c 0
EndSplineSet
EndChar

StartChar: X
Encoding: 88 88 57
Width: 562
VWidth: 1494
Flags: W
LayerCount: 2
Fore
SplineSet
17 37 m 1
 333 390 l 1
 183 701 l 1
 239 731 l 1
 376 432 l 1
 642 729 l 1
 684 701 l 1
 396 380 l 1
 565 33 l 1
 514 3 l 1
 355 336 l 1
 55 6 l 1
 17 37 l 1
EndSplineSet
EndChar

StartChar: Y
Encoding: 89 89 58
Width: 533
VWidth: 1494
Flags: W
HStem: 0 21G<239 295.267> 708 20G<613.516 673>
LayerCount: 2
Fore
SplineSet
303 302 m 1
 161 710 l 1
 213 729 l 1
 341 356 l 1
 629 728 l 1
 673 709 l 1
 417 382 385 342 355 300 c 1
 291 0 l 1
 239 0 l 1
 303 302 l 1
EndSplineSet
EndChar

StartChar: Z
Encoding: 90 90 59
Width: 591
VWidth: 1494
Flags: W
HStem: 0 58<148 540> 650 59<197 589>
LayerCount: 2
Fore
SplineSet
641 709 m 1
 661 726 665 727 670 727 c 0
 692 727 703 705 703 694 c 0
 703 690 699 682 686 671 c 2
 660 644 l 1
 148 58 l 1
 552 58 l 1
 540 0 l 1
 94 0 l 2
 82 0 73 -14 61 -14 c 0
 43 -14 32 11 32 22 c 0
 32 32 51 37 67 53 c 2
 80 64 l 1
 589 650 l 1
 184 650 l 1
 197 709 l 1
 641 709 l 1
EndSplineSet
EndChar

StartChar: bracketleft
Encoding: 91 91 60
Width: 273
VWidth: 1494
Flags: MW
HStem: -136 48<116 170> 707 48<285 349>
LayerCount: 2
Fore
SplineSet
285 707 m 1
 116 -88 l 1
 180 -88 l 1
 170 -136 l 1
 47 -136 l 1
 236 755 l 1
 359 755 l 1
 349 707 l 1
 285 707 l 1
EndSplineSet
EndChar

StartChar: backslash
Encoding: 92 92 61
Width: 243
VWidth: 1494
Flags: MW
LayerCount: 2
Fore
SplineSet
290 -27 m 1
 242 -25 l 1
 115 729 l 1
 167 729 l 1
 290 -27 l 1
EndSplineSet
EndChar

StartChar: bracketright
Encoding: 93 93 62
Width: 270
VWidth: 1494
Flags: MW
HStem: -136 48<53 117> 707 48<232 286>
LayerCount: 2
Fore
SplineSet
222 707 m 1
 232 755 l 1
 354 755 l 1
 165 -136 l 1
 43 -136 l 1
 53 -88 l 1
 117 -88 l 1
 286 707 l 1
 222 707 l 1
EndSplineSet
EndChar

StartChar: asciicircum
Encoding: 94 94 63
Width: 576
VWidth: 1494
Flags: MW
LayerCount: 2
Fore
SplineSet
113 232 m 1
 409 673 l 1
 454 673 l 1
 563 232 l 1
 512 232 l 1
 418 613 l 1
 164 232 l 1
 113 232 l 1
EndSplineSet
EndChar

StartChar: underscore
Encoding: 95 95 64
Width: 481
VWidth: 1494
Flags: W
HStem: -130 57<-16 453 -28 465 -16 -16>
LayerCount: 2
Fore
SplineSet
465 -73 m 1
 453 -130 l 1
 -28 -130 l 1
 -16 -73 l 1
 465 -73 l 1
EndSplineSet
EndChar

StartChar: grave
Encoding: 96 96 65
Width: 243
VWidth: 1494
Flags: W
HStem: 549 140<167 289 167 167>
LayerCount: 2
Fore
SplineSet
289 549 m 1
 246 549 l 1
 167 689 l 1
 237 689 l 1
 289 549 l 1
EndSplineSet
EndChar

StartChar: a
Encoding: 97 97 66
Width: 523
VWidth: 1494
Flags: W
HStem: -13 53<182.524 336.321> 468 54<265.515 415.958>
VStem: 77 52<98.9336 298.705> 426 59<21.6301 77.2981>
LayerCount: 2
Fore
SplineSet
77 177 m 0
 77 335 188 522 356 522 c 0
 437 522 481 480 502 428 c 1
 522 522 l 1
 579 522 l 1
 494 120 l 2
 488 93 485 75 485 57 c 0
 485 42 487 28 492 9 c 1
 439 -10 l 1
 429 19 l 2
 427 25 426 32 426 41 c 0
 426 52 428 66 431 82 c 1
 405 49 343 -13 242 -13 c 0
 123 -13 77 76 77 177 c 0
344 468 m 0
 208 468 129 304 129 192 c 0
 129 113 164 40 254 40 c 0
 362 40 436 142 461 226 c 2
 473 284 l 1
 473 290 474 297 474 304 c 0
 474 382 445 468 344 468 c 0
EndSplineSet
Substitution2: "Single Substitution lookup 22 subtable" uni0E38
Substitution2: "Single Substitution lookup 22 subtable" uni0E38
EndChar

StartChar: b
Encoding: 98 98 67
Width: 529
VWidth: 1494
Flags: W
HStem: -13 53<214.82 365.179> 466 54<295.547 449.016> 723 20G<208.762 269>
VStem: 501 53<208.08 408.453>
LayerCount: 2
Fore
SplineSet
554 330 m 0
 554 176 446 -13 275 -13 c 0
 194 -13 149 31 126 82 c 1
 120 53 112 32 102 19 c 2
 80 -10 l 1
 35 9 l 1
 62 50 70 70 81 120 c 2
 213 743 l 1
 269 743 l 1
 202 428 l 1
 228 459 289 520 389 520 c 0
 508 520 554 431 554 330 c 0
287 40 m 0
 419 40 501 197 501 315 c 0
 501 390 470 466 377 466 c 0
 269 466 199 365 171 284 c 2
 159 226 l 2
 158 216 157 205 157 194 c 0
 157 119 192 40 287 40 c 0
EndSplineSet
Substitution2: "Single Substitution lookup 22 subtable" uni0E39
Substitution2: "Single Substitution lookup 22 subtable" uni0E39
EndChar

StartChar: c
Encoding: 99 99 68
Width: 440
VWidth: 1494
Flags: W
HStem: -14 54<200.571 364.252> 469 56<281.467 437.036>
VStem: 86 57<100.891 299.674>
LayerCount: 2
Fore
SplineSet
357 469 m 0
 231 469 143 321 143 190 c 0
 143 95 195 40 277 40 c 0
 325 40 369 56 398 87 c 1
 424 45 l 1
 409 33 352 -14 264 -14 c 0
 187 -14 86 27 86 172 c 0
 86 341 201 525 373 525 c 0
 457 525 495 478 501 471 c 1
 466 417 l 1
 445 453 405 469 357 469 c 0
EndSplineSet
Substitution2: "Single Substitution lookup 22 subtable" uni0E3A
Substitution2: "Single Substitution lookup 22 subtable" uni0E3A
EndChar

StartChar: d
Encoding: 100 100 69
Width: 533
VWidth: 1494
Flags: W
HStem: -13 53<191.524 345.818> 466 54<274.745 426.358> 723 20G<575.746 635>
VStem: 86 52<98.637 298.842> 435 59<21.6301 77.2981>
LayerCount: 2
Fore
SplineSet
353 466 m 0
 220 466 138 309 138 191 c 0
 138 112 173 40 263 40 c 0
 371 40 445 142 470 226 c 2
 482 284 l 2
 483 291 483 298 483 305 c 0
 483 382 452 466 353 466 c 0
86 177 m 0
 86 333 195 520 365 520 c 0
 447 520 492 479 513 428 c 1
 580 743 l 1
 635 743 l 1
 503 120 l 2
 497 93 494 75 494 57 c 0
 494 42 496 28 501 9 c 1
 448 -10 l 1
 438 19 l 2
 436 25 435 32 435 41 c 0
 435 52 437 66 440 82 c 1
 418 55 352 -13 251 -13 c 0
 132 -13 86 76 86 177 c 0
EndSplineSet
EndChar

StartChar: e
Encoding: 101 101 70
Width: 526
VWidth: 1494
Flags: W
HStem: -13 49<207.813 373.033> 227 57<160 492> 471 49<285.798 441.809>
VStem: 82 63<101.429 257.467> 492 53<284 299.112 299.112 308.59 303.851 413.207>
LayerCount: 2
Fore
SplineSet
82 180 m 0
 82 331 199 520 382 520 c 0
 523 520 552 415 552 334 c 0
 552 306 549 280 545 263 c 0
 538 232 528 227 495 227 c 2
 150 227 l 1
 147 211 145 196 145 182 c 0
 145 89 211 36 281 36 c 0
 347 36 403 73 410 78 c 1
 435 33 l 1
 395 10 328 -13 263 -13 c 0
 161 -13 82 56 82 180 c 0
368 471 m 0
 234 471 171 333 160 284 c 1
 492 284 l 1
 496 301 498 318 498 334 c 0
 498 416 446 471 368 471 c 0
EndSplineSet
EndChar

StartChar: f
Encoding: 102 102 71
Width: 289
VWidth: 1494
Flags: MW
HStem: 475 45<130 198 262 361> 693 51<312.962 410.235>
LayerCount: 2
Fore
SplineSet
16 -155 m 1
 53 -119 84 -60 98 4 c 2
 198 475 l 1
 108 475 l 1
 130 520 l 1
 208 520 l 1
 227 610 l 2
 249 713 318 744 374 744 c 0
 396 744 421 741 444 734 c 1
 427 686 l 1
 405 690 381 693 368 693 c 0
 312 693 290 652 276 590 c 2
 262 520 l 1
 383 520 l 1
 361 475 l 1
 252 475 l 1
 152 6 l 2
 136 -70 101 -124 63 -170 c 1
 16 -155 l 1
EndSplineSet
EndChar

StartChar: g
Encoding: 103 103 72
Width: 536
VWidth: 1494
Flags: W
HStem: -220 53<149 160.094 160.094 165.023 162.558 262.571> -16 53<188.83 314.386> 468 54<270.665 423.031>
VStem: 82 52<96.7263 296.955>
LayerCount: 2
Fore
SplineSet
82 175 m 0
 82 327 190 522 362 522 c 0
 444 522 489 480 510 426 c 1
 516 455 524 476 534 491 c 2
 558 522 l 1
 603 502 l 1
 576 461 568 441 557 392 c 2
 477 9 l 2
 465 -47 445 -91 416 -124 c 0
 324 -226 211 -226 179 -226 c 0
 156 -226 135 -224 117 -220 c 1
 127 -204 147 -172 149 -167 c 1
 165 -170 182 -172 198 -172 c 0
 277 -172 391 -133 424 22 c 2
 435 76 l 1
 362 -9 284 -16 248 -16 c 0
 130 -16 82 73 82 175 c 0
350 468 m 0
 214 468 134 308 134 189 c 0
 134 106 172 37 259 37 c 0
 368 37 437 140 466 221 c 2
 479 281 l 2
 480 290 481 300 481 309 c 0
 481 386 447 468 350 468 c 0
EndSplineSet
EndChar

StartChar: h
Encoding: 104 104 73
Width: 530
VWidth: 1494
Flags: MW
HStem: 0 21G<70 128.232 426 482> 474 49<303.372 440.234> 723 20G<223.747 284>
VStem: 420 55<11.7678 66.8084 59.4996 74.1172 74.1172 88 88 104.608> 481 54<335.798 432.701>
LayerCount: 2
Fore
SplineSet
429 -15 m 1
 423 11 420 28 420 43 c 0
 420 57 422 70 426 88 c 2
 477 330 l 2
 480 344 481 356 481 367 c 0
 481 446 417 474 376 474 c 0
 286 474 207 389 186 293 c 2
 124 0 l 1
 70 0 l 1
 228 743 l 1
 284 743 l 1
 217 429 l 1
 237 456 298 523 389 523 c 0
 482 523 535 461 535 377 c 0
 535 362 533 346 530 330 c 2
 479 88 l 2
 476 74 475 60 475 48 c 0
 475 23 479 5 482 4 c 1
 429 -15 l 1
EndSplineSet
EndChar

StartChar: i
Encoding: 105 105 74
Width: 206
VWidth: 1494
Flags: W
HStem: 0 21G<76 134.269> 500 20G<182.731 241> 616 90<209.15 274.069>
VStem: 197 90<628.458 694.081>
LayerCount: 2
Fore
SplineSet
187 520 m 1
 241 520 l 1
 130 0 l 1
 76 0 l 1
 187 520 l 1
197 651 m 0
 197 678 220 706 253 706 c 0
 273 706 287 692 287 672 c 0
 287 640 258 616 234 616 c 0
 212 616 197 631 197 651 c 0
EndSplineSet
EndChar

StartChar: j
Encoding: 106 106 75
Width: 206
VWidth: 1494
Flags: W
HStem: -223 21G<-89.5 -23.5> 500 20G<182.748 241> 614 90<205.795 272.981>
VStem: 194 92<626.324 691.921>
LayerCount: 2
Fore
SplineSet
194 651 m 0
 194 675 216 704 250 704 c 0
 273 704 286 691 286 671 c 0
 286 646 265 614 231 614 c 0
 209 614 194 631 194 651 c 0
79 12 m 2
 187 520 l 1
 241 520 l 1
 127 -15 l 2
 95 -167 43 -208 -90 -223 c 1
 -89 -223 -104 -183 -104 -177 c 0
 -104 -161 27 -231 79 12 c 2
EndSplineSet
EndChar

StartChar: k
Encoding: 107 107 76
Width: 463
VWidth: 1494
Flags: MW
HStem: 0 21G<75 134.245 389.324 455> 509 20G<453.488 525> 723 20G<228.747 288>
LayerCount: 2
Fore
SplineSet
455 3 m 1
 404 -15 l 1
 189 278 l 1
 130 0 l 1
 75 0 l 1
 233 743 l 1
 288 743 l 1
 199 324 l 1
 481 529 l 1
 525 510 l 1
 243 302 l 1
 455 3 l 1
EndSplineSet
EndChar

StartChar: l
Encoding: 108 108 77
Width: 206
VWidth: 1494
Flags: MW
HStem: 0 21G<76 134.238> 735 20G<239.296 290>
LayerCount: 2
Fore
SplineSet
263 755 m 1
 290 755 l 1
 130 0 l 1
 76 0 l 1
 231 728 l 1
 263 755 l 1
EndSplineSet
EndChar

StartChar: m
Encoding: 109 109 78
Width: 811
VWidth: 1494
Flags: W
HStem: -12 21G<69 127.242 383 440.242 713.5 769> 469 53<296.274 423.248 601.066 743.273>
VStem: 161 57<433.695 492.775> 716 53<7 17.8524 17.8524 24.6715 21.2619 85.7332> 766 51<316.712 321 333 347.656 347.656 360.234 353.945 442.641>
LayerCount: 2
Fore
SplineSet
688 522 m 0xe8
 773 522 824 468 824 380 c 0
 824 362 821 342 817 321 c 2xe8
 768 91 l 2
 765 76 764 62 764 49 c 0
 764 25 768 8 769 7 c 1
 716 -12 l 1xf0
 711 11 709 28 709 44 c 0
 709 58 710 72 714 91 c 2
 766 333 l 2
 769 348 771 363 771 376 c 0
 771 434 740 469 677 469 c 0
 581 469 517 382 499 297 c 2
 436 0 l 1
 383 0 l 1
 454 333 l 2
 457 347 458 359 458 371 c 0
 458 445 401 469 354 469 c 0
 249 469 200 364 186 297 c 2
 123 0 l 1
 69 0 l 1
 154 398 l 2
 159 423 161 439 161 453 c 0
 161 470 158 483 153 504 c 1
 208 523 l 1
 215 504 218 490 218 471 c 0
 218 461 217 448 215 433 c 1
 250 481 312 522 379 522 c 0
 451 522 501 479 508 416 c 1
 544 476 614 522 688 522 c 0xe8
EndSplineSet
EndChar

StartChar: n
Encoding: 110 110 79
Width: 509
VWidth: 1494
Flags: W
HStem: 0 21G<69 128.281 411.5 467> 468 55<299.361 435.306>
VStem: 161 59<435.139 489.414> 406 56<7.32712 79.8107> 468 54<316.51 332 333 346.77 346.77 349.238 348.004 434.999>
LayerCount: 2
Fore
SplineSet
362 468 m 0
 280 468 208 395 188 299 c 2
 124 0 l 1
 69 0 l 1
 154 399 l 2
 159 423 161 440 161 454 c 0
 161 479 155 491 153 504 c 1
 208 523 l 1
 216 499 220 485 220 469 c 0
 220 458 218 446 214 429 c 1
 270 510 352 523 385 523 c 0
 498 523 522 442 522 379 c 0
 522 361 520 345 518 332 c 2
 466 88 l 2
 463 72 462 57 462 44 c 0
 462 22 465 5 467 4 c 1
 414 -15 l 1
 409 8 406 24 406 41 c 0
 406 55 408 69 412 88 c 2
 464 333 l 2
 467 347 468 361 468 372 c 0
 468 448 410 468 362 468 c 0
EndSplineSet
EndChar

StartChar: o
Encoding: 111 111 80
Width: 491
VWidth: 1494
Flags: W
HStem: -12 48<185.708 329.723> 472 48<267.708 412.141>
VStem: 77 54<96.0401 297.811> 467 55<208.325 410.254>
LayerCount: 2
Fore
SplineSet
77 180 m 0
 77 331 186 520 356 520 c 256
 475 520 522 430 522 329 c 0
 522 176 413 -12 242 -12 c 256
 123 -12 77 80 77 180 c 0
345 472 m 256
 219 472 131 314 131 191 c 0
 131 109 168 36 253 36 c 256
 375 36 467 188 467 314 c 0
 467 392 435 472 345 472 c 256
EndSplineSet
EndChar

StartChar: p
Encoding: 112 112 81
Width: 533
VWidth: 1494
Flags: W
HStem: -235 21G<-6 55> -13 53<219.802 369.64> 471 54<300.701 453.835>
VStem: 152 59<434.868 488.104> 507 52<210.727 413.722>
LayerCount: 2
Fore
SplineSet
292 40 m 0
 421 40 507 196 507 323 c 0
 507 411 462 471 383 471 c 0
 249 471 189 327 175 284 c 2
 163 226 l 1
 163 222 162 216 162 208 c 0
 162 156 175 40 292 40 c 0
559 336 m 0
 559 177 451 -13 280 -13 c 0
 242 -13 167 -6 132 79 c 1
 87 -132 l 2
 81 -162 69 -198 41 -235 c 1
 -6 -215 l 1
 -0 -213 24 -170 32 -132 c 2
 144 393 l 2
 149 419 152 437 152 453 c 0
 152 469 149 484 144 504 c 1
 198 523 l 1
 204 499 211 490 211 470 c 0
 211 460 209 447 205 428 c 1
 231 461 294 525 395 525 c 0
 500 525 559 449 559 336 c 0
EndSplineSet
EndChar

StartChar: q
Encoding: 113 113 82
Width: 541
VWidth: 1494
Flags: W
HStem: -235 21G<395.5 453> -13 53<194.428 321.164> 471 54<279.314 430.135>
VStem: 89 53<98.0377 299.527> 398 55<-215 -206.231 -206.231 -200.88 -203.555 -140.172>
LayerCount: 2
Fore
SplineSet
357 471 m 0
 228 471 142 317 142 194 c 0
 142 115 175 40 266 40 c 0
 400 40 461 193 473 226 c 1
 485 284 l 2
 486 294 487 305 487 315 c 0
 487 388 455 471 357 471 c 0
89 179 m 0
 89 333 198 525 369 525 c 0
 470 525 505 456 517 426 c 1
 523 455 531 476 541 492 c 2
 562 523 l 1
 609 504 l 1
 583 462 575 448 564 393 c 2
 452 -132 l 2
 449 -146 448 -160 448 -173 c 0
 448 -196 451 -214 453 -215 c 1
 398 -235 l 1
 393 -215 391 -199 391 -182 c 0
 391 -167 393 -151 397 -132 c 2
 442 79 l 1
 371 -6 290 -13 254 -13 c 0
 135 -13 89 77 89 179 c 0
EndSplineSet
EndChar

StartChar: r
Encoding: 114 114 83
Width: 331
VWidth: 1494
Flags: W
HStem: 0 21G<70 130.251> 469 59<286.739 387.652>
VStem: 162 55<424.729 493.404>
LayerCount: 2
Fore
SplineSet
353 469 m 0
 302 469 223 427 187 287 c 2
 126 0 l 1
 70 0 l 1
 154 393 l 2
 159 419 162 436 162 452 c 0
 162 468 159 483 155 504 c 1
 208 523 l 1
 212 508 l 2
 215 498 217 482 217 467 c 0
 217 444 213 426 208 410 c 1
 232 475 289 528 367 528 c 0
 390 528 415 523 441 510 c 1
 402 457 l 1
 389 465 373 469 353 469 c 0
EndSplineSet
EndChar

StartChar: s
Encoding: 115 115 84
Width: 424
VWidth: 1494
Flags: W
HStem: -13 49<149.314 311.382> 477 52<229.025 377.245>
VStem: 120 60<332.926 430.705> 369 60<84.3145 187.753>
LayerCount: 2
Fore
SplineSet
120 362 m 0
 120 427 189 529 323 529 c 0
 354 529 414 518 468 483 c 1
 433 433 l 1
 428 438 378 477 310 477 c 0
 217 477 180 416 180 377 c 0
 180 276 429 290 429 159 c 0
 429 111 394 -11 206 -13 c 0
 92 -13 51 34 31 55 c 1
 78 96 l 1
 129 36 190 36 209 36 c 0
 333 36 369 98 369 141 c 0
 369 227 219 219 144 300 c 0
 128 318 120 339 120 362 c 0
EndSplineSet
EndChar

StartChar: t
Encoding: 116 116 85
Width: 298
VWidth: 1494
Flags: W
HStem: -13 52<171.181 241.053> 475 45<133 194 257 357>
VStem: 111 55<45.8505 104.803>
LayerCount: 2
Fore
SplineSet
170 114 m 2
 168 103 166 93 166 84 c 0
 166 57 179 39 225 39 c 0
 243 39 250 44 274 51 c 1
 280 0 l 1
 235 -9 227 -13 205 -13 c 0
 131 -13 111 18 111 62 c 0
 111 84 116 110 122 136 c 2
 194 475 l 1
 111 475 l 1
 133 520 l 1
 204 520 l 1
 231 649 l 1
 271 676 l 1
 290 676 l 1
 257 520 l 1
 379 520 l 1
 357 475 l 1
 247 475 l 1
 170 114 l 2
EndSplineSet
EndChar

StartChar: u
Encoding: 117 117 86
Width: 530
VWidth: 1494
Flags: W
HStem: -13 49<193.232 309.12> 500 20G<172.731 231 507.728 567>
VStem: 99 54<73.873 163.95 163.461 164.438 164.438 176 178 192.27> 412 59<14.9266 68.1505>
LayerCount: 2
Fore
SplineSet
264 36 m 0
 353 36 428 126 446 211 c 2
 512 520 l 1
 567 520 l 1
 480 112 l 2
 474 86 471 68 471 51 c 0
 471 36 474 21 478 1 c 1
 425 -18 l 1
 420 3 412 11 412 33 c 0
 412 43 414 56 418 75 c 1
 364 -4 272 -13 242 -13 c 0
 128 -13 99 68 99 133 c 0
 99 150 101 165 104 178 c 2
 177 520 l 1
 231 520 l 1
 157 176 l 2
 154 163 153 151 153 140 c 0
 153 70 204 36 264 36 c 0
EndSplineSet
EndChar

StartChar: v
Encoding: 118 118 87
Width: 500
VWidth: 1494
Flags: MW
HStem: -15 21G<240.5 255> 508 20G<138 199.243 514.378 581>
LayerCount: 2
Fore
SplineSet
223 22 m 1
 138 517 l 1
 196 528 l 1
 268 84 l 1
 526 528 l 1
 581 517 l 1
 280 12 275 3 274 0 c 0
 269 -10 261 -15 249 -15 c 0
 232 -15 215 -3 215 7 c 0
 215 13 221 19 223 22 c 1
EndSplineSet
EndChar

StartChar: w
Encoding: 119 119 88
Width: 777
VWidth: 1494
Flags: W
HStem: -8 21G<209.5 222.5 547.5 560> 512 20<140 199.911 496.5 517 792.557 855>
LayerCount: 2
Fore
SplineSet
215 -8 m 0
 204 -8 182 -4 182 8 c 0
 182 14 191 27 191 30 c 2
 140 519 l 1
 198 532 l 1
 241 82 l 1
 479 516 l 1
 486 525 494 526 499 526 c 1
 517 522 l 2
 532 518 537 505 528 496 c 1
 520 477 l 1
 567 82 l 1
 803 534 l 1
 855 520 l 1
 593 30 l 1
 595 22 596 12 595 10 c 1
 592 -4 566 -8 554 -8 c 0
 541 -8 527 -4 527 7 c 0
 527 9 528 10 528 12 c 2
 475 413 l 1
 251 12 l 1
 247 -3 230 -8 215 -8 c 0
EndSplineSet
EndChar

StartChar: x
Encoding: 120 120 89
Width: 496
VWidth: 1494
Flags: W
HStem: -9 21G<52.4706 95.1189 404.251 445.588> 517 20G<157.5 200.168 512.513 554.75>
LayerCount: 2
Fore
SplineSet
333 259 m 1
 467 25 l 1
 415 -9 l 1
 293 218 l 1
 76 -9 l 1
 36 25 l 1
 269 259 l 1
 138 505 l 1
 190 537 l 1
 311 299 l 1
 531 537 l 1
 569 505 l 1
 333 259 l 1
EndSplineSet
EndChar

StartChar: y
Encoding: 121 121 90
Width: 517
VWidth: 1494
Flags: W
HStem: -235 21G<38.5 51> 515 20G<149.833 202.789 538.326 587.5>
LayerCount: 2
Fore
SplineSet
35 -187 m 1
 153 -141 165 -134 239 15 c 1
 140 511 l 1
 199 535 l 1
 285 81 l 1
 550 535 l 1
 595 511 l 1
 204 -147 223 -118 192 -152 c 0
 134 -214 61 -224 41 -235 c 1
 35 -187 l 1
EndSplineSet
EndChar

StartChar: z
Encoding: 122 122 91
Width: 464
VWidth: 1494
Flags: W
HStem: 0 52<35.069 46 46 57 125 432> 466 54<159 449 518 538.921>
LayerCount: 2
Fore
SplineSet
542 504 m 0
 542 497 537 466 518 466 c 1
 125 52 l 1
 443 52 l 1
 432 0 l 1
 46 0 l 2
 36 0 33 9 33 17 c 0
 33 32 42 52 57 52 c 1
 449 466 l 1
 147 466 l 1
 159 520 l 1
 530 520 l 2
 540 520 542 512 542 504 c 0
EndSplineSet
EndChar

StartChar: braceleft
Encoding: 123 123 92
Width: 273
VWidth: 1494
Flags: W
HStem: -152 19<145 180> 753 20<332 368>
VStem: 64 49<-126.611 -83.2336> 133 49<222.478 232 232 238.5 238.5 250.069 244.285 297.95>
LayerCount: 2
Fore
SplineSet
151 309 m 1
 165 309 183 276 183 245 c 0
 183 241 183 236 182 232 c 2
 115 -84 l 2
 114 -89 113 -93 113 -97 c 0
 113 -112 120 -124 145 -130 c 1
 180 -133 l 1
 191 -152 l 1
 119 -152 l 2
 82 -152 64 -125 64 -96 c 0
 64 -91 64 -87 65 -82 c 2
 133 239 l 2
 135 248 136 255 136 261 c 0
 136 290 119 296 112 299 c 1
 117 321 l 1
 150 335 160 369 163 381 c 2
 231 703 l 2
 238 734 271 773 315 773 c 2
 387 773 l 1
 368 753 l 1
 332 750 l 1
 296 741 287 723 283 704 c 2
 216 389 l 2
 209 359 173 316 151 309 c 1
EndSplineSet
EndChar

StartChar: bar
Encoding: 124 124 93
Width: 194
VWidth: 1494
Flags: MW
HStem: 0 21G<82 128.26> 689 20G<228.74 275>
LayerCount: 2
Fore
SplineSet
275 709 m 1
 124 0 l 1
 82 0 l 1
 233 709 l 1
 275 709 l 1
EndSplineSet
EndChar

StartChar: braceright
Encoding: 125 125 94
Width: 281
VWidth: 1494
Flags: W
HStem: -152 19<41 75> 753 20<229 262>
VStem: 226 47<318.259 384.766> 295 49<687.545 709.977 709.977 710.477 710.227 738.442>
LayerCount: 2
Fore
SplineSet
177 -82 m 2
 170 -115 137 -152 94 -152 c 2
 22 -152 l 1
 41 -133 l 1
 75 -130 l 1
 112 -121 122 -103 126 -84 c 2
 193 232 l 2
 201 269 245 309 257 309 c 1
 242 314 226 346 226 375 c 0
 226 380 226 385 227 389 c 2
 294 704 l 2
 295 708 295 712 295 717 c 0
 295 731 288 743 262 750 c 1
 229 753 l 1
 218 773 l 1
 290 773 l 2
 330 773 344 742 344 717 c 0
 344 712 344 707 343 703 c 2
 275 381 l 2
 274 375 273 370 273 365 c 0
 273 345 282 329 295 321 c 1
 293 299 l 1
 283 296 255 287 245 239 c 2
 177 -82 l 2
EndSplineSet
EndChar

StartChar: asciitilde
Encoding: 126 126 95
Width: 606
VWidth: 1494
Flags: W
HStem: 197 57<397.009 524.091> 265 58<199.28 331.045>
LayerCount: 2
Fore
SplineSet
470 254 m 0
 510 254 559 300 586 338 c 1
 613 297 l 1
 552 218 506 197 455 197 c 0
 382 197 326 265 261 265 c 0
 233 265 196 257 133 176 c 1
 112 227 l 1
 129 246 189 323 272 323 c 0
 335 323 409 254 470 254 c 0
EndSplineSet
EndChar

StartChar: uni0E33.alt1
Encoding: 65539 -1 96
Width: 521
VWidth: 1494
Flags: W
HStem: 0 21<378 440.266> 504 20<534.5 544.5> 556 54<278.195 440.934> 732 53<-172.632 -78.6791> 900 52<-157.844 -64.1382>
VStem: -233 53<792.742 877.489> -57 55<807.297 892.61> 122 55<406.72 512.816>
LayerCount: 2
Back
SplineSet
-238 803 m 0
 -232 833 -216 858.667 -190 880 c 128
 -164 901.333 -135.667 912 -105 912 c 0
 -75 912 -51.5 901.333 -34.5 880 c 128
 -17.5 858.667 -12 833 -18 803 c 0
 -24.6667 771.667 -41 745.333 -67 724 c 128
 -93 702.667 -121 692 -151 692 c 0
 -181.667 692 -205.5 702.667 -222.5 724 c 128
 -239.5 745.333 -244.667 771.667 -238 803 c 0
-141 744 m 0
 -125 744 -110.167 749.5 -96.5 760.5 c 128
 -82.8333 771.5 -74 785.667 -70 803 c 0
 -67.3333 819 -70.1667 832.5 -78.5 843.5 c 128
 -86.8333 854.5 -99 860 -115 860 c 0
 -132.333 860 -147.667 854.5 -161 843.5 c 128
 -174.333 832.5 -182.333 819 -185 803 c 0
 -189 785.667 -186.833 771.5 -178.5 760.5 c 128
 -170.167 749.5 -157.667 744 -141 744 c 0
436 0 m 1
 378 0 l 1
 472 447 l 2
 475 456 475 456 477.5 463.5 c 128
 479.167 468.5 482.333 473.333 487 478 c 1
 484.333 485.333 480 493.5 474 502.5 c 128
 468 511.5 459.667 520 449 528 c 128
 438.333 536 425.333 542.667 410 548 c 128
 394.667 553.333 376.667 556 356 556 c 0
 310 556 272.333 540.5 243 509.5 c 128
 213.667 478.5 191.333 439.333 176 392 c 1
 121 392 l 1
 130.333 422.667 142.333 451.167 157 477.5 c 128
 171.667 503.833 189.333 526.667 210 546 c 128
 230.667 565.333 254.167 580.833 280.5 592.5 c 128
 306.833 604.167 335.333 610 366 610 c 0
 391.333 610 413.333 607.167 432 601.5 c 128
 450.667 595.833 466.833 588.833 480.5 580.5 c 128
 494.167 572.167 505 562.833 513 552.5 c 128
 521 542.167 526.333 532 529 522 c 1
 531 524 534.833 524.5 540.5 523.5 c 128
 546.167 522.5 552 518 558 510 c 0
 564.667 498.667 566.333 490.5 563 485.5 c 128
 559.667 480.5 554 474.667 546 468 c 0
 538 462 532.333 451.333 529 436 c 2
 436 0 l 1
EndSplineSet
Fore
Refer: 284 3661 N 1 0 0 1 -150 0 2
Refer: 261 3634 N 1 0 0 1 0 0 2
EndChar

StartChar: quotedbl
Encoding: 34 34 97
Width: 300
VWidth: 1494
Flags: W
HStem: 460 241<200 204 330 334>
VStem: 164 40<465.91 495.176> 294 40<465.91 495.176>
LayerCount: 2
Fore
SplineSet
334 460 m 1
 294 460 l 1
 330 701 l 1
 400 701 l 1
 334 460 l 1
204 460 m 1
 164 460 l 1
 200 701 l 1
 270 701 l 1
 204 460 l 1
EndSplineSet
EndChar

StartChar: exclam
Encoding: 33 33 98
Width: 340
VWidth: 1494
Flags: W
HStem: 0 99<148.608 220.212> 689 20G<285.222 362>
VStem: 134 102<15.4297 83.7204> 187 48<177.909 256.868> 289 73<643.591 709>
LayerCount: 2
Fore
SplineSet
187 169 m 1xd8
 289 709 l 1
 362 709 l 1
 235 169 l 1
 187 169 l 1xd8
134 38 m 0xe8
 134 76 166 99 197 99 c 0
 220 99 236 85 236 62 c 0
 236 34 212 0 176 0 c 0
 151 0 134 14 134 38 c 0xe8
EndSplineSet
EndChar

StartChar: uni0E4E.alt1
Encoding: 65540 -1 99
Width: 0
VWidth: 1494
Flags: W
HStem: 659 35<-156.467 -91.7643 -99.1505 -84.3782 -84.3782 -77> 981 13<17.1693 63 63 75>
VStem: -223 62<701.561 775.453> -102 54<864.717 929.736>
LayerCount: 2
Back
SplineSet
109 988 m 1
 78.3333 987.333 47.8333 979 17.5 963 c 128
 -12.8333 947 -30.3333 926.667 -35 902 c 128
 -39.6667 877.333 -28 861.667 0 855 c 1
 -16 821 l 1
 -92 821 -138.333 799 -155 755 c 1
 -161 727 -150.833 711.5 -124.5 708.5 c 128
 -98.1667 705.5 -74 709.333 -52 720 c 1
 -76 665 l 1
 -115.333 652.333 -151.167 652 -183.5 664 c 128
 -215.833 676 -227.333 704.333 -218 749 c 1
 -197.333 807.667 -147.667 841.667 -69 851 c 1
 -89.6667 879.667 -94.3333 906.167 -83 930.5 c 128
 -71.6667 954.833 -51.5 973 -22.5 985 c 128
 6.5 997 42 1002.67 84 1002 c 1
 109 988 l 1
EndSplineSet
Fore
Refer: 285 3662 N 1 0 0 1 -57 0 2
EndChar

StartChar: exclamdown
Encoding: 161 161 100
Width: 231
VWidth: 1494
Flags: W
HStem: 419 98<176.891 249.439>
VStem: 36 73<-183.298 -118.116> 162 103<434.126 501.806> 164 48<263.116 342>
LayerCount: 2
Fore
SplineSet
212 342 m 1xd0
 109 -197 l 1
 36 -197 l 1
 164 342 l 1
 212 342 l 1xd0
162 457 m 0xe0
 162 479 180 517 227 517 c 0
 249 517 265 503 265 480 c 0
 265 453 241 419 206 419 c 0
 179 419 162 434 162 457 c 0xe0
EndSplineSet
EndChar

StartChar: cent
Encoding: 162 162 101
Width: 494
VWidth: 1494
Flags: W
HStem: 0 21G<262 297.235>
VStem: 131 55<195.068 394.476>
LayerCount: 2
Fore
SplineSet
392 611 m 1
 408 689 l 1
 439 689 l 1
 423 613 l 1
 474 608 513 591 538 561 c 1
 503 507 l 1
 497 517 474 552 412 559 c 1
 323 139 l 1
 367 139 404 153 435 184 c 1
 460 148 l 1
 440 127 397 89 311 85 c 1
 293 0 l 1
 262 0 l 1
 280 87 l 1
 271 89 131 100 131 268 c 0
 131 475 279 607 392 611 c 1
381 558 m 1
 241 536 186 382 186 281 c 0
 186 147 292 141 292 141 c 1
 381 558 l 1
EndSplineSet
EndChar

StartChar: sterling
Encoding: 163 163 102
Width: 571
VWidth: 1494
Flags: W
HStem: 0 51<166 516> 333 45<156 264 321 467> 607 21G<604.5 623.478> 664 48<410.173 572.506>
VStem: 264 54<226.347 333 378 422.703 422.703 425.974 424.338 565.989>
LayerCount: 2
Fore
SplineSet
261 468 m 0
 261 562 330 712 507 712 c 0
 580 712 628 671 641 653 c 1
 610 607 l 1
 599 626 558 664 495 664 c 0
 384 664 316 578 316 466 c 0
 316 436 321 410 321 378 c 1
 488 378 l 1
 467 333 l 1
 318 333 l 1
 318 265 274 117 166 51 c 1
 527 51 l 1
 516 0 l 1
 63 0 l 1
 71 37 l 1
 235 119 257 227 264 333 c 1
 135 333 l 1
 156 378 l 1
 267 378 l 1
 267 415 261 439 261 468 c 0
EndSplineSet
EndChar

StartChar: currency
Encoding: 164 164 103
Width: 657
VWidth: 1494
Flags: W
HStem: 154 48<302.687 454.372> 490 48<352.783 505.732>
VStem: 208 49<260.222 368.002> 551 48<297.393 431.333>
LayerCount: 2
Fore
SplineSet
208 308 m 0
 208 320 209 397 277 463 c 1
 208 552 l 1
 241 580 l 1
 313 493 l 1
 348 519 395 538 444 538 c 256
 492 538 529 519 555 495 c 1
 661 580 l 1
 684 552 l 1
 579 466 l 1
 595 434 599 404 599 382 c 0
 599 342 584 282 525 224 c 1
 596 136 l 1
 561 108 l 1
 489 194 l 1
 456 172 412 154 363 154 c 256
 314 154 277 174 253 197 c 1
 141 108 l 1
 120 136 l 1
 229 226 l 1
 217 247 208 276 208 308 c 0
434 490 m 256
 343 490 257 408 257 316 c 0
 257 251 303 202 373 202 c 256
 462 202 551 281 551 378 c 0
 551 445 502 490 434 490 c 256
EndSplineSet
EndChar

StartChar: yen
Encoding: 165 165 104
Width: 571
VWidth: 1494
Flags: W
HStem: -4 21G<253 315.314> 200 47<129 297 365 538> 339 42<157 299 429 567> 698 20G<198.333 242.881 638 670.333>
LayerCount: 2
Fore
SplineSet
429 381 m 1
 576 381 l 1
 567 339 l 1
 395 339 l 1
 380 320 l 1
 365 247 l 1
 548 247 l 1
 538 200 l 1
 355 200 l 1
 311 -4 l 1
 253 -4 l 1
 297 200 l 1
 119 200 l 1
 129 247 l 1
 307 247 l 1
 322 320 l 1
 316 339 l 1
 148 339 l 1
 157 381 l 1
 299 381 l 1
 178 687 181 687 180 688 c 1
 235 718 l 1
 367 383 l 1
 639 720 633 705 643 718 c 1
 684 688 l 1
 429 381 l 1
EndSplineSet
EndChar

StartChar: brokenbar
Encoding: 166 166 105
Width: 261
VWidth: 1494
Flags: MW
HStem: 695 20G<253.761 310>
LayerCount: 2
Fore
SplineSet
232 347 m 1
 180 347 l 1
 258 715 l 1
 310 715 l 1
 232 347 l 1
118 -190 m 1
 66 -190 l 1
 144 178 l 1
 196 178 l 1
 118 -190 l 1
EndSplineSet
EndChar

StartChar: section
Encoding: 167 167 106
Width: 571
VWidth: 1494
Flags: W
HStem: -60 47<171.164 361.482> 688 43<356.032 532.01>
VStem: 162 50<320.066 426.354> 240 56<525.963 633.013> 429 54<48.0992 169.099> 505 52<289.989 380.064>
LayerCount: 2
Fore
SplineSet
268 -13 m 0
 359 -13 429 38 429 115 c 0
 429 245 162 206 162 351 c 0
 162 428 224 478 259 502 c 1
 248 516 240 536 240 561 c 0
 240 634 311 731 455 731 c 0
 517 731 564 714 597 692 c 1
 561 647 l 1
 534 670 493 688 439 688 c 0
 354 688 296 632 296 574 c 0
 296 460 557 490 557 350 c 0
 557 313 543 255 464 191 c 1
 473 179 483 156 483 127 c 0
 483 37 397 -60 255 -60 c 0
 187 -60 136 -42 109 -10 c 1
 142 33 l 1
 155 15 193 -13 268 -13 c 0
288 477 m 1
 247 448 212 412 212 368 c 0
 212 276 399 254 437 220 c 1
 496 270 505 309 505 331 c 0
 505 416 358 429 288 477 c 1
EndSplineSet
EndChar

StartChar: dieresis
Encoding: 168 168 107
Width: 346
VWidth: 1494
Flags: W
HStem: 601 94<183.925 253.813 368.481 438.193>
VStem: 170 96<614.051 682.158> 354 97<613.689 681.159>
LayerCount: 2
Fore
SplineSet
266 658 m 0
 266 624 238 601 207 601 c 256
 178 601 170 619 170 635 c 0
 170 665 193 695 227 695 c 256
 252 695 266 680 266 658 c 0
451 659 m 0
 451 630 429 601 393 601 c 256
 369 601 354 613 354 634 c 0
 354 665 378 695 413 695 c 256
 437 695 451 681 451 659 c 0
EndSplineSet
EndChar

StartChar: copyright
Encoding: 169 169 108
Width: 801
VWidth: 1494
Flags: W
HStem: -22 44<300.022 520.318> 110 48<374.249 531.773> 534 48<445.769 597.77> 683 43<434.342 653.854>
VStem: 108 46<172.868 393.655> 274 51<208.47 396.112> 801 44<307.179 531.566>
LayerCount: 2
Fore
SplineSet
108 272 m 0
 108 511 334 726 556 726 c 0
 727 726 845 600 845 433 c 0
 845 199 624 -22 397 -22 c 0
 227 -22 108 103 108 272 c 0
547 683 m 256
 347 683 154 490 154 280 c 0
 154 130 260 22 407 22 c 256
 608 22 801 219 801 423 c 0
 801 563 708 683 547 683 c 256
526 534 m 0
 406 534 325 410 325 290 c 0
 325 216 361 158 450 158 c 0
 512 158 553 193 562 200 c 1
 586 161 l 1
 540 124 480 110 438 110 c 0
 381 110 274 138 274 275 c 0
 274 452 399 582 533 582 c 0
 599 582 635 552 653 532 c 1
 621 489 l 1
 603 514 574 534 526 534 c 0
EndSplineSet
EndChar

StartChar: ordfeminine
Encoding: 170 170 109
Width: 376
VWidth: 1494
Flags: W
HStem: 280 47<193.417 305.591> 573 47<237.917 342.702>
VStem: 126 47<347.169 498.848> 340 43<296.205 339.93>
LayerCount: 2
Fore
SplineSet
126 399 m 0
 126 498 193 620 304 620 c 0
 330 620 373 615 396 561 c 1
 409 620 l 1
 450 620 l 1
 390 338 l 1
 383 290 l 1
 340 290 l 1
 350 339 l 1
 323 305 284 280 232 280 c 0
 149 280 126 341 126 399 c 0
245 327 m 0
 334 327 372 440 372 490 c 0
 372 536 349 573 297 573 c 0
 223 573 173 486 173 413 c 0
 173 368 192 327 245 327 c 0
EndSplineSet
EndChar

StartChar: guillemotleft
Encoding: 171 171 110
Width: 448
VWidth: 1494
Flags: MW
LayerCount: 2
Fore
SplineSet
276 462 m 1
 336 462 l 1
 157 253 l 1
 247 43 l 1
 187 43 l 1
 106 239 l 2
 105 241 105 243 105 245 c 0
 105 251 107 260 112 266 c 2
 276 462 l 1
436 462 m 1
 496 462 l 1
 317 253 l 1
 407 43 l 1
 347 43 l 1
 266 239 l 2
 265 241 265 243 265 245 c 0
 265 251 267 260 272 266 c 2
 436 462 l 1
EndSplineSet
EndChar

StartChar: logicalnot
Encoding: 172 172 111
Width: 611
VWidth: 1494
Flags: W
HStem: 368 54<132 585>
LayerCount: 2
Fore
SplineSet
537 139 m 1
 585 368 l 1
 120 368 l 1
 132 422 l 1
 655 422 l 1
 595 139 l 1
 537 139 l 1
EndSplineSet
EndChar

StartChar: registered
Encoding: 174 174 112
Width: 804
VWidth: 1494
Flags: W
HStem: -21 43<300.693 518.009> 302 34<389 463> 538 36<432 580.252> 685 43<434.807 650.962>
VStem: 108 44<174.951 394.353> 608 39<394.356 511.816> 799 44<306.709 535.053>
LayerCount: 2
Fore
SplineSet
108 272 m 0
 108 512 335 728 556 728 c 0
 714 728 843 612 843 436 c 0
 843 196 622 -21 397 -21 c 0
 222 -21 108 107 108 272 c 0
547 685 m 256
 349 685 152 489 152 282 c 0
 152 134 256 22 406 22 c 256
 600 22 799 212 799 425 c 0
 799 575 694 685 547 685 c 256
647 473 m 0
 647 423 622 337 510 306 c 1
 591 121 l 1
 547 112 l 1
 463 302 l 1
 381 302 l 1
 343 120 l 1
 307 120 l 1
 395 535 l 2
 398 548 385 551 385 561 c 0
 385 572 401 580 411 580 c 0
 415 580 421 578 427 574 c 1
 505 574 l 2
 574 574 647 553 647 473 c 0
455 336 m 2
 569 336 608 411 608 461 c 0
 608 497 586 538 497 538 c 2
 432 538 l 1
 389 336 l 1
 455 336 l 2
EndSplineSet
EndChar

StartChar: macron
Encoding: 175 175 113
Width: 322
VWidth: 1494
Flags: W
HStem: 631 48<186 414 176 424 186 186>
LayerCount: 2
Fore
SplineSet
176 631 m 1
 186 679 l 1
 424 679 l 1
 414 631 l 1
 176 631 l 1
EndSplineSet
EndChar

StartChar: degree
Encoding: 176 176 114
Width: 322
VWidth: 1494
Flags: W
HStem: 463 41<215.19 328.674> 676 39<246.166 356.149>
VStem: 158 41<520.506 630.525> 374 41<548.347 657.697>
LayerCount: 2
Fore
SplineSet
158 563 m 0
 158 644 236 715 313 715 c 256
 377 715 415 672 415 617 c 0
 415 544 349 463 259 463 c 256
 198 463 158 505 158 563 c 0
305 676 m 0
 257 676 199 630 199 571 c 0
 199 531 228 504 268 504 c 0
 321 504 374 551 374 607 c 0
 374 644 347 676 305 676 c 0
EndSplineSet
EndChar

StartChar: plusminus
Encoding: 177 177 115
Width: 605
VWidth: 1494
Flags: W
HStem: 0 52<75 543> 336 57<148 346 417 614> 584 20G<398.829 461>
LayerCount: 2
Fore
SplineSet
614 336 m 1
 404 336 l 1
 359 124 l 1
 301 124 l 1
 346 336 l 1
 135 336 l 1
 148 393 l 1
 359 393 l 1
 403 604 l 1
 461 604 l 1
 417 393 l 1
 627 393 l 1
 614 336 l 1
543 0 m 1
 64 0 l 1
 75 52 l 1
 554 52 l 1
 543 0 l 1
EndSplineSet
EndChar

StartChar: twosuperior
Encoding: 178 178 116
Width: 387
VWidth: 1494
Flags: W
HStem: 284 52<136.062 149 209 365> 662 50<284.911 390.886>
VStem: 197 51<558 625.769> 403 54<537.725 649.61>
LayerCount: 2
Fore
SplineSet
197 544 m 1
 197 649 277 712 350 712 c 0
 402 712 457 682 457 611 c 0
 457 521 365 448 328 422 c 2
 235 357 l 2
 227 351 218 344 209 336 c 1
 365 336 l 1
 385 363 l 1
 390 363 402 355 430 347 c 1
 386 284 l 1
 142 284 l 2
 129 284 122 289 122 299 c 0
 122 310 131 325 134 330 c 0
 136 334 141 336 149 336 c 1
 229 431 403 492 403 600 c 0
 403 638 381 662 342 662 c 0
 286 662 243 610 248 558 c 1
 197 544 l 1
EndSplineSet
EndChar

StartChar: threesuperior
Encoding: 179 179 117
Width: 388
VWidth: 1494
Flags: W
HStem: 276 47<211.512 328.815> 530 41<344 373.066> 602 21G<208 238.667> 658 51<258 376 443.094 468.745>
VStem: 127 51<358.529 410> 390 50<388.4 513.762>
LayerCount: 2
Fore
SplineSet
265 323 m 0
 337 323 390 395 390 454 c 0
 390 493 370 530 330 530 c 0
 291 530 272 493 257 493 c 0
 247 493 233 512 233 521 c 0
 233 526 240 532 243 534 c 2
 376 658 l 1
 258 658 l 1
 255 652 249 642 241 626 c 2
 227 602 l 1
 189 622 189 622 189 623 c 1
 232 709 l 1
 460 709 l 2
 467 709 473 704 473 695 c 0
 473 688 464 657 449 657 c 0
 447 657 445 657 443 658 c 1
 344 571 l 1
 421 571 440 520 440 476 c 0
 440 387 368 276 259 276 c 0
 187 276 129 328 127 410 c 1
 178 425 l 1
 183 356 222 323 265 323 c 0
EndSplineSet
EndChar

StartChar: acute
Encoding: 180 180 118
Width: 322
VWidth: 1494
Flags: W
HStem: 577 155<290 377 377 377>
LayerCount: 2
Fore
SplineSet
290 577 m 1
 244 577 l 1
 377 732 l 1
 465 732 l 1
 290 577 l 1
EndSplineSet
EndChar

StartChar: mu
Encoding: 181 181 119
Width: 575
VWidth: 1494
Flags: W
HStem: -13 49<213.412 330.594> 503 20G<193.74 253 529.769 589>
VStem: 441 54<1 11.2938 11.2938 12.1992 11.7465 68.6808>
LayerCount: 2
Fore
SplineSet
286 36 m 0
 381 36 451 132 468 211 c 2
 534 523 l 1
 589 523 l 1
 502 112 l 2
 495 82 491 58 491 35 c 0
 491 23 492 12 495 1 c 1
 441 -18 l 1
 438 -3 435 9 435 26 c 0
 435 39 436 54 441 75 c 1
 385 -5 293 -13 265 -13 c 0
 207 -13 172 8 150 36 c 1
 88 -247 l 1
 34 -247 l 1
 198 523 l 1
 253 523 l 1
 179 176 l 2
 176 163 175 151 175 140 c 0
 175 70 226 36 286 36 c 0
EndSplineSet
EndChar

StartChar: paragraph
Encoding: 182 182 120
Width: 571
VWidth: 1494
Flags: W
HStem: 673 37<464 542 587 641>
LayerCount: 2
Fore
SplineSet
140 476 m 0
 140 553 191 710 396 710 c 2
 649 710 l 1
 641 673 l 1
 587 673 l 1
 405 -182 l 1
 360 -184 l 1
 542 673 l 1
 464 673 l 1
 282 -182 l 1
 239 -182 l 1
 350 338 l 1
 317 338 l 2
 219 338 140 381 140 476 c 0
EndSplineSet
EndChar

StartChar: periodcentered
Encoding: 183 183 121
Width: 343
VWidth: 1494
Flags: W
HStem: 248 200<206.61 297.39>
VStem: 150 204<305.296 390.704>
LayerCount: 2
Fore
SplineSet
354 370 m 0
 354 305 294 248 231 248 c 256
 180 248 150 281 150 326 c 0
 150 391 210 448 273 448 c 256
 324 448 354 415 354 370 c 0
EndSplineSet
EndChar

StartChar: cedilla
Encoding: 184 184 122
Width: 322
VWidth: 1494
Flags: W
HStem: -212 46<56.3892 136.601>
VStem: 158 56<-156.676 -98.5123>
LayerCount: 2
Fore
SplineSet
94 -166 m 0
 120 -166 158 -158 158 -125 c 0
 158 -102 133 -91 72 -87 c 1
 146 6 l 1
 203 6 l 1
 149 -52 l 1
 173 -57 214 -74 214 -112 c 0
 214 -145 181 -212 76 -212 c 0
 68 -212 26 -210 7 -194 c 1
 35 -151 l 1
 52 -161 69 -166 94 -166 c 0
EndSplineSet
EndChar

StartChar: onesuperior
Encoding: 185 185 123
Width: 322
VWidth: 1494
Flags: MW
LayerCount: 2
Fore
SplineSet
346 713 m 0
 350 713 375 707 375 690 c 0
 375 685 376 680 350 664 c 1
 269 284 l 1
 220 284 l 1
 293 626 l 1
 223 581 l 1
 198 616 l 1
 331 707 l 2
 335 710 338 713 346 713 c 0
EndSplineSet
EndChar

StartChar: ordmasculine
Encoding: 186 186 124
Width: 376
VWidth: 1494
Flags: W
HStem: 280 44<191.835 334.908> 592 45<237.443 383.446>
VStem: 100 52<363.948 503.444> 420 51<409.854 554.37>
LayerCount: 2
Fore
SplineSet
100 415 m 0
 100 529 205 637 322 637 c 0
 411 637 471 584 471 500 c 0
 471 383 369 280 247 280 c 0
 153 280 100 338 100 415 c 0
314 592 m 0
 217 592 152 500 152 426 c 0
 152 357 209 324 257 324 c 0
 343 324 420 394 420 488 c 0
 420 543 388 592 314 592 c 0
EndSplineSet
EndChar

StartChar: guillemotright
Encoding: 187 187 125
Width: 451
VWidth: 1494
Flags: MW
LayerCount: 2
Fore
SplineSet
450 266 m 2
 451 264 452 261 452 258 c 0
 452 252 449 246 444 239 c 2
 280 43 l 1
 220 43 l 1
 399 253 l 1
 309 462 l 1
 369 462 l 1
 450 266 l 2
290 266 m 2
 291 264 292 261 292 258 c 0
 292 252 289 246 284 239 c 2
 120 43 l 1
 60 43 l 1
 239 253 l 1
 149 462 l 1
 209 462 l 1
 290 266 l 2
EndSplineSet
EndChar

StartChar: onequarter
Encoding: 188 188 126
Width: 828
VWidth: 1494
Flags: W
HStem: -13 21G<157 222.248 664 719.176> 91 53<548 683 746 789> 693 20G<333 339 727.807 795>
LayerCount: 2
Fore
SplineSet
337 713 m 0
 341 713 366 707 366 690 c 0
 366 685 367 680 341 664 c 1
 260 284 l 1
 211 284 l 1
 284 626 l 1
 214 581 l 1
 189 616 l 1
 322 707 l 2
 326 710 329 713 337 713 c 0
206 -13 m 1
 157 -13 l 1
 744 712 l 1
 795 712 l 1
 206 -13 l 1
484 91 m 2
 475 91 467 101 467 113 c 0
 467 115 467 118 468 120 c 2
 468 124 470 130 473 133 c 2
 770 422 l 2
 775 427 779 430 783 430 c 0
 792 430 804 421 804 405 c 0
 804 388 799 395 797 384 c 2
 746 144 l 1
 801 144 l 1
 789 91 l 1
 734 91 l 1
 715 0 l 1
 664 0 l 1
 683 91 l 1
 484 91 l 2
732 320 m 1
 548 144 l 1
 695 144 l 1
 732 320 l 1
EndSplineSet
LCarets2: 2 0 0 
Ligature2: "'frac' Diagonal Fractions in Latin lookup 0 subtable" one fraction four
Ligature2: "'frac' Diagonal Fractions in Latin lookup 0 subtable" one slash four
EndChar

StartChar: onehalf
Encoding: 189 189 127
Width: 846
VWidth: 1494
Flags: W
HStem: 0 52<511.886 525 585 742> 378 49<660.278 766.959> 693 20G<333 339 708.807 776>
VStem: 572 51<274 339.912> 780 53<255.072 365.219>
LayerCount: 2
Fore
SplineSet
337 713 m 0
 341 713 366 707 366 690 c 0
 366 685 367 680 341 664 c 1
 260 284 l 1
 211 284 l 1
 284 626 l 1
 214 581 l 1
 189 616 l 1
 322 707 l 2
 326 710 329 713 337 713 c 0
188 -13 m 1
 138 -13 l 1
 725 712 l 1
 776 712 l 1
 188 -13 l 1
572 260 m 1
 572 345 636 427 727 427 c 0
 786 427 833 392 833 327 c 0
 833 234 740 162 704 138 c 2
 649 99 l 2
 622 85 608 74 585 52 c 1
 742 52 l 1
 761 79 l 1
 766 79 778 72 805 63 c 1
 762 0 l 1
 518 0 l 2
 504 0 497 5 497 15 c 0
 497 21 501 28 510 46 c 0
 512 51 520 52 525 52 c 1
 606 149 780 208 780 317 c 0
 780 354 756 378 717 378 c 0
 671 378 623 340 623 274 c 1
 572 260 l 1
EndSplineSet
LCarets2: 2 0 0 
Ligature2: "'frac' Diagonal Fractions in Latin lookup 0 subtable" one fraction two
Ligature2: "'frac' Diagonal Fractions in Latin lookup 0 subtable" one slash two
EndChar

StartChar: threequarters
Encoding: 190 190 128
Width: 874
VWidth: 1494
Flags: W
HStem: 0 21G<227 296.193 713 768.176> 91 53<597 732 795 838> 276 47<224.512 341.815> 530 41<357 386.066> 602 21G<221 251.667> 658 51<271 389 456.094 482.255>
VStem: 140 51<358.529 410> 403 50<388.4 513.762>
LayerCount: 2
Fore
SplineSet
533 91 m 2
 524 91 516 101 516 113 c 0
 516 115 516 118 517 120 c 2
 517 124 519 130 522 133 c 2
 819 422 l 2
 824 427 828 430 832 430 c 0
 841 430 853 421 853 405 c 0
 853 388 848 395 846 384 c 2
 795 144 l 1
 850 144 l 1
 838 91 l 1
 783 91 l 1
 764 0 l 1
 713 0 l 1
 732 91 l 1
 533 91 l 2
781 320 m 1
 597 144 l 1
 744 144 l 1
 781 320 l 1
278 323 m 0
 350 323 403 395 403 454 c 0
 403 493 383 530 343 530 c 0
 304 530 285 493 270 493 c 0
 260 493 246 512 246 521 c 0
 246 526 253 532 256 534 c 2
 389 658 l 1
 271 658 l 1
 268 652 262 642 254 626 c 2
 240 602 l 1
 202 622 202 622 202 623 c 1
 245 709 l 1
 473 709 l 2
 500 709 479 657 462 657 c 0
 460 657 458 657 456 658 c 1
 357 571 l 1
 434 571 453 520 453 476 c 0
 453 387 381 276 272 276 c 0
 200 276 142 328 140 410 c 1
 191 425 l 1
 196 356 235 323 278 323 c 0
280 -13 m 1
 227 -13 l 1
 816 712 l 1
 867 712 l 1
 280 -13 l 1
EndSplineSet
LCarets2: 2 0 0 
Ligature2: "'frac' Diagonal Fractions in Latin lookup 0 subtable" three fraction four
Ligature2: "'frac' Diagonal Fractions in Latin lookup 0 subtable" three slash four
EndChar

StartChar: questiondown
Encoding: 191 191 129
Width: 515
VWidth: 1494
Flags: W
HStem: -220 56<162.311 316.638> 408 111<331.466 405.997>
VStem: 65 65<-133.594 0.949127> 312 114<427.858 500.348>
LayerCount: 2
Fore
SplineSet
312 451 m 0
 312 492 347 519 382 519 c 0
 406 519 426 501 426 475 c 0
 426 445 398 408 359 408 c 0
 329 408 312 425 312 451 c 0
443 -91 m 1
 406 -156 335 -220 214 -220 c 0
 104 -220 65 -152 65 -84 c 0
 65 78 270 148 298 278 c 2
 316 363 l 1
 376 363 l 1
 358 278 l 2
 323 113 130 67 130 -71 c 0
 130 -113 151 -164 236 -164 c 0
 318 -164 370 -106 395 -61 c 1
 443 -91 l 1
EndSplineSet
EndChar

StartChar: Aring
Encoding: 197 197 134
Width: 617
VWidth: 1494
Flags: W
HStem: -12 21<9 74.8269 538.115 602> 196 49<215 502> 764 45<403.768 492.184> 916 47<417.06 505.779>
VStem: 352 47<814.08 897.318> 510 45<826.836 910.864>
LayerCount: 2
Back
SplineSet
589 884 m 0
 589 820 530 764 465 764 c 256
 416 764 386 798 386 841 c 0
 386 902 443 963 508 963 c 256
 558 963 589 929 589 884 c 0
476 806 m 256
 511 806 546 837 546 875 c 0
 546 902 527 919 500 919 c 256
 458 919 430 881 430 850 c 0
 430 826 447 806 476 806 c 256
490 685 m 1
 602 0 l 1
 541 -12 l 1
 511 196 l 1
 186 196 l 1
 63 -12 l 1
 9 0 l 1
 419 692 l 2
 436 719 460 731 468 731 c 0
 486 731 501 707 501 701 c 0
 501 697 498 693 490 685 c 1
502 245 m 1
 437 622 l 1
 215 245 l 1
 502 245 l 1
EndSplineSet
Fore
Refer: 34 65 N 1 0 0 1 0 0 2
Refer: 207 730 N 1 0 0 1 97 160 2
EndChar

StartChar: AE
Encoding: 198 198 135
Width: 841
VWidth: 1494
Flags: W
HStem: 1 59<527 807> 190 54<255 494> 339 59<599 848> 653 59<566 593 653 946>
LayerCount: 2
Fore
SplineSet
508 1 m 2
 472 1 464 27 464 46 c 0
 464 50 464 54 465 57 c 2
 494 190 l 1
 215 190 l 1
 52 -10 l 1
 6 16 l 1
 518 664 l 2
 525 674 552 712 589 712 c 2
 960 712 l 1
 946 653 l 1
 653 653 l 1
 599 398 l 1
 859 398 l 1
 848 339 l 1
 586 339 l 1
 527 60 l 1
 820 60 l 1
 807 1 l 1
 508 1 l 2
506 244 m 1
 593 652 l 1
 566 650 l 1
 255 244 l 1
 506 244 l 1
EndSplineSet
EndChar

StartChar: Eth
Encoding: 208 208 145
Width: 711
VWidth: 1494
Flags: W
HStem: 0 58<169 413.747> 332 57<86 170 240 389> 650 59<295 523.984>
VStem: 660 64<314.823 532.239>
LayerCount: 2
Fore
SplineSet
724 449 m 0
 724 249 582 0 272 0 c 2
 99 0 l 1
 170 332 l 1
 74 332 l 1
 86 389 l 1
 182 389 l 1
 237 650 l 1
 238 667 221 673 221 687 c 0
 221 701 242 722 265 722 c 0
 271 722 279 718 286 709 c 1
 423 709 l 2
 605 709 724 619 724 449 c 0
298 58 m 2
 545 58 660 273 660 435 c 0
 660 605 516 650 385 650 c 2
 295 650 l 1
 240 389 l 1
 401 389 l 1
 389 332 l 1
 228 332 l 1
 169 58 l 1
 298 58 l 2
EndSplineSet
EndChar

StartChar: multiply
Encoding: 215 215 152
Width: 597
VWidth: 1494
Flags: MW
LayerCount: 2
Fore
SplineSet
537 61 m 1
 490 24 l 1
 344 209 l 1
 129 30 l 1
 99 67 l 1
 314 245 l 1
 173 425 l 1
 220 463 l 1
 362 284 l 1
 574 463 l 1
 604 425 l 1
 392 247 l 1
 537 61 l 1
EndSplineSet
EndChar

StartChar: Oslash
Encoding: 216 216 153
Width: 696
VWidth: 1494
Flags: W
HStem: -6 55<272.286 448.979> 677 55<396.343 580.444>
VStem: 127 61<172.624 388.516> 663 61<332.591 552.517>
LayerCount: 2
Fore
SplineSet
127 237 m 0
 127 410 228 732 504 732 c 0
 562 732 609 718 645 689 c 1
 716 783 l 2
 720 787 723 789 727 789 c 0
 732 789 737 785 744 780 c 2
 760 770 l 2
 761 769 762 768 762 767 c 0
 762 765 760 762 757 758 c 2
 679 653 l 1
 696 629 724 579 724 487 c 0
 724 283 602 -6 347 -6 c 0
 288 -6 242 8 207 37 c 1
 123 -72 l 2
 119 -77 115 -79 112 -79 c 0
 106 -79 77 -60 77 -54 c 0
 77 -52 78 -49 81 -46 c 2
 172 72 l 1
 142 115 127 170 127 237 c 0
492 677 m 0
 285 677 188 419 188 254 c 0
 188 210 195 166 215 129 c 1
 604 637 l 1
 577 664 540 677 492 677 c 0
246 90 m 1
 271 67 304 49 358 49 c 0
 554 49 663 295 663 471 c 0
 663 514 656 560 635 598 c 1
 246 90 l 1
EndSplineSet
EndChar

StartChar: Thorn
Encoding: 222 222 159
Width: 588
VWidth: 1494
Flags: W
HStem: 0 21G<81 133.277> 173 51<177 420.426> 547 46<255 488.194> 706 20G<230.758 283>
VStem: 554 53<338.006 490.489>
LayerCount: 2
Fore
SplineSet
391 593 m 2
 511 593 607 549 607 440 c 0
 607 352 559 173 275 173 c 2
 166 173 l 1
 129 0 l 1
 81 0 l 1
 235 726 l 1
 283 726 l 1
 255 593 l 1
 391 593 l 2
289 224 m 2
 512 224 554 343 554 422 c 0
 554 511 477 547 382 547 c 2
 245 547 l 1
 177 224 l 1
 289 224 l 2
EndSplineSet
EndChar

StartChar: uni00DF
Encoding: 223 223 160
Width: 618
VWidth: 1494
Flags: W
HStem: -13 49<199 401.534> 472 50<290 470.192> 746 37<355.549 520.938>
VStem: 556 49<573.194 713.767> 563 50<204.717 382.703>
LayerCount: 2
Fore
SplineSet
556 654 m 0xf0
 556 691 536 746 443 746 c 0
 357 746 288 698 261 573 c 2
 88 -238 l 1
 40 -238 l 1
 214 581 l 2
 238 691 320 783 449 783 c 0
 569 783 605 715 605 654 c 0xf0
 605 571 536 499 497 493 c 1
 587 448 613 381 613 316 c 0
 613 171 495 -12 309 -12 c 2
 188 -13 l 1
 199 36 l 1
 307 36 l 2
 450 36 563 165 563 296 c 0xe8
 563 408 477 472 383 472 c 2
 279 472 l 1
 290 522 l 1
 399 522 l 2
 460 522 556 531 556 654 c 0xf0
EndSplineSet
EndChar

StartChar: ae
Encoding: 230 230 167
Width: 941
VWidth: 1494
Flags: W
HStem: -19 55<196.108 354.799> -8 55<609.782 782.93> 241 56<561 902> 474 55<285.017 436.457> 490 51<715.061 850.146>
VStem: 89 53<95.6234 300.331> 435 62<6.82489 70.2623> 908 56<305.604 429.953>
LayerCount: 2
Fore
SplineSet
89 178 m 0xa7
 89 339 203 529 374 529 c 0xb7
 413 529 491 522 527 435 c 1
 548 531 l 1
 606 531 l 1
 589 453 l 1
 670 538 753 541 786 541 c 0
 927 541 964 439 964 350 c 0
 964 324 961 299 956 278 c 0
 949 244 933 241 905 241 c 2
 552 241 l 1
 548 221 546 203 546 187 c 0
 546 94 614 47 694 47 c 0
 743 47 774 62 816 87 c 1
 842 39 l 1
 820 26 743 -8 666 -8 c 0x6f
 606 -8 546 12 510 78 c 1
 497 -3 l 1
 435 -3 l 1
 452 78 l 1
 423 42 362 -19 258 -19 c 0
 136 -19 89 74 89 178 c 0xa7
363 474 m 0
 238 474 142 326 142 195 c 0
 142 121 168 36 270 36 c 0
 382 36 458 139 483 226 c 2
 496 286 l 2
 497 295 497 304 497 313 c 0
 497 390 461 474 363 474 c 0
902 297 m 1
 906 313 908 330 908 346 c 0
 908 421 865 490 772 490 c 0x2f
 636 490 573 353 561 297 c 1
 902 297 l 1
EndSplineSet
EndChar

StartChar: eth
Encoding: 240 240 177
Width: 621
VWidth: 1494
Flags: W
HStem: -13 49<225.514 409.058> 481 50<317.422 474.001>
VStem: 92 58<111.576 302.654> 575 65<233.988 393.454>
LayerCount: 2
Fore
SplineSet
92 189 m 0
 92 370 257 531 421 531 c 0
 497 531 539 509 577 469 c 1
 552 528 514 585 454 643 c 1
 266 564 l 1
 258 607 l 1
 414 674 l 1
 384 697 341 719 300 734 c 1
 333 783 l 1
 384 759 432 733 473 700 c 1
 629 768 l 1
 640 722 l 1
 510 668 l 1
 566 617 602 555 627 481 c 0
 634 448 640 412 640 372 c 0
 640 164 504 -13 300 -13 c 0
 168 -13 92 72 92 189 c 0
410 481 m 0
 249 481 150 325 150 198 c 0
 150 93 223 36 310 36 c 0
 481 36 575 196 575 333 c 0
 575 365 568 396 550 422 c 1
 489 480 435 481 410 481 c 0
EndSplineSet
EndChar

StartChar: divide
Encoding: 247 247 184
Width: 690
VWidth: 1494
Flags: W
HStem: 37 95<329.468 397.735> 215 59<154 632> 354 94<394.363 463.509>
VStem: 314 97<50.8171 116.571> 381 97<367.985 434.281>
LayerCount: 2
Fore
SplineSet
632 215 m 1xe0
 142 215 l 1
 154 274 l 1
 644 274 l 1
 632 215 l 1xe0
381 393 m 0xe8
 381 425 413 448 440 448 c 256
 462 448 478 435 478 413 c 0
 478 382 451 354 420 354 c 256
 396 354 381 372 381 393 c 0xe8
314 74 m 0xf0
 314 105 346 132 373 132 c 256
 397 132 411 115 411 94 c 0
 411 65 385 37 353 37 c 256
 331 37 314 52 314 74 c 0xf0
EndSplineSet
EndChar

StartChar: oslash
Encoding: 248 248 185
Width: 524
VWidth: 1494
Flags: W
HStem: 1 54<229.244 351.033> 469 54<290.992 420.064>
VStem: 105 59<132.617 304.714> 477 58<213.359 374.254>
LayerCount: 2
Fore
SplineSet
105 183 m 0
 105 327 200 523 376 523 c 0
 408 523 447 516 476 492 c 1
 533 565 l 2
 536 569 538 571 540 571 c 0
 543 571 568 558 568 550 c 0
 568 549 568 547 566 544 c 2
 502 462 l 1
 527 427 535 382 535 339 c 0
 535 183 427 1 265 1 c 0
 227 1 195 10 170 28 c 1
 111 -49 l 2
 108 -53 106 -55 103 -55 c 0
 98 -55 76 -43 76 -36 c 0
 76 -34 77 -31 79 -28 c 2
 142 55 l 1
 115 91 105 137 105 183 c 0
365 469 m 0
 238 469 164 312 164 197 c 0
 164 167 169 136 183 109 c 1
 438 441 l 1
 420 460 396 469 365 469 c 0
277 55 m 0
 403 55 477 215 477 325 c 0
 477 357 471 386 461 408 c 1
 208 79 l 1
 225 63 249 55 277 55 c 0
EndSplineSet
EndChar

StartChar: thorn
Encoding: 254 254 191
Width: 677
VWidth: 1494
Flags: W
HStem: -13 47<268.38 441.899> 483 48<355.601 528.715> 699 20G<230.747 286>
VStem: 614 52<211.651 397.082>
LayerCount: 2
Fore
SplineSet
666 320 m 0
 666 154 517 -13 341 -13 c 0
 214 -13 168 71 155 102 c 1
 88 -212 l 1
 37 -212 l 1
 235 719 l 1
 286 719 l 1
 221 414 l 1
 275 477 360 531 457 531 c 0
 580 531 666 442 666 320 c 0
351 34 m 256
 478 34 614 162 614 310 c 0
 614 413 540 483 447 483 c 256
 318 483 184 357 184 206 c 0
 184 100 259 34 351 34 c 256
EndSplineSet
EndChar

StartChar: Lslash
Encoding: 321 321 193
Width: 475
VWidth: 1494
Flags: MW
HStem: 0 52<160 456> 689 20G<237.706 300>
LayerCount: 2
Fore
SplineSet
106 70 m 2
 157 312 l 1
 46 247 l 1
 57 303 l 1
 169 369 l 1
 242 709 l 1
 300 709 l 1
 236 408 l 1
 414 511 l 1
 402 454 l 1
 224 351 l 1
 160 52 l 1
 467 52 l 1
 456 0 l 1
 127 0 l 1
 116 -11 103 -18 98 -18 c 0
 75 -18 69 9 69 16 c 0
 69 28 99 38 106 70 c 2
EndSplineSet
EndChar

StartChar: lslash
Encoding: 322 322 194
Width: 242
VWidth: 1494
Flags: MW
HStem: 0 21G<91 149.256>
LayerCount: 2
Fore
SplineSet
228 390 m 1
 145 0 l 1
 91 0 l 1
 165 350 l 1
 94 299 94 298 76 286 c 1
 88 342 l 1
 177 404 l 1
 249 741 l 1
 282 770 l 1
 309 770 l 1
 241 450 l 1
 284 481 296 484 330 511 c 1
 318 454 l 1
 228 390 l 1
EndSplineSet
EndChar

StartChar: OE
Encoding: 338 338 195
Width: 958
VWidth: 1494
Flags: W
HStem: -19 55<250.57 432.259> 0 58<628 924> 338 58<700 964> 650 59<754 1063> 664 55<377.918 555.876>
VStem: 105 61<128.603 379.782>
LayerCount: 2
Fore
SplineSet
470 664 m 0xac
 270 664 166 417 166 245 c 0
 166 140 203 36 337 36 c 0
 541 36 639 292 639 456 c 0
 639 566 596 664 470 664 c 0xac
679 687 m 0
 679 701 700 722 723 722 c 0
 728 722 736 718 743 709 c 1
 1076 709 l 1
 1063 650 l 1
 754 650 l 1
 700 396 l 1
 976 396 l 1
 964 338 l 1
 688 338 l 1
 628 58 l 1
 936 58 l 1
 924 0 l 1
 556 0 l 1x74
 579 108 l 1
 541 59 461 -19 325 -19 c 0
 166 -19 105 87 105 225 c 0
 105 426 221 719 482 719 c 0xac
 618 719 664 636 681 590 c 1
 694 650 l 2x34
 697 670 679 671 679 687 c 0
EndSplineSet
EndChar

StartChar: oe
Encoding: 339 339 196
Width: 896
VWidth: 1494
Flags: W
HStem: -1 55<209.173 330.99 573.28 741.357> 233 55<527 852> 468 54<280.404 421.203 647.521 808.625>
VStem: 96 60<103.814 307.57> 468 47<206.817 232.111> 852 53<288 303.975 303.975 312.156 308.066 419.004>
LayerCount: 2
Fore
SplineSet
96 186 m 0
 96 329 197 522 368 522 c 0
 475 522 509 447 520 395 c 1
 554 444 625 520 743 520 c 0
 871 520 912 428 912 337 c 0
 912 314 910 290 905 269 c 0
 899 241 891 236 856 233 c 2
 521 233 l 1
 517 214 515 197 515 182 c 0
 515 69 614 49 646 49 c 0
 704 49 756 76 771 87 c 1
 795 43 l 1
 761 21 690 -2 625 -2 c 0
 511 -2 472 84 461 121 c 1
 417 55 351 -1 257 -1 c 0
 136 -1 96 92 96 186 c 0
356 468 m 256
 231 468 156 309 156 196 c 0
 156 123 185 54 268 54 c 0
 367 54 468 178 468 320 c 0
 468 394 440 468 356 468 c 256
852 288 m 1
 856 306 858 324 858 340 c 0
 858 423 806 472 731 472 c 256
 608 472 541 351 527 288 c 1
 852 288 l 1
EndSplineSet
EndChar

StartChar: florin
Encoding: 402 402 202
Width: 503
VWidth: 1494
Flags: W
HStem: -84 42<15 23.7737 23.7737 29.0231 26.3984 93.7094> 387 36<193 287 352 442> 669 43<457.858 561.816>
LayerCount: 2
Fore
SplineSet
563 649 m 1
 545 662 528 669 510 669 c 0
 475 669 433 638 402 571 c 2
 352 423 l 1
 459 423 l 1
 442 387 l 1
 339 387 l 1
 325 344 306 286 289 239 c 2
 236 91 l 2
 174 -86 72 -89 39 -89 c 0
 23 -89 7 -87 -11 -84 c 1
 15 -42 l 1
 25 -44 34 -44 43 -44 c 0
 108 -44 147 -4 174 66 c 2
 287 387 l 1
 176 387 l 1
 193 423 l 1
 301 423 l 1
 302 430 336 528 352 573 c 0
 391 666 450 712 529 712 c 0
 572 712 602 682 602 682 c 1
 563 649 l 1
EndSplineSet
EndChar

StartChar: circumflex
Encoding: 710 710 203
Width: 436
VWidth: 1494
Flags: MW
LayerCount: 2
Fore
SplineSet
453 709 m 1
 384 788 l 1
 289 709 l 1
 223 709 l 1
 375 839 l 1
 416 839 l 1
 516 709 l 1
 453 709 l 1
EndSplineSet
EndChar

StartChar: caron
Encoding: 711 711 204
Width: 506
VWidth: 1494
Flags: MW
LayerCount: 2
Fore
SplineSet
570 839 m 1
 416 709 l 1
 377 709 l 1
 283 839 l 1
 342 839 l 1
 404 753 l 1
 507 839 l 1
 570 839 l 1
EndSplineSet
EndChar

StartChar: breve
Encoding: 728 728 205
Width: 448
VWidth: 1494
Flags: W
HStem: 577 49<294.096 428.593>
VStem: 218 53<649.111 723.718 722 725.435 725.435 738> 487 54<662.926 738>
LayerCount: 2
Fore
SplineSet
357 626 m 256
 423 626 472 670 487 738 c 1
 541 738 l 1
 525 664 451 577 347 577 c 0
 263 577 218 639 218 706 c 0
 218 717 219 727 221 738 c 1
 275 738 l 1
 273 727 271 716 271 707 c 0
 271 657 303 626 357 626 c 256
EndSplineSet
EndChar

StartChar: dotaccent
Encoding: 729 729 206
Width: 236
VWidth: 1494
Flags: W
HStem: 637 107<227.5 302.237>
VStem: 209 111<655.081 725.976>
LayerCount: 2
Fore
SplineSet
320 701 m 0
 320 673 295 637 253 637 c 256
 224 637 209 654 209 677 c 0
 209 709 236 744 276 744 c 256
 306 744 320 723 320 701 c 0
EndSplineSet
EndChar

StartChar: ring
Encoding: 730 730 207
Width: 415
VWidth: 1494
Flags: W
HStem: 604 45<306.768 395.184> 756 47<320.06 408.779>
VStem: 255 47<654.08 737.318> 413 45<666.836 750.864>
LayerCount: 2
Fore
SplineSet
458 725 m 0
 458 663 402 604 334 604 c 256
 286 604 255 635 255 680 c 0
 255 744 313 803 377 803 c 256
 427 803 458 769 458 725 c 0
346 649 m 256
 384 649 413 680 413 716 c 0
 413 739 396 756 369 756 c 256
 330 756 302 723 302 691 c 0
 302 666 318 649 346 649 c 256
EndSplineSet
EndChar

StartChar: tilde
Encoding: 732 732 209
Width: 331
VWidth: 1494
Flags: W
HStem: 611 50<317.155 389.778> 655 48<217.037 295.178>
VStem: 404 42<657.743 706>
LayerCount: 2
Fore
SplineSet
372 661 m 0xa0
 382 661 396 669 404 706 c 1
 446 706 l 1
 438 666 411 611 353 611 c 0xa0
 323 611 268 655 244 655 c 0
 222 655 212 625 207 605 c 1
 163 605 l 1
 163 624 192 703 252 703 c 0x60
 304 703 338 661 372 661 c 0xa0
EndSplineSet
EndChar

StartChar: uni0E01
Encoding: 3585 3585 212
Width: 636
VWidth: 1494
Flags: W
HStem: 0 21G<135 197.248 490 553.252> 559 51<324.848 528.675>
LayerCount: 2
Fore
SplineSet
640 428 m 2
 549 0 l 1
 490 0 l 1
 583 436 l 2
 585 449 591 460 597 468 c 1
 584 490 l 2
 576 504 534 559 436 559 c 0
 299 559 231 479 209 445 c 1
 259 408 l 1
 268 417 303 446 332 451 c 0
 333 451 342 435 353 411 c 1
 320 397 297 380 284 360 c 0
 270 339 261 321 258 306 c 2
 193 0 l 1
 135 0 l 1
 200 308 l 2
 205 330 218 353 225 363 c 1
 135 425 l 1
 135 425 226 610 445 610 c 0
 539 610 604 579 640 513 c 1
 641 514 643 515 646 515 c 0
 664 515 675 493 675 481 c 0
 675 465 648 466 640 428 c 2
EndSplineSet
EndChar

StartChar: uni0E02
Encoding: 3586 3586 213
Width: 562
VWidth: 1494
Flags: W
HStem: 0 57<251 428> 360 53<180.01 262.762> 558 51<293.859 380.911>
VStem: 124 52<416.943 495.615> 278 52<429.421 506.875> 398 55<420.334 540.219>
LayerCount: 2
Fore
SplineSet
124 440 m 0
 124 509 200 609 326 609 c 0
 408 609 453 558 453 496 c 0
 453 373 323 327 310 269 c 2
 272 91 l 2
 269 74 261 63 251 57 c 1
 428 57 l 1
 543 598 l 1
 601 598 l 1
 486 58 l 2
 483 40 458 0 401 0 c 2
 211 0 l 2
 196 0 199 -9 177 -9 c 0
 162 -9 156 15 156 23 c 0
 156 38 203 44 212 84 c 2
 251 269 l 2
 270 356 398 375 398 491 c 0
 398 534 366 558 323 558 c 0
 312 558 300 556 290 553 c 1
 303 546 330 525 330 484 c 0
 330 428 281 360 206 360 c 0
 158 360 124 393 124 440 c 0
238 511 m 256
 207 511 176 485 176 451 c 0
 176 428 193 413 217 413 c 256
 244 413 278 437 278 472 c 0
 278 496 261 511 238 511 c 256
EndSplineSet
EndChar

StartChar: uni0E03
Encoding: 3587 3587 214
Width: 615
VWidth: 1494
Flags: W
HStem: 0 57<312 486> 323 48<188.21 269.968> 466 50<199.484 281.454> 561 50<225.699 319.727> 590 20<478 497.5 596.749 658>
VStem: 125 60<375.111 449.371> 284 51<385.1 462.534> 486 57<57.0495 58 58 73.4652 444.864 537.188>
LayerCount: 2
Fore
SplineSet
125 420 m 0xf7
 125 520 211 611 304 611 c 0xf7
 353 611 378 589 396 559 c 1
 436 591 470 610 486 610 c 0xef
 509 610 539 546 539 494 c 0
 539 388 397 391 375 287 c 2
 333 91 l 2
 330 74 322 63 312 57 c 1
 486 57 l 1
 601 598 l 1
 658 598 l 1
 543 58 l 2
 539 38 514 0 457 0 c 2
 272 0 l 2
 260 0 259 -9 238 -9 c 0
 224 -9 218 15 218 23 c 0
 218 38 266 45 274 85 c 2
 317 287 l 2
 343 406 482 419 482 485 c 0
 482 505 477 544 460 558 c 1
 408 522 l 1
 412 513 414 506 412 500 c 1
 410 488 389 480 379 480 c 0
 352 480 367 529 317 552 c 0
 305 558 293 561 281 561 c 0
 236 561 202 522 192 493 c 1
 208 504 233 516 256 516 c 0
 305 516 335 482 335 439 c 0
 335 379 281 323 215 323 c 0
 153 323 125 366 125 420 c 0xf7
225 371 m 256
 260 371 284 401 284 430 c 0
 284 451 270 466 245 466 c 256
 215 466 185 440 185 408 c 0
 185 385 202 371 225 371 c 256
EndSplineSet
EndChar

StartChar: uni0E04
Encoding: 3588 3588 215
Width: 650
VWidth: 1494
Flags: MW
HStem: -1 21G<119.5 133.5 505 568.252> 275 49<364.877 444.758> 420 51<390.517 456.849> 559 51<343.914 548.303>
VStem: 161 55<345 355> 460 52<338.34 416.268>
LayerCount: 2
Fore
SplineSet
512 393 m 0
 512 327 448 275 390 275 c 256
 363 275 342 284 327 303 c 1
 299 240 l 2
 232 95 178 38 150 9 c 0
 143 2 137 -1 130 -1 c 0
 109 -1 101 18 101 22 c 2
 101 23 l 2
 101 36 134 51 140 102 c 0
 151 191 141 260 161 355 c 0
 204 557 339 610 457 610 c 0
 553 610 622 571 655 513 c 1
 656 514 658 515 661 515 c 0
 678 515 690 492 690 482 c 0
 690 467 662 461 655 428 c 2
 564 0 l 1
 505 0 l 1
 599 442 l 2
 602 455 607 466 614 474 c 1
 615 478 576 559 448 559 c 0
 290 559 238 448 216 345 c 0
 198 257 197 148 193 126 c 1
 285 303 303 379 325 410 c 0
 361 462 406 471 432 471 c 0
 477 471 512 439 512 393 c 0
421 420 m 256
 386 420 362 390 362 360 c 0
 362 338 377 324 401 324 c 256
 436 324 460 354 460 384 c 0
 460 406 445 420 421 420 c 256
EndSplineSet
EndChar

StartChar: uni0E05
Encoding: 3589 3589 216
Width: 650
VWidth: 1494
Flags: MW
HStem: 0 21G<120.455 133.5 505 568.252> 256 50<363.868 446.201> 402 51<375.244 457.589> 584 20G<365.5 385.5 542.5 563.5>
VStem: 167 48<384 399> 460.254 52.1984<319.803 398.739>
LayerCount: 2
Fore
SplineSet
655 428 m 2
 564 0 l 1
 505 0 l 1
 598 439 l 2
 601 452 606 463 613 471 c 1
 604 501 583 540 540 555 c 1
 527 551 493 524 466 499 c 1
 460 488 447 478 439 478 c 0
 419 478 397 554 355 558 c 1
 325 551 245 527 215 384 c 0
 195 291 203 171 196 137 c 0
 195 133 194 129 193 126 c 1
 223 178 252 230 283 302 c 2
 305 354 l 2
 315 375 348 453 432 453 c 0
 481.148 453 512.452 418.801 512.452 375.404 c 0
 512.452 318.458 457.501 256 390 256 c 0
 362 256 342 266 329 286 c 1
 299 224 l 2
 271 167 222 84 150 9 c 0
 143 2 137 -1 130 -1 c 0
 110.911 -1 100.932 15.3976 100.932 22.9777 c 0
 100.932 23.3395 100.954 23.6812 101 24 c 0
 105 41 129 48 140 99 c 0
 157 180 142 282 167 399 c 0
 207 588 365 604 366 604 c 0
 405 604 442 556 450 543 c 1
 505 592 534 603 551 603 c 0
 576 603 634 566 658 514 c 1
 659 515 661 515 662 515 c 0
 676.971 515 690.191 493.988 690.191 482.274 c 0
 690.191 466.9 662.049 462.239 655 428 c 2
401 306 m 256
 436.419 306 460.254 335.67 460.254 365.635 c 0
 460.254 387.976 445.056 402 421 402 c 256
 389.557 402 360.844 376.473 360.844 343.193 c 0
 360.844 320.371 377.518 306 401 306 c 256
EndSplineSet
EndChar

StartChar: uni0E06
Encoding: 3590 3590 217
Width: 717
VWidth: 1494
Flags: W
HStem: -7 47<214.183 280.591> 320 48<191.192 271.22> 465 46<220.482 283.324> 560 49<240.688 353.844> 590 20<487.5 509.5 695.755 758>
VStem: 134 54<371.527 450.137> 153 52<61.6843 159.084> 286 52<383.864 461.854> 504 51<466.364 561.87>
LayerCount: 2
Fore
SplineSet
134 409 m 0xf580
 134 503 207 609 317 609 c 0xf580
 337 609 381 608 410 561 c 1
 458 595 480 610 495 610 c 0
 524 610 555 566 555 516 c 0
 555 476 534 448 512 433 c 2
 477 407 l 2
 417 366 400 349 393 314 c 2
 381 260 l 1
 424 260 536 237 603 141 c 1
 700 598 l 1
 758 598 l 1
 631 0 l 1
 573 0 l 1
 584 51 l 1
 539 192 389 207 371 211 c 1
 344 84 l 2
 336 46 309 -7 247 -7 c 0
 195 -7 153 30 153 88 c 0xeb80
 153 158 208 240 324 260 c 1
 336 314 l 2
 341 338 355 381 418 421 c 2
 451 442 l 2
 487 466 504 484 504 512 c 0
 504 539 488 558 482 562 c 1
 465 548 457 547 423 522 c 1
 425 513 427 506 425 501 c 1
 423 488 398 480 392 480 c 0
 363 480 380 560 300 560 c 0
 251 560 218 523 208 496 c 1
 217 502 234 511 257 511 c 0
 307 511 338 480 338 437 c 0
 338 380 283 320 216 320 c 0
 152 320 134 364 134 409 c 0xf580
226 368 m 256
 261 368 286 399 286 429 c 0
 286 451 271 465 247 465 c 256
 211 465 188 435 188 405 c 0
 188 384 201 368 226 368 c 256
312 209 m 1
 227 191 205 133 205 99 c 0xe380
 205 75 214 40 253 40 c 0
 273 40 278 48 283 72 c 2
 312 209 l 1
EndSplineSet
EndChar

StartChar: uni0E07
Encoding: 3591 3591 218
Width: 485
VWidth: 1494
Flags: W
HStem: -11 21G<332.5 337> 410 50<364.042 424.31> 556 51<375.135 454.977>
VStem: 309 52<463.574 541.432> 459 50<492.178 552.109>
LayerCount: 2
Fore
SplineSet
309 487 m 0
 309 551 368 607 431 607 c 0
 479 607 509 573 509 531 c 0
 509 524 508 517 507 510 c 2
 423 115 l 2
 408 43 391 38 353 0 c 0
 345 -7 339 -11 335 -11 c 0
 330 -11 304 1 304 10 c 0
 304 13 309 20 315 28 c 1
 76 330 l 1
 120 369 l 1
 351 72 l 1
 354 74 363 86 365 96 c 2
 434 420 l 1
 419 413 404 410 389 410 c 0
 338 410 309 445 309 487 c 0
420 556 m 0
 385 556 361 526 361 496 c 0
 361 474 376 460 400 460 c 0
 427 460 459 483 459 518 c 0
 459 542 441 556 420 556 c 0
EndSplineSet
EndChar

StartChar: uni0E08
Encoding: 3592 3592 219
Width: 597
VWidth: 1494
Flags: W
HStem: -8 21G<382 397> 254 49<292.227 359.106> 401 49<303.985 384.051> 558 50<304.977 501.394>
VStem: 239 50<306.514 387.097> 382 57<204.333 275> 390 43<91 144.5 272.308 396.418>
LayerCount: 2
Fore
SplineSet
239 331 m 0xfc
 239 395 298 450 359 450 c 0
 418 450 439 404 439 363 c 2xfc
 433 91 l 1
 555 445 l 2
 556 449 566 468 575 475 c 1
 551 514 487 558 406 558 c 0
 254 558 181 443 157 329 c 2
 153 312 l 1
 103 312 l 1
 107 331 l 2
 151 536 291 608 416 608 c 0
 510 608 572 572 616 513 c 1
 618 515 621 516 623 516 c 0
 636 516 649 494 649 481 c 0
 649 464 618 457 605 429 c 2
 467 61 l 2
 457 31 405 -8 389 -8 c 0
 375 -8 364 7 364 14 c 0
 364 26 387 36 390 43 c 1xfa
 382 275 l 1
 362 261 341 254 317 254 c 0
 271 254 239 286 239 331 c 0xfc
348 401 m 256
 314 401 289 371 289 341 c 0
 289 319 302 303 327 303 c 256
 364 303 388 336 388 362 c 0
 388 383 373 401 348 401 c 256
EndSplineSet
EndChar

StartChar: uni0E09
Encoding: 3593 3593 220
Width: 636
VWidth: 1494
Flags: W
HStem: -1 50<466.683 556.401> 167 67<441.583 530.726 521.046 536> 227 45<185.02 238.992> 369 47<196.877 277.034> 558 52<309.925 519.306>
VStem: 132 50<275.867 354.677> 280 51<301.213 365.856> 404 56<55.3491 144.537> 579 53<71.0564 160.255>
LayerCount: 2
Fore
SplineSet
132 300 m 0xbf80
 132 358 185 416 251 416 c 256
 296 416 331 388 331 342 c 0
 331 323 325 299 310 277 c 1
 276 132 l 1
 336 191 423 234 506 234 c 0xdf80
 517 234 527 233 536 232 c 1
 581 441 l 2
 584 454 589 464 595 472 c 1
 591 475 550 558 415 558 c 0
 357 558 239 533 178 422 c 1
 168 424 136 434 132 436 c 1
 169 521 288 610 426 610 c 0
 564 610 618 541 635 513 c 1
 636 514 638 515 641 515 c 0
 659 515 671 493 671 482 c 0
 671 467 642 461 635 428 c 2
 588 208 l 1
 624 189 632 156 632 131 c 0
 632 65 573 -1 496 -1 c 0
 456 -1 404 20 404 81 c 0
 404 145 457 181 473 188 c 1
 435 184 400 171 370 150 c 0
 256 69 233 -4 205 -4 c 0
 193 -4 177 6 177 20 c 0
 177 39 199 39 204 63 c 2
 242 232 l 1
 233 229 222 227 211 227 c 0
 166 227 132 255 132 300 c 0xbf80
221 272 m 256xbf80
 257 272 280 305 280 331 c 0
 280 353 266 369 241 369 c 256
 205 369 182 336 182 309 c 0
 182 288 196 272 221 272 c 256xbf80
531 167 m 0xdf80
 502 167 460 139 460 96 c 0
 460 71 476 49 506 49 c 256
 548 49 579 87 579 121 c 0
 579 147 561 167 531 167 c 0xdf80
EndSplineSet
EndChar

StartChar: uni0E0A
Encoding: 3594 3594 221
Width: 566
VWidth: 1494
Flags: W
HStem: 0 57<251 434> 348 50<164.361 245.449> 547 50<262.001 370.004>
VStem: 111 50<402.048 478.587> 260 50<412.316 490.83> 388 55<419.096 529.028>
LayerCount: 2
Fore
SplineSet
111 425 m 0
 111 494 187 597 318 597 c 0
 388 597 443 563 443 494 c 0
 443 381 324 332 307 256 c 2
 272 91 l 2
 269 74 261 63 251 57 c 1
 434 57 l 1
 501 371 l 1
 496 400 452 420 439 426 c 1
 448 436 468 533 666 659 c 1
 666 659 691 616 692 616 c 1
 641 586 547 529 503 451 c 1
 510 449 557 439 557 375 c 0
 557 365 556 354 553 342 c 2
 492 58 l 2
 489 40 464 0 407 0 c 2
 211 0 l 2
 196 0 199 -9 177 -9 c 0
 162 -9 156 15 156 23 c 0
 156 38 203 44 212 84 c 2
 250 262 l 2
 267 342 388 396 388 480 c 0
 388 524 354 547 306 547 c 0
 283 547 263 542 246 535 c 1
 300 535 310 491 310 463 c 0
 310 409 259 348 189 348 c 0
 142 348 111 379 111 425 c 0
220 495 m 0
 193 495 161 469 161 436 c 0
 161 413 178 398 200 398 c 0
 236 398 260 430 260 456 c 0
 260 477 245 495 220 495 c 0
EndSplineSet
EndChar

StartChar: uni0E0B
Encoding: 3595 3595 222
Width: 635
VWidth: 1494
Flags: W
HStem: 0 57<320 502> 312 50<179.394 258.669> 459 49<205.442 269.666> 553 53<229.832 331.247 452 463.8>
VStem: 114 62<366.106 443.962> 273 53<376.766 455.732> 474 50<455.601 528.027> 568 58<351.508 404.443>
LayerCount: 2
Fore
SplineSet
114 414 m 0
 114 520 215 606 300 606 c 0
 347 606 369 585 387 555 c 1
 449 604 465 604 475 604 c 0
 499 604 524 545 524 501 c 0
 524 455 499 423 465 392 c 2
 423 353 l 2
 393 325 387 312 380 278 c 2
 340 91 l 2
 337 74 330 63 320 57 c 1
 502 57 l 1
 568 368 l 1
 569 393 548 413 508 420 c 1
 512 427 546 539 735 659 c 1
 747 638 l 2
 750 632 758 616 760 616 c 1
 635 542 593 490 571 451 c 1
 577 450 626 440 626 376 c 0
 626 366 625 355 622 342 c 2
 561 58 l 2
 557 38 532 0 475 0 c 2
 280 0 l 2
 265 0 268 -9 246 -9 c 0
 231 -9 225 15 225 23 c 0
 225 38 272 44 281 84 c 2
 323 281 l 2
 332 323 356 353 391 387 c 2
 448 440 l 2
 474 464 474 474 474 482 c 0
 474 507 462 547 452 547 c 1
 403 511 l 1
 408 486 378 478 371 478 c 0
 361 478 355 485 353 498 c 1
 337 532 316 553 284 553 c 0
 235 553 195 499 188 490 c 1
 208 502 226 508 244 508 c 0
 291 508 326 479 326 433 c 0
 326 371 269 312 204 312 c 0
 141 312 114 361 114 414 c 0
215 362 m 256
 247 362 273 390 273 422 c 0
 273 444 258 459 236 459 c 256
 203 459 176 430 176 400 c 0
 176 379 190 362 215 362 c 256
EndSplineSet
EndChar

StartChar: uni0E0C
Encoding: 3596 3596 223
Width: 917
VWidth: 1494
Flags: W
HStem: -7 50<205.187 286.517 457.467 507.656> 139 51<239.415 298.784> 215 54<610 678.978> 559 51<324.848 530.209>
VStem: 152 50<46.5688 107.07> 302 49<57.5767 135.311> 395 53<51.3216 164.174>
LayerCount: 2
Fore
SplineSet
351 112 m 0
 351 52 297 -7 231 -7 c 0
 182 -7 152 27 152 70 c 0
 152 77 153 84 154 91 c 2
 200 308 l 2
 205 330 218 353 225 363 c 1
 135 425 l 1
 135 425 226 610 445 610 c 0
 539 610 608 580 644 513 c 1
 645 514 647 515 650 515 c 0
 668 515 680 493 680 482 c 0
 680 467 651 461 644 428 c 2
 610 269 l 1
 668 266 759 232 804 148 c 1
 900 598 l 1
 958 598 l 1
 831 0 l 1
 773 0 l 1
 783 46 l 1
 768 176 628 213 599 215 c 1
 571 85 l 2
 556 14 499 -1 476 -1 c 0
 436 -1 395 33 395 94 c 0
 395 168 448 250 552 268 c 1
 588 436 l 2
 590 449 595 460 601 468 c 1
 591 490 547 559 436 559 c 0
 299 559 231 479 209 445 c 1
 259 408 l 1
 268 417 303 446 332 451 c 0
 333 451 342 435 353 411 c 1
 320 397 297 380 284 360 c 0
 270 339 261 321 258 306 c 2
 231 181 l 1
 246 187 259 190 272 190 c 0
 323 190 351 155 351 112 c 0
241 43 m 0
 273 43 302 69 302 103 c 0
 302 125 285 139 262 139 c 0
 232 139 202 112 202 80 c 0
 202 57 218 43 241 43 c 0
540 212 m 1
 470 194 448 135 448 104 c 0
 448 78 459 46 487 46 c 0
 504 46 508 62 511 75 c 2
 540 212 l 1
EndSplineSet
EndChar

StartChar: uni0E0D
Encoding: 3597 3597 224
Width: 919
VWidth: 1494
Flags: W
HStem: -246 47<572 659.475> -246 64<483.621 611.936> -94 48<491.621 560.449> -7 50<205.187 286.517> 4 53<547 777> 139 51<239.415 298.784> 559 51<325.041 529.181>
VStem: 152 50<46.5688 107.07> 302 49<57.5767 135.311> 431 49<-179.387 -106.644> 571 49<-170.541 -96.4972>
LayerCount: 2
Fore
SplineSet
516 -182 m 0x67e0
 544 -182 571 -160 571 -126 c 0
 571 -101 551 -94 535 -94 c 0
 502 -94 480 -123 480 -147 c 0
 480 -166 494 -182 516 -182 c 0x67e0
620 -115 m 0
 620 -157 589 -187 572 -199 c 1
 624 -198 737 -185 777 4 c 1
 508 4 l 2xafe0
 493 4 496 -5 474 -5 c 0
 459 -5 453 20 453 27 c 0
 453 40 501 50 509 88 c 2
 583 436 l 2
 585 449 591 460 597 468 c 1
 592 476 559 559 436 559 c 0
 299 559 231 479 209 445 c 1
 259 408 l 1
 268 417 303 446 332 451 c 0
 333 451 342 435 353 411 c 1
 320 397 297 380 284 360 c 0
 270 339 261 321 258 306 c 2
 231 181 l 1
 246 187 259 190 272 190 c 0
 323 190 351 155 351 112 c 0
 351 52 297 -7 231 -7 c 0x37e0
 182 -7 152 27 152 70 c 0
 152 77 153 84 154 91 c 2
 200 308 l 2
 205 330 218 353 225 363 c 1
 135 425 l 1
 135 425 227 610 445 610 c 0
 539 610 604 579 640 513 c 1
 641 514 643 515 646 515 c 0
 664 515 675 493 675 481 c 0
 675 465 648 466 640 428 c 2
 568 91 l 2
 565 74 557 63 547 57 c 1
 786 57 l 1x2fe0
 901 598 l 1
 960 598 l 1
 841 36 l 2
 789 -205 649 -246 561 -246 c 0
 481 -246 431 -211 431 -158 c 0
 431 -102 484 -46 545 -46 c 0
 594 -46 620 -79 620 -115 c 0
241 43 m 0x37e0
 273 43 302 69 302 103 c 0
 302 125 285 139 262 139 c 0
 232 139 202 112 202 80 c 0
 202 57 218 43 241 43 c 0x37e0
EndSplineSet
Substitution2: "Single Substitution lookup 22 subtable" uni0E0D.alt1
Substitution2: "Single Substitution lookup 22 subtable" uni0E0D.alt1
EndChar

StartChar: uni0E0E
Encoding: 3598 3598 225
Width: 653
VWidth: 1494
Flags: W
HStem: -345 52<80.9674 152.813> -194 45<255 305.135> -184 50<96.5308 184.186 175.523 192.849> -6 49<93.9326 173.921> 141 49<106.771 181.18> 559 51<344.883 549.617>
VStem: 23 54<-280.971 -217.249> 39 52<46.8772 125.286> 190 50<58.5655 131.72>
LayerCount: 2
Fore
SplineSet
39 71 m 0xdd80
 39 136 99 190 161 190 c 0
 174 190 185 187 193 184 c 1
 219 308 l 2
 224 330 237 353 244 363 c 1
 154 425 l 1
 193 506 309 610 465 610 c 0
 558 610 622 579 658 513 c 1
 659 514 661 515 664 515 c 0
 681 515 693 492 693 482 c 0
 693 467 665 461 658 428 c 2
 524 -202 l 2
 512 -257 438 -308 406 -327 c 0
 364 -353 361 -355 352 -355 c 0
 340 -355 326 -346 326 -332 c 0
 326 -316 341 -305 346 -302 c 1
 328 -264 288 -207 246 -194 c 1xdd80
 243 -205 243 -269 180 -322 c 0
 162 -337 138 -345 108 -345 c 0
 39 -345 23 -297 23 -262 c 0
 23 -189 92 -134 175 -134 c 0xbe80
 184 -134 192 -135 200 -136 c 1
 216 -60 l 1
 274 -60 l 1
 255 -149 l 1
 290 -156 365 -209 392 -274 c 1
 426 -250 461 -222 465 -202 c 2
 601 436 l 2
 603 449 609 460 615 468 c 1
 604 486 573 559 455 559 c 0
 318 559 250 479 228 445 c 1
 278 408 l 1
 294 425 329 447 352 451 c 0
 353 451 370 416 373 411 c 1
 340 397 317 380 303 360 c 0
 289 339 280 321 277 306 c 2
 239 126 l 1
 240 122 240 118 240 113 c 0
 240 58 188 -6 120 -6 c 0
 70 -6 39 27 39 71 c 0xdd80
151 141 m 0
 121 141 91 115 91 81 c 0
 91 59 105 43 130 43 c 0
 165 43 190 76 190 102 c 0
 190 124 175 141 151 141 c 0
158 -184 m 0xbe80
 86 -184 77 -234 77 -254 c 0
 77 -271 84 -293 119 -293 c 0
 176 -293 189 -237 193 -185 c 1
 182 -184 170 -184 158 -184 c 0xbe80
EndSplineSet
Substitution2: "Single Substitution lookup 22 subtable" uni0E0E.alt1
Substitution2: "Single Substitution lookup 22 subtable" uni0E0E.alt1
EndChar

StartChar: uni0E0F
Encoding: 3599 3599 226
Width: 653
VWidth: 1494
Flags: W
HStem: -348 54<29.2083 118.346> -299 49<354.439 392.752> -184 47<48.8027 133.702 125 142.404> -6 49<93.9326 173.921> 141 49<106.771 181.18> 559 51<345.101 549.073>
VStem: -27 53<-290.294 -206.935> 39 52<46.8772 125.286> 190 50<58.5655 131.72>
LayerCount: 2
Fore
SplineSet
39 71 m 0x7f80
 39 136 99 190 161 190 c 0
 174 190 185 187 193 184 c 1
 219 308 l 2
 224 330 237 353 244 363 c 1
 154 425 l 1
 193 506 310 610 465 610 c 0
 558 610 623 579 659 513 c 1
 660 514 662 515 665 515 c 0
 683 515 695 492 695 481 c 0
 695 466 666 464 659 428 c 2
 525 -203 l 2
 501 -314 432 -336 416 -336 c 0
 392 -336 391 -312 391 -307 c 2
 391 -306 l 2
 391 -304 392 -302 393 -300 c 1
 386 -300 380 -299 376 -299 c 0x7f80
 359 -299 323 -308 291 -351 c 0
 286 -358 278 -364 267 -364 c 0
 253 -364 245 -351 245 -340 c 0
 245 -328 257 -323 258 -320 c 1
 235 -252 212 -225 194 -209 c 1
 177 -289 143 -348 58 -348 c 0xbf80
 -4 -348 -27 -306 -27 -266 c 0
 -27 -189 45 -137 118 -137 c 0
 125 -137 151 -141 151 -141 c 1
 168 -63 l 1
 225 -63 l 1
 204 -160 l 1
 255 -192 285 -246 300 -281 c 1
 323 -259 356 -250 383 -250 c 0
 406 -250 432 -257 443 -265 c 1
 456 -249 461 -232 467 -203 c 2
 603 436 l 2
 605 449 610 460 616 468 c 1
 604 494 564 559 455 559 c 0
 318 559 250 479 228 445 c 1
 278 408 l 1
 294 425 329 447 352 451 c 0
 353 451 355 446 361 436 c 2
 373 411 l 1
 340 397 317 380 303 360 c 0
 289 339 280 321 277 306 c 2
 239 126 l 1
 240 122 240 118 240 113 c 0
 240 58 188 -6 120 -6 c 0
 70 -6 39 27 39 71 c 0x7f80
151 141 m 0
 121 141 91 115 91 81 c 0
 91 59 105 43 130 43 c 0
 165 43 190 76 190 102 c 0
 190 124 175 141 151 141 c 0
107 -184 m 0
 63 -184 26 -213 26 -256 c 0
 26 -275 36 -294 70 -294 c 0xbf80
 99 -294 127 -273 134 -242 c 0
 143 -196 140 -196 143 -185 c 1
 131 -184 119 -184 107 -184 c 0
EndSplineSet
Substitution2: "Single Substitution lookup 22 subtable" uni0E0F.alt1
Substitution2: "Single Substitution lookup 22 subtable" uni0E0F.alt1
EndChar

StartChar: uni0E10
Encoding: 3600 3600 227
Width: 571
VWidth: 1494
Flags: W
HStem: -347 53<-18.5297 69.9787> -303 46<282.306 362.558> -223 51<311.561 371.694> -181 47<4.23098 89.6055> -79 51<322.378 401.851> -2 21G<397 406> 197 51<240.822 322.392> 344 49<251.627 332.677> 432 44<244.53 478.509> 559 50<356.555 514.302>
VStem: -74 52<-289.791 -208.222> 187 50<252.092 329.545> 258 50<-168.642 -93.8596> 406 49<-136.19 -83.0773>
LayerCount: 2
Fore
SplineSet
187 275 m 0x0ffc
 187 336 244 393 308 393 c 0
 372 393 391 347 404 246 c 2
 413 182 l 2
 414 160 416 142 417 127 c 1
 506 365 l 2
 509 376 514 384 522 389 c 1
 510 400 449 432 318 432 c 0
 282 432 242 429 198 423 c 1
 182 400 174 399 169 399 c 0
 167 399 145 400 145 417 c 0
 145 448 228 535 289 571 c 0
 341 601 393 609 434 609 c 0
 468 609 491 607 567 584 c 2
 618 568 l 2
 634 563 646 560 656 558 c 1
 629 513 l 1
 622 514 612 516 597 522 c 2
 548 538 l 2
 537 541 479 559 430 559 c 0
 348 559 280 524 235 472 c 1
 269 475 299 476 327 476 c 0
 418 476 511 463 560 428 c 1
 561 429 563 430 566 430 c 0
 584 430 594 404 594 394 c 0
 594 390 586 381 574 371 c 1
 563 365 556 356 550 344 c 2
 431 27 l 1
 427 20 414 -2 398 -2 c 0
 396 -2 367 1 367 14 c 0
 367 23 375 26 375 41 c 0
 375 54 374 78 368 118 c 2
 348 232 l 1
 325 209 296 197 266 197 c 0
 220 197 187 229 187 275 c 0x0ffc
-74 -265 m 0
 -74 -194 -10 -134 69 -134 c 0x9ffc
 81 -134 92 -136 103 -139 c 1
 123 -49 l 1
 181 -49 l 1
 157 -158 l 1
 200 -187 233 -230 252 -280 c 1
 275 -265 299 -257 325 -257 c 0
 344 -257 361 -262 371 -266 c 1
 383 -211 l 1
 367 -219 352 -223 337 -223 c 0
 288 -223 258 -186 258 -144 c 0
 258 -86 316 -28 378 -28 c 0
 426 -28 455 -64 455 -106 c 0
 455 -113 454 -119 453 -126 c 2
 418 -291 l 1
 418 -303 l 1
 414 -322 399 -327 384 -327 c 0
 356 -327 373 -303 326 -303 c 0x6ffc
 261 -303 251 -360 229 -360 c 0
 220 -360 197 -353 197 -342 c 0
 197 -330 213 -318 213 -317 c 0
 204 -287 184 -241 146 -211 c 1
 140 -248 119 -347 11 -347 c 0x8ffc
 -59 -347 -74 -301 -74 -265 c 0
66 -181 m 0
 28 -181 -22 -206 -22 -257 c 0x5ffc
 -22 -276 -11 -294 23 -294 c 0
 50 -294 80 -272 87 -241 c 0
 94 -205 95 -200 96 -190 c 1
 87 -184 77 -181 66 -181 c 0
365 -79 m 0
 334 -79 308 -111 308 -133 c 0
 308 -152 320 -172 347 -172 c 0x2ffc
 377 -172 406 -142 406 -116 c 0
 406 -93 387 -79 365 -79 c 0
297 344 m 256
 264 344 237 315 237 285 c 0
 237 262 254 248 277 248 c 256
 312 248 336 278 336 306 c 0
 336 326 323 344 297 344 c 256
EndSplineSet
Substitution2: "Single Substitution lookup 22 subtable" uni0E10.alt1
Substitution2: "Single Substitution lookup 22 subtable" uni0E10.alt1
EndChar

StartChar: uni0E11
Encoding: 3601 3601 228
Width: 754
VWidth: 1494
Flags: W
HStem: 0 21G<287 298.5 610 672.25> 309 50<184.564 263.845> 456 49<212.012 275.116> 544 57<650 687.937> 557 51<227.258 319.066>
VStem: 122 60<361.89 439.913> 279 52<373.36 452.148> 460 64<483.118 546.489>
LayerCount: 2
Fore
SplineSet
122 412 m 0xef
 122 488 191 608 295 608 c 0
 327 608 351 591 370 564 c 1
 404 584 423 608 451 608 c 0xef
 479 608 524 543 524 512 c 0
 524 477 443 442 421 392 c 0
 415 381 410 364 405 341 c 2
 368 164 l 1
 574 517 623 601 627 601 c 0
 689 598 736 589 770 565 c 1
 771 566 774 567 777 567 c 0
 795 567 806 546 806 535 c 0
 806 520 777 514 770 480 c 2
 668 0 l 1
 610 0 l 1
 714 490 l 2
 718 507 719 512 727 522 c 1
 707 542 672 544 650 544 c 1xf7
 646 539 635 523 617 496 c 2
 405 148 l 1
 343 50 l 2
 337 41 306 -8 291 -8 c 0
 283 -8 260 5 260 20 c 0
 260 41 279 35 291 76 c 2
 339 303 l 2
 353 366 365 416 405 453 c 2
 442 484 l 2
 445 486 460 499 460 509 c 0
 460 525 440 544 433 553 c 1
 420 544 405 537 388 523 c 1
 388 515 389 507 388 503 c 0
 386 492 362 484 355 484 c 0
 335 484 333 557 275 557 c 0
 237 557 201 515 187 478 c 1
 204 496 231 505 252 505 c 0
 298 505 331 473 331 427 c 0
 331 361 267 312 210 309 c 0
 158 309 122 353 122 412 c 0xef
220 359 m 256
 249 359 279 385 279 418 c 0
 279 439 265 456 241 456 c 256
 208 456 182 427 182 395 c 0
 182 375 195 359 220 359 c 256
EndSplineSet
EndChar

StartChar: uni0E12
Encoding: 3602 3602 229
Width: 922
VWidth: 1494
Flags: W
HStem: -6 46<456.941 508.828> 209 48<616 690.451> 401 50<371.305 450.437> 589 20<340.201 381.5 542.5 566 901.746 963>
VStem: 152 55<220.808 363.733> 162 52<86.2868 200.619 299.69 462.689> 305 52<305.64 386.526> 402 48<45.8051 158.467> 454 52<318.144 397.02>
LayerCount: 2
Fore
SplineSet
546 206 m 1xf380
 493 200 450 148 450 91 c 0
 450 61 466 40 493 40 c 0
 500 40 512 45 518 73 c 2
 546 206 l 1xf380
117 16 m 0
 117 39 162 42 162 124 c 0xf780
 162 171 152 229 152 298 c 0
 152 333 155 370 163 410 c 0
 201 587 360 609 360 609 c 1
 403 609 448 554 455 544 c 1
 507 594 534 604 551 604 c 0
 581 604 645 565 653 513 c 1
 654 514 656 515 659 515 c 0
 674 515 687 494 687 482 c 0
 687 467 659 462 652 428 c 2
 616 257 l 1
 748 249 798 163 809 142 c 1
 906 598 l 1
 963 598 l 1
 836 0 l 1
 779 0 l 1
 788 40 l 1
 776 151 665 205 605 209 c 1
 579 84 l 2
 567 29 528 -6 477 -6 c 0
 433 -6 402 32 402 85 c 0
 402 153 451 237 556 254 c 1
 595 436 l 2
 597 449 603 460 609 468 c 1
 612 482 595 537 541 553 c 1
 510 541 490 521 475 504 c 1
 469 475 442 474 441 474 c 0
 423 474 422 497 409 512 c 0
 381 544 367 553 354 558 c 1
 300 543 237 502 219 419 c 0
 209 374 207 334 207 298 c 0xfb80
 207 239 214 191 214 149 c 0xf780
 214 140 214 131 213 123 c 1
 271 186 338 239 360 257 c 1
 329 266 305 292 305 331 c 0
 305 397 367 451 426 451 c 256
 476 451 506 416 506 373 c 0
 506 320 469 281 418 243 c 2
 382 218 l 1
 329 174 l 2
 166 35 170 -4 147 -4 c 0
 136 -4 117 7 117 16 c 0
394 303 m 256
 430 303 454 336 454 363 c 0
 454 383 441 401 415 401 c 256
 382 401 357 372 357 341 c 0
 357 319 370 303 394 303 c 256
EndSplineSet
EndChar

StartChar: uni0E13
Encoding: 3603 3603 230
Width: 932
VWidth: 1494
Flags: W
HStem: -7 50<204.222 289.067 763.401 853.533> 139 51<239.415 298.784> 167 67<737.198 828.459 818.546 834> 559 51<327.852 527.758>
VStem: 152 50<46.5688 107.07> 302 49<57.5767 135.311> 702 55<55.1154 144.65> 876 54<70.9973 160.777>
LayerCount: 2
Fore
SplineSet
930 132 m 0xbf
 930 64 869 -1 794 -1 c 0
 752 -1 702 21 702 81 c 0
 702 142 752 182 768 190 c 1
 620 169 530 -4 505 -4 c 0
 485 -4 475 12 475 22 c 0
 475 40 496 41 501 64 c 2
 580 436 l 2
 582 449 588 460 594 468 c 1
 589 478 556 559 436 559 c 0
 299 559 231 479 209 445 c 1
 259 408 l 1
 268 417 303 446 332 451 c 0
 333 451 342 435 353 411 c 1
 320 397 297 380 284 360 c 0
 270 339 261 321 258 306 c 2
 231 181 l 1
 246 187 259 190 272 190 c 0xdf
 323 190 351 155 351 112 c 0
 351 52 297 -7 231 -7 c 0
 182 -7 152 27 152 70 c 0
 152 77 153 84 154 91 c 2
 200 308 l 2
 205 330 218 353 225 363 c 1
 135 425 l 1
 135 425 230 610 445 610 c 0
 539 610 601 580 637 513 c 1
 638 514 640 515 643 515 c 0
 660 515 673 492 673 481 c 0
 673 466 644 464 637 428 c 2
 574 132 l 1
 638 198 728 234 803 234 c 0
 814 234 825 233 834 232 c 1
 912 598 l 1
 969 598 l 1
 886 208 l 1
 921 189 930 157 930 132 c 0xbf
241 43 m 0
 273 43 302 69 302 103 c 0
 302 125 285 139 262 139 c 0
 232 139 202 112 202 80 c 0
 202 57 218 43 241 43 c 0
829 167 m 0xbf
 798 167 757 139 757 95 c 0
 757 70 772 49 804 49 c 256
 845 49 876 87 876 121 c 0
 876 146 859 167 829 167 c 0xbf
EndSplineSet
EndChar

StartChar: uni0E14
Encoding: 3604 3604 231
Width: 639
VWidth: 1494
Flags: W
HStem: 0 21G<126.215 136.5 495 557.252> 426 51<361.533 442.989> 559 51<332.663 532.315>
VStem: 136.858 50.1418<127.067 183.557 183.557 232.886 232.886 301.264> 295.985 51.0655<334.011 410.529> 446.416 49.9462<345.668 422.482>
LayerCount: 2
Fore
SplineSet
644 428 m 2
 553 0 l 1
 495 0 l 1
 588 439 l 2
 591 451 596 462 604 471 c 1
 588 496 544 559 439 559 c 0
 355 559 237 525 200 355 c 0
 189.831 305.123 187.869 271.426 187.869 239.601 c 0
 187.869 205.839 189.958 171.868 187 127 c 1
 202 144 245 197 347 284 c 1
 316.452 295.031 295.985 321.903 295.985 357.895 c 0
 295.985 413.163 347.769 477 418 477 c 0
 463.944 477 496.362 445.438 496.362 399.904 c 0
 496.362 315.203 391.062 262.295 391 262 c 1
 240 134 197 75 162 22 c 0
 151 6 142 -2 131 -2 c 0
 121.431 -2 100.872 8.07314 100.872 16.8274 c 0
 100.872 17.2213 100.914 17.6125 101 18 c 0
 104 34 128 45 136 87 c 0
 142.654 117.497 136.858 175.535 136.858 232.886 c 0
 136.858 272.608 139.488 317.333 150 366 c 0
 191 561 352 610 448 610 c 0
 578 610 630 540 644 513 c 1
 645 514 647 515 650 515 c 0
 667.707 515 680.203 493.287 680.203 482.237 c 0
 680.203 466.599 650.978 460.898 644 428 c 2
408 426 m 0
 371.43 426 347.05 394.597 347.05 368.583 c 0
 347.05 347.511 361.696 330 387 330 c 0
 414.661 330 446.416 356.646 446.416 389.695 c 0
 446.416 412.616 428.695 426 408 426 c 0
EndSplineSet
EndChar

StartChar: uni0E15
Encoding: 3605 3605 232
Width: 641
VWidth: 1494
Flags: W
HStem: 0 21G<135.5 152.5 496 559.252> 401 50<365.305 444.437> 589 20G<353 375.5 536.5 560>
VStem: 146 55<220.57 363.629> 156 52<86.2867 200.369 299.69 462.169> 299 52<305.64 386.526> 448 52<318.144 397.02>
LayerCount: 2
Fore
SplineSet
111 16 m 0xee
 111 39 156 42 156 124 c 0xee
 156 171 146 229 146 298 c 0
 146 333 149 370 157 410 c 0
 194 585 352 609 354 609 c 0
 397 609 442 554 449 544 c 1
 501 594 528 604 545 604 c 0
 575 604 639 565 647 513 c 1
 648 514 650 515 653 515 c 0
 668 515 681 494 681 482 c 0
 681 467 653 462 646 428 c 2
 555 0 l 1
 496 0 l 1
 589 436 l 2
 591 449 597 460 603 468 c 1
 606 482 589 537 535 553 c 1
 504 541 484 521 469 504 c 1
 463 475 436 474 435 474 c 0
 415 474 425 492 384 533 c 0
 372 545 356 555 348 558 c 1
 292 543 231 502 213 418 c 0
 203 374 201 334 201 298 c 0xf6
 201 239 208 190 208 148 c 0
 208 140 208 131 207 123 c 1
 265 186 332 239 354 257 c 1
 323 266 299 292 299 331 c 0
 299 397 361 451 420 451 c 256
 470 451 500 416 500 373 c 0
 500 320 463 281 412 243 c 2
 376 218 l 1
 323 174 l 2
 160 35 164 -4 141 -4 c 0
 130 -4 111 7 111 16 c 0xee
388 303 m 256
 424 303 448 336 448 363 c 0
 448 383 435 401 409 401 c 256
 376 401 351 372 351 341 c 0
 351 319 364 303 388 303 c 256
EndSplineSet
EndChar

StartChar: uni0E16
Encoding: 3606 3606 233
Width: 636
VWidth: 1494
Flags: W
HStem: -7 50<205.187 286.517> 139 51<239.415 298.784> 559 51<325.041 529.181>
VStem: 152 50<46.5688 107.07> 302 49<57.5767 135.311>
LayerCount: 2
Fore
SplineSet
351 112 m 0
 351 52 297 -7 231 -7 c 0
 182 -7 152 27 152 70 c 0
 152 77 153 84 154 91 c 2
 200 308 l 2
 205 330 218 353 225 363 c 1
 135 425 l 1
 135 425 227 610 445 610 c 0
 539 610 604 579 640 513 c 1
 641 514 643 515 646 515 c 0
 664 515 675 493 675 481 c 0
 675 465 648 466 640 428 c 2
 549 0 l 1
 490 0 l 1
 583 436 l 2
 585 449 591 460 597 468 c 1
 592 476 559 559 436 559 c 0
 299 559 231 479 209 445 c 1
 259 408 l 1
 268 417 303 446 332 451 c 0
 333 451 342 435 353 411 c 1
 320 397 297 380 284 360 c 0
 270 339 261 321 258 306 c 2
 231 181 l 1
 246 187 259 190 272 190 c 0
 323 190 351 155 351 112 c 0
241 43 m 0
 273 43 302 69 302 103 c 0
 302 125 285 139 262 139 c 0
 232 139 202 112 202 80 c 0
 202 57 218 43 241 43 c 0
EndSplineSet
EndChar

StartChar: uni0E17
Encoding: 3607 3607 234
Width: 669
VWidth: 1494
Flags: W
HStem: -1 21G<176.5 185.5 522 584.241> 407 50<183.955 243.639> 544 54<555 597.948> 553 51<196.253 277.797>
VStem: 130 51<460.112 536.872> 281 49<488.335 548.921>
LayerCount: 2
Fore
SplineSet
130 485 m 0xec
 130 550 192 604 251 604 c 0xdc
 297 604 330 572 330 526 c 0
 330 520 330 512 328 505 c 2
 256 167 l 1
 473 511 l 2
 494 544 530 598 532 598 c 2
 539 598 l 2
 565 598 651 596 682 565 c 1
 683 566 686 567 689 567 c 0
 704 567 718 546 718 534 c 0
 718 518 689 517 682 480 c 2
 580 -1 l 1
 522 -1 l 1
 626 490 l 2
 630 507 631 512 639 522 c 1
 615 542 588 544 555 544 c 1
 551 539 540 523 522 496 c 2
 299 148 l 1
 233 50 l 2
 209 16 191 -8 180 -8 c 0
 173 -8 150 4 150 20 c 0
 150 42 168 33 181 79 c 2
 253 417 l 1
 238 410 224 407 210 407 c 0
 160 407 130 442 130 485 c 0xec
241 553 m 0
 211 553 181 526 181 494 c 0
 181 471 197 457 220 457 c 0
 252 457 281 483 281 517 c 0
 281 539 264 553 241 553 c 0
EndSplineSet
EndChar

StartChar: uni0E18
Encoding: 3608 3608 235
Width: 579
VWidth: 1494
Flags: W
HStem: 0 57<232 429> 405 53<319 462.606> 556 52<314.949 538.973>
LayerCount: 2
Fore
SplineSet
488 333 m 2
 491 346 496 357 503 365 c 1
 463 390 402 403 319 405 c 1
 252 91 l 2
 249 74 242 63 232 57 c 1
 429 57 l 1
 488 333 l 2
122 390 m 0
 122 405 217 608 431 608 c 0
 519 608 559 576 647 558 c 1
 619 510 l 1
 598 512 500 556 426 556 c 0
 372 556 275 545 210 448 c 1
 250 455 287 458 320 458 c 0
 425 458 511 432 544 408 c 1
 545 409 547 410 550 410 c 0
 568 410 580 389 580 378 c 0
 580 362 551 356 544 323 c 2
 487 58 l 2
 482 35 457 0 402 0 c 2
 191 0 l 2
 179 0 178 -9 157 -9 c 0
 143 -9 137 14 137 22 c 0
 137 38 185 45 193 85 c 2
 261 405 l 1
 237 405 197 399 180 396 c 1
 165 380 164 375 150 375 c 0
 135 375 122 381 122 390 c 0
EndSplineSet
EndChar

StartChar: uni0E19
Encoding: 3609 3609 236
Width: 641
VWidth: 1494
Flags: W
HStem: -1 50<479.401 569.533> 167 66<436.858 543.096 531.82 550> 408 51<186.616 244.518> 555 50<198.166 278.855>
VStem: 133 50<462.808 539.963> 282 51<495.799 551.148> 418 55<55.1154 145.053> 592 54<70.9973 160.777>
LayerCount: 2
Fore
SplineSet
418 81 m 0
 418 142 465 179 488 187 c 1
 436 182 391 168 353 147 c 0
 219 69 199 -4 176 -4 c 2
 174 -4 l 2
 159 -4 147 11 147 23 c 0
 147 42 174 47 179 72 c 2
 253 417 l 1
 239 411 226 408 211 408 c 0
 166 408 133 440 133 485 c 0
 133 551 194 605 253 605 c 0
 308 605 333 569 333 529 c 0
 333 522 332 514 331 507 c 2
 251 133 l 1
 311 196 413 233 507 233 c 0
 523 233 536 232 550 230 c 1
 628 598 l 1
 685 598 l 1
 602 208 l 1
 637 189 646 157 646 132 c 0
 646 64 585 -1 510 -1 c 0
 468 -1 418 21 418 81 c 0
242 555 m 0
 212 555 183 528 183 496 c 0
 183 473 201 459 222 459 c 0
 253 459 282 485 282 518 c 0
 282 541 265 555 242 555 c 0
545 167 m 0
 514 167 473 139 473 95 c 0
 473 70 488 49 520 49 c 256
 561 49 592 87 592 121 c 0
 592 146 575 167 545 167 c 0
EndSplineSet
EndChar

StartChar: uni0E1A
Encoding: 3610 3610 237
Width: 669
VWidth: 1494
Flags: W
HStem: 1 56<227 537> 407 50<191.114 249.63> 555 50<202.746 283.187>
VStem: 136 52<459.898 540.927> 287 52<490.825 551.068>
LayerCount: 2
Fore
SplineSet
247 555 m 0
 216 555 188 529 188 495 c 0
 188 474 201 457 226 457 c 0
 254 457 287 483 287 518 c 0
 287 541 270 555 247 555 c 0
136 484 m 0
 136 544 193 605 258 605 c 0
 309 605 339 568 339 526 c 0
 339 520 338 514 337 508 c 2
 248 91 l 2
 245 74 237 63 227 57 c 1
 537 57 l 1
 652 598 l 1
 710 598 l 1
 596 60 l 2
 591 39 568 1 510 1 c 2
 187 1 l 2
 172 1 175 -8 153 -8 c 0
 140 -8 134 14 134 23 c 0
 134 41 179 44 188 85 c 2
 259 417 l 1
 243 410 229 407 216 407 c 0
 169 407 136 438 136 484 c 0
EndSplineSet
EndChar

StartChar: uni0E1B
Encoding: 3611 3611 238
Width: 669
VWidth: 1494
Flags: W
HStem: 1 56<227 537> 407 50<191.114 249.63> 555 50<202.746 283.187>
VStem: 136 52<459.898 540.927> 287 52<490.825 551.068>
LayerCount: 2
Fore
SplineSet
247 555 m 0
 216 555 188 529 188 495 c 0
 188 474 201 457 226 457 c 0
 254 457 287 483 287 518 c 0
 287 541 270 555 247 555 c 0
136 484 m 0
 136 544 193 605 258 605 c 0
 309 605 339 568 339 526 c 0
 339 520 338 514 337 508 c 2
 248 91 l 2
 245 74 237 63 227 57 c 1
 537 57 l 1
 700 824 l 1
 758 824 l 1
 596 60 l 2
 591 39 568 1 510 1 c 2
 187 1 l 2
 172 1 175 -8 153 -8 c 0
 140 -8 134 14 134 23 c 0
 134 41 179 44 188 85 c 2
 259 417 l 1
 243 410 229 407 216 407 c 0
 169 407 136 438 136 484 c 0
EndSplineSet
EndChar

StartChar: uni0E1C
Encoding: 3612 3612 239
Width: 633
VWidth: 1494
Flags: W
HStem: -2 21G<103.5 110.5 514 533.5> 410 49<250.842 330.26> 556 49<262.53 341.547>
VStem: 345 51<474.16 552.015>
LayerCount: 2
Fore
SplineSet
396 529 m 0
 396 463 335 410 275 410 c 0
 260 410 247 413 235 419 c 1
 171 117 l 1
 372 342 l 1
 374 348 387 363 403 363 c 256
 418 363 424 347 424 342 c 1
 516 120 l 1
 617 598 l 1
 674 598 l 1
 556 40 l 2
 552 24 551 -2 516 -2 c 0
 512 -2 507 -1 500 7 c 1
 387 288 l 1
 179 61 l 2
 149 28 115 -7 106 -7 c 0
 101 -7 75 4 75 22 c 0
 75 37 101 50 107 82 c 2
 198 507 l 2
 210 565 262 605 317 605 c 0
 362 605 396 575 396 529 c 0
286 459 m 256
 322 459 345 492 345 518 c 0
 345 540 331 556 306 556 c 256
 269 556 248 522 248 496 c 0
 248 475 262 459 286 459 c 256
EndSplineSet
EndChar

StartChar: uni0E1D
Encoding: 3613 3613 240
Width: 633
VWidth: 1494
Flags: W
HStem: -2 21G<103.5 110.5 514 533.5> 410 49<250.842 330.26> 556 49<262.53 341.547>
VStem: 345 51<474.16 552.015>
LayerCount: 2
Fore
SplineSet
396 529 m 0
 396 463 335 410 275 410 c 0
 260 410 247 413 235 419 c 1
 171 117 l 1
 372 342 l 1
 374 348 387 363 403 363 c 256
 418 363 424 347 424 342 c 1
 516 120 l 1
 666 828 l 1
 723 828 l 1
 556 40 l 2
 552 24 551 -2 516 -2 c 0
 512 -2 507 -1 500 7 c 1
 387 288 l 1
 179 61 l 2
 149 28 115 -7 106 -7 c 0
 101 -7 75 4 75 22 c 0
 75 37 101 50 107 82 c 2
 198 507 l 2
 210 565 262 605 317 605 c 0
 362 605 396 575 396 529 c 0
286 459 m 256
 322 459 345 492 345 518 c 0
 345 540 331 556 306 556 c 256
 269 556 248 522 248 496 c 0
 248 475 262 459 286 459 c 256
EndSplineSet
EndChar

StartChar: uni0E1E
Encoding: 3614 3614 241
Width: 717
VWidth: 1494
Flags: W
HStem: -4 21G<177.5 186.5 580.5 610> 410 49<188.02 247.921> 556 49<201.369 280.453>
VStem: 133 52<463.231 540.364> 284 50<490.603 551.736>
LayerCount: 2
Fore
SplineSet
133 485 m 0
 133 545 187 605 256 605 c 0
 302 605 334 574 334 529 c 0
 334 522 334 515 332 507 c 2
 253 135 l 1
 487 570 l 1
 501 585 510 592 522 592 c 256
 540 592 543 578 547 570 c 1
 602 136 l 1
 700 598 l 1
 758 598 l 1
 638 33 l 2
 632 7 630 -4 590 -4 c 0
 571 -4 572 2 568 36 c 2
 548 154 l 1
 499 490 l 1
 249 45 l 2
 230 17 192 -7 181 -7 c 0
 174 -7 152 7 152 21 c 0
 152 42 173 24 186 90 c 2
 256 419 l 1
 243 413 229 410 214 410 c 0
 164 410 133 442 133 485 c 0
245 556 m 0
 209 556 185 523 185 496 c 0
 185 475 200 459 225 459 c 0
 252 459 284 484 284 518 c 0
 284 541 267 556 245 556 c 0
EndSplineSet
EndChar

StartChar: uni0E1F
Encoding: 3615 3615 242
Width: 717
VWidth: 1494
Flags: W
HStem: -4 21G<177.5 186.5 580.5 610> 410 49<188.02 247.921> 556 49<201.369 280.453>
VStem: 133 52<463.231 540.364> 284 50<490.603 551.736>
LayerCount: 2
Fore
SplineSet
133 485 m 0
 133 545 187 605 256 605 c 0
 302 605 334 574 334 529 c 0
 334 522 334 515 332 507 c 2
 253 136 l 1
 487 570 l 1
 501 585 510 592 522 592 c 256
 540 592 543 578 547 570 c 1
 602 136 l 1
 749 828 l 1
 807 828 l 1
 638 33 l 2
 632 7 630 -4 590 -4 c 0
 571 -4 572 2 568 36 c 2
 548 154 l 1
 499 490 l 1
 249 45 l 2
 230 17 192 -7 181 -7 c 0
 174 -7 152 7 152 21 c 0
 152 42 173 24 186 90 c 2
 256 419 l 1
 243 413 229 410 214 410 c 0
 164 410 133 442 133 485 c 0
245 556 m 0
 209 556 185 523 185 496 c 0
 185 475 200 459 225 459 c 0
 252 459 284 484 284 518 c 0
 284 541 267 556 245 556 c 0
EndSplineSet
EndChar

StartChar: uni0E20
Encoding: 3616 3616 243
Width: 654
VWidth: 1494
Flags: W
HStem: -6 49<93.9326 173.921> 141 49<106.771 181.18> 559 51<345.537 549.073>
VStem: 39 52<46.8772 125.286> 190 50<58.5655 131.72>
LayerCount: 2
Fore
SplineSet
39 71 m 0
 39 136 99 190 161 190 c 0
 174 190 185 187 193 184 c 1
 219 308 l 2
 224 330 237 353 244 363 c 1
 154 425 l 1
 193 506 312 610 465 610 c 0
 558 610 623 579 659 513 c 1
 660 514 662 515 665 515 c 0
 683 515 695 492 695 481 c 0
 695 466 666 464 659 428 c 2
 568 0 l 1
 510 0 l 1
 603 436 l 2
 605 449 610 460 616 468 c 1
 604 494 564 559 455 559 c 0
 318 559 250 479 228 445 c 1
 278 408 l 1
 294 425 329 447 352 451 c 0
 353 451 370 416 373 411 c 1
 340 397 317 380 303 360 c 0
 289 339 280 321 277 306 c 2
 239 126 l 1
 240 122 240 118 240 113 c 0
 240 58 188 -6 120 -6 c 0
 70 -6 39 27 39 71 c 0
151 141 m 0
 121 141 91 115 91 81 c 0
 91 59 105 43 130 43 c 0
 165 43 190 76 190 102 c 0
 190 124 175 141 151 141 c 0
EndSplineSet
EndChar

StartChar: uni0E21
Encoding: 3617 3617 244
Width: 653
VWidth: 1494
Flags: W
HStem: -3 48<143.96 208.689> 214 51<310 341.984> 405 49<217.181 275.596> 552 49<228.935 307.525>
VStem: 82 53<52.3455 162.366> 162 52<457.045 536.368> 311 52<484.893 548.781>
LayerCount: 2
Fore
SplineSet
162 482 m 0
 162 547 224 601 283 601 c 0
 333 601 363 568 363 523 c 0
 363 517 362 509 361 502 c 2
 310 265 l 1
 327 265 461 254 539 145 c 1
 635 598 l 1
 692 598 l 1
 565 0 l 1
 508 0 l 1
 520 55 l 1
 482 177 343 214 301 214 c 1
 275 88 l 2
 266 47 238 -3 172 -3 c 0
 120 -3 82 41 82 96 c 0
 82 168 143 245 252 262 c 1
 284 414 l 1
 271 408 256 405 241 405 c 0
 192 405 162 439 162 482 c 0
272 552 m 256
 240 552 214 521 214 491 c 0
 214 471 228 454 252 454 c 256
 286 454 311 483 311 514 c 0
 311 536 297 552 272 552 c 256
242 212 m 1
 155 192 135 135 135 101 c 0
 135 67 154 45 179 45 c 0
 196 45 208 50 216 88 c 2
 242 212 l 1
EndSplineSet
EndChar

StartChar: uni0E22
Encoding: 3618 3618 245
Width: 603
VWidth: 1494
Flags: W
HStem: 1 56<194 472> 268 48<252.759 375.462> 408 51<275.926 356.644> 555 50<287.572 368.21>
VStem: 138 58<343.769 454.804> 371 52<472.774 551.197>
LayerCount: 2
Fore
SplineSet
221 486 m 1
 202 459 196 424 196 404 c 0
 196 353 227 316 301 316 c 0
 346 316 389 330 424 347 c 1
 427 294 l 1
 378 273 334 268 297 268 c 0
 281 268 267 269 254 271 c 1
 215 91 l 2
 212 74 204 63 194 57 c 1
 472 57 l 1
 587 598 l 1
 644 598 l 1
 530 60 l 2
 525 39 502 1 444 1 c 2
 154 1 l 2
 141 1 142 -8 120 -8 c 0
 107 -8 101 14 101 23 c 0
 101 41 148 46 156 85 c 2
 198 284 l 1
 150 311 138 356 138 392 c 0
 138 489 232 605 343 605 c 0
 385 605 423 580 423 531 c 0
 423 464 363 408 301 408 c 0
 243 408 222 452 221 486 c 1
332 555 m 256
 297 555 273 525 273 495 c 0
 273 473 288 459 312 459 c 256
 347 459 371 489 371 519 c 0
 371 541 356 555 332 555 c 256
EndSplineSet
EndChar

StartChar: uni0E23
Encoding: 3619 3619 246
Width: 529
VWidth: 1494
Flags: W
HStem: -7 50<301.676 383.298> 139 51<314.008 390.756> 410 50<218.894 418.308> 519 21G<544 588.833> 558 50<296.838 516.057>
VStem: 247 52<45.9322 123.489>
LayerCount: 2
Fore
SplineSet
359 139 m 256
 327 139 299 112 299 79 c 0
 299 57 314 43 338 43 c 256
 371 43 398 71 398 104 c 0
 398 126 383 139 359 139 c 256
247 71 m 0
 247 131 305 190 369 190 c 0
 384 190 397 187 407 181 c 1
 441 338 l 2
 444 351 449 361 455 369 c 1
 432 391 356 410 269 410 c 0
 238 410 208 407 175 402 c 1
 165 391 162 382 141 382 c 0
 127 382 115 388 118 398 c 1
 119 406 198 608 410 608 c 0
 489 608 550 577 604 567 c 1
 578 519 l 1
 510 531 489 558 409 558 c 0
 311 558 251 522 204 453 c 1
 233 458 261 460 286 460 c 0
 380 460 463 432 497 411 c 1
 500 413 503 414 507 414 c 0
 522 414 533 393 533 382 c 0
 533 365 506 366 498 327 c 2
 447 91 l 2
 436 38 385 -7 328 -7 c 0
 278 -7 247 28 247 71 c 0
EndSplineSet
EndChar

StartChar: uni0E24
Encoding: 3620 3620 247
Width: 636
VWidth: 1494
Flags: W
HStem: -7 50<205.187 286.517> 139 51<239.415 298.784> 559 51<325.041 529.181>
VStem: 152 50<46.5688 107.07> 302 49<57.5767 135.311>
LayerCount: 2
Fore
SplineSet
351 112 m 0
 351 52 297 -7 231 -7 c 0
 182 -7 152 27 152 70 c 0
 152 77 153 84 154 91 c 2
 200 308 l 2
 205 330 218 353 225 363 c 1
 135 425 l 1
 135 425 227 610 445 610 c 0
 539 610 604 579 640 513 c 1
 641 514 643 515 646 515 c 0
 664 515 675 493 675 481 c 0
 675 465 648 466 640 428 c 2
 472 -363 l 1
 413 -363 l 1
 583 436 l 2
 585 449 591 460 597 468 c 1
 592 476 559 559 436 559 c 0
 299 559 231 479 209 445 c 1
 259 408 l 1
 268 417 303 446 332 451 c 0
 333 451 342 435 353 411 c 1
 320 397 297 380 284 360 c 0
 270 339 261 321 258 306 c 2
 231 181 l 1
 246 187 259 190 272 190 c 0
 323 190 351 155 351 112 c 0
241 43 m 0
 273 43 302 69 302 103 c 0
 302 125 285 139 262 139 c 0
 232 139 202 112 202 80 c 0
 202 57 218 43 241 43 c 0
EndSplineSet
EndChar

StartChar: uni0E25
Encoding: 3621 3621 248
Width: 639
VWidth: 1494
Flags: W
HStem: -6 49<193.999 273.816> 141 49<230.07 285.747> 555 50<336.009 528.843>
VStem: 139 52<46.2261 127.141> 289 51<57.8893 137.877>
LayerCount: 2
Fore
SplineSet
365 423 m 1
 365 446 384 457 397 457 c 0
 436 457 511 254 529 155 c 1
 590 442 l 2
 593 455 598 466 605 474 c 1
 580 510 517 555 430 555 c 0
 333 555 214 484 188 364 c 2
 185 344 l 1
 128 344 l 1
 130 351 130 357 131 363 c 0
 160 501 297 605 441 605 c 0
 520 605 600 578 646 513 c 1
 647 514 649 515 652 515 c 0
 669 515 681 492 681 482 c 0
 681 467 653 461 646 428 c 2
 555 0 l 1
 496 0 l 1
 498 8 503 38 503 42 c 0
 503 90 427 301 389 380 c 1
 278 284 245 221 226 184 c 1
 236 188 247 190 260 190 c 0
 309 190 340 156 340 113 c 0
 340 57 286 -6 219 -6 c 0
 190 -6 139 6 139 71 c 0
 139 198 306 375 365 423 c 1
250 141 m 256
 216 141 191 111 191 81 c 0
 191 59 204 43 229 43 c 256
 265 43 289 76 289 103 c 0
 289 123 276 141 250 141 c 256
EndSplineSet
EndChar

StartChar: uni0E26
Encoding: 3622 3622 249
Width: 657
VWidth: 1494
Flags: W
HStem: -6 49<93.9326 173.921> 141 49<106.771 181.18> 559 51<345.537 549.181>
VStem: 39 52<46.8772 125.286> 190 50<58.5655 131.72>
LayerCount: 2
Fore
SplineSet
39 71 m 0
 39 136 99 190 161 190 c 0
 174 190 185 187 193 184 c 1
 219 308 l 2
 224 330 237 353 244 363 c 1
 154 425 l 1
 193 506 312 610 465 610 c 0
 558 610 624 579 659 513 c 1
 660 514 662 515 665 515 c 0
 683 515 695 492 695 481 c 0
 695 466 666 464 659 428 c 2
 491 -363 l 1
 433 -363 l 1
 603 436 l 2
 605 449 610 460 616 468 c 1
 604 494 564 559 455 559 c 0
 318 559 250 479 228 445 c 1
 278 408 l 1
 294 425 329 447 352 451 c 0
 353 451 355 446 361 436 c 2
 373 411 l 1
 340 397 317 380 303 360 c 0
 289 339 280 321 277 306 c 2
 239 126 l 1
 240 122 240 118 240 113 c 0
 240 58 188 -6 120 -6 c 0
 70 -6 39 27 39 71 c 0
151 141 m 0
 121 141 91 115 91 81 c 0
 91 59 105 43 130 43 c 0
 165 43 190 76 190 102 c 0
 190 124 175 141 151 141 c 0
EndSplineSet
EndChar

StartChar: uni0E27
Encoding: 3623 3623 250
Width: 538
VWidth: 1494
Flags: W
HStem: -7 49<328.081 406.957> 139 49<339.013 419.517> 502 20G<548.5 559> 553 55<287.814 453.944>
VStem: 114 57<323 418.886> 273 51<45.398 123.949>
LayerCount: 2
Fore
SplineSet
384 139 m 256
 351 139 324 110 324 80 c 0
 324 59 338 42 363 42 c 256
 396 42 422 71 422 103 c 0
 422 123 409 139 384 139 c 256
114 308 m 1
 122 493 241 608 382 608 c 0
 495 608 537 549 544 520 c 1
 545 521 547 522 550 522 c 0
 568 522 580 501 580 490 c 0
 580 474 550 469 543 435 c 2
 470 91 l 2
 458 33 407 -7 353 -7 c 256
 308 -7 273 23 273 70 c 0
 273 134 334 188 394 188 c 0
 410 188 423 186 431 181 c 1
 488 445 l 2
 490 458 496 469 502 477 c 1
 493 500 460 553 371 553 c 0
 225 553 171 400 171 323 c 1
 114 308 l 1
EndSplineSet
EndChar

StartChar: uni0E28
Encoding: 3624 3624 251
Width: 642
VWidth: 1494
Flags: W
HStem: 0 21G<113.977 127.5 499 562.252> 275 49<358.39 439.822> 420 51<383.92 451.504> 559 51<337.68 541.907>
VStem: 454.254 51.8516<338.536 416.252>
LayerCount: 2
Fore
SplineSet
395 324 m 256
 430.419 324 454.254 353.67 454.254 383.635 c 0
 454.254 405.976 439.056 420 415 420 c 256
 379.581 420 355.746 390.33 355.746 360.365 c 0
 355.746 338.024 370.944 324 395 324 c 256
451 610 m 0
 521 610 569 592 603 564 c 1
 654 608 729 651 744 659 c 1
 763 617 l 1
 659 552 659 551 636 531 c 1
 649 513 l 1
 650 514 652 515 655 515 c 0
 671.772 515 684.203 492.426 684.203 482.066 c 0
 684.203 467.499 655.888 461.457 649 428 c 2
 558 0 l 1
 499 0 l 1
 593 442 l 2
 596 455 601 466 608 474 c 1
 609 478 570 559 442 559 c 0
 284 559 232 448 210 345 c 0
 192 257 191 148 187 126 c 1
 279 303 297 379 319 410 c 0
 355 462 400 471 426 471 c 0
 474.778 471 506.105 436.1 506.105 392.073 c 0
 506.105 334.56 449.946 275 384 275 c 256
 357 275 336 284 321 303 c 1
 293 240 l 2
 226 95 172 38 144 9 c 0
 137 2 131 -1 124 -1 c 0
 103.955 -1 93.9318 17.2231 93.9318 22.3588 c 0
 93.9318 36.087 121.586 47.0667 131 91 c 0
 143 145 135 258 155 355 c 0
 173 439 201 500 265 550 c 0
 316 590 378 610 451 610 c 0
EndSplineSet
EndChar

StartChar: uni0E29
Encoding: 3625 3625 252
Width: 669
VWidth: 1494
Flags: W
HStem: 1 56<227 537> 214 49<380.348 486.916> 382 46<392.344 456.609> 407 50<191.114 249.63> 555 50<202.746 284.013>
VStem: 136 52<459.898 540.927> 287 52<490.348 550.797> 324 49<272.233 361.939> 462 52<337.78 381.541>
LayerCount: 2
Fore
SplineSet
247 555 m 0xde80
 216 555 188 529 188 495 c 0
 188 474 201 457 226 457 c 0
 254 457 287 483 287 518 c 0
 287 541 270 555 247 555 c 0xde80
436 382 m 0xed80
 406 382 373 351 373 309 c 0xed80
 373 272 407 263 440 263 c 0
 480 263 588 296 617 431 c 2
 652 598 l 1
 710 598 l 1
 596 60 l 2
 591 39 568 1 510 1 c 2
 187 1 l 2
 172 1 175 -8 153 -8 c 0
 140 -8 134 14 134 23 c 0
 134 41 179 44 188 85 c 2
 259 417 l 1
 243 410 229 407 216 407 c 0
 169 407 136 438 136 484 c 0
 136 544 193 605 258 605 c 0
 308 605 339 570 339 527 c 0xde80
 339 520 338 514 337 507 c 2
 248 91 l 2
 245 74 237 63 227 57 c 1
 537 57 l 1
 587 291 l 1
 523 220 454 214 428 214 c 0
 370 214 324 251 324 301 c 0
 324 353 372 428 445 428 c 0
 499 428 514 398 514 373 c 0
 514 348 497 319 480 319 c 0
 474 319 454 322 454 334 c 0
 454 337 l 0
 454 342 462 358 462 364 c 0
 462 378 445 382 436 382 c 0xed80
EndSplineSet
EndChar

StartChar: uni0E2A
Encoding: 3626 3626 253
Width: 639
VWidth: 1494
Flags: W
HStem: -6 49<193.999 273.816> 141 49<230.07 285.747> 555 50<334.75 509.489>
VStem: 139 52<46.2261 127.141> 289 51<57.8893 137.877>
LayerCount: 2
Fore
SplineSet
365 423 m 1
 365 446 384 457 397 457 c 0
 436 457 511 254 529 155 c 1
 590 442 l 2
 593 455 598 466 605 474 c 1
 580 510 517 555 430 555 c 0
 333 555 214 484 188 364 c 2
 185 344 l 1
 128 344 l 1
 130 351 130 357 131 364 c 0
 162 508 305 605 441 605 c 0
 475 605 537 602 602 558 c 1
 643 601 693 627 744 659 c 1
 763 617 l 1
 726 595 674 562 634 528 c 1
 637 521 641 519 646 513 c 1
 647 514 649 515 652 515 c 0
 669 515 681 492 681 482 c 0
 681 467 653 461 646 428 c 2
 555 0 l 1
 496 0 l 1
 498 8 503 38 503 42 c 0
 503 90 427 301 389 380 c 1
 278 284 245 220 226 184 c 1
 236 188 247 190 260 190 c 0
 309 190 340 156 340 113 c 0
 340 57 286 -6 219 -6 c 0
 190 -6 139 6 139 71 c 0
 139 198 306 375 365 423 c 1
250 141 m 256
 216 141 191 111 191 81 c 0
 191 59 204 43 229 43 c 256
 265 43 289 76 289 103 c 0
 289 123 276 141 250 141 c 256
EndSplineSet
EndChar

StartChar: uni0E2B
Encoding: 3627 3627 254
Width: 665
VWidth: 1494
Flags: W
HStem: 0 21G<169.5 180.5 522 582.248> 408 49<188.114 247.685> 555 50<200.046 279.345> 564 44<543.068 643.234>
VStem: 133 52<459.945 539.851> 284 50<490.416 551.068> 468 53<468.344 542.496> 649 48<472.312 546.917>
LayerCount: 2
Fore
SplineSet
697 529 m 0xdf
 697 501 683 452 634 423 c 1
 646 416 650 409 662 402 c 0
 686 385 652 351 650 339 c 2
 578 0 l 1
 522 0 l 1
 594 339 l 2
 596 348 602 370 611 374 c 1
 609 383 583 398 559 401 c 1
 555 396 543 382 524 362 c 2
 221 34 l 2
 191 1 186 -6 175 -6 c 0
 164 -6 141 4 141 18 c 0
 141 40 176 45 189 105 c 2
 256 417 l 1
 242 411 228 408 213 408 c 0
 166 408 133 438 133 484 c 0
 133 545 190 605 255 605 c 0xef
 304 605 334 571 334 528 c 0
 334 521 333 514 332 507 c 2
 252 130 l 1
 511 417 l 1
 486 426 468 450 468 484 c 0
 468 556 536 608 607 608 c 0
 655 608 697 580 697 529 c 0xdf
244 555 m 0
 212 555 185 526 185 495 c 0
 185 474 198 457 223 457 c 0
 251 457 284 484 284 516 c 0
 284 537 269 555 244 555 c 0
573 450 m 0
 620 450 649 489 649 518 c 0
 649 536 641 564 597 564 c 0xdf
 561 564 521 536 521 498 c 0
 521 480 530 450 573 450 c 0
EndSplineSet
EndChar

StartChar: uni0E2C
Encoding: 3628 3628 255
Width: 717
VWidth: 1494
Flags: W
HStem: -4 21G<177.5 186.5 585 610> 410 49<188.02 247.921> 506 20G<498 513> 556 49<201.369 280.453> 604 51<635.372 694.226> 749 51<645.224 724.812>
VStem: 133 52<463.231 540.364> 284 50<490.603 551.736> 580 52<658.138 736.109>
LayerCount: 2
Fore
SplineSet
690 749 m 256xef80
 656 749 632 721 632 691 c 0
 632 671 646 655 670 655 c 0
 698 655 728 678 728 711 c 0
 728 732 715 749 690 749 c 256xef80
580 682 m 0
 580 737 634 800 701 800 c 0
 757 800 777 756 780 731 c 1
 852 797 l 1
 887 758 l 1
 769 649 l 1
 638 33 l 2
 632 7 630 -4 590 -4 c 0
 580 -4 571 -3 569 21 c 0
 569 25 556 94 549 131 c 2
 495 410 l 2
 491 431 489 441 489 442 c 1
 249 45 l 2
 230 17 192 -7 181 -7 c 0
 174 -7 152 7 152 21 c 0
 152 42 173 24 186 90 c 2
 256 419 l 1
 243 413 229 410 214 410 c 0
 164 410 133 442 133 485 c 0
 133 545 187 605 256 605 c 0xf780
 302 605 334 574 334 529 c 0
 334 522 334 515 332 507 c 2
 255 144 l 1
 472 504 l 1
 480 512 489 526 507 526 c 256
 519 526 524 519 532 504 c 1
 602 136 l 1
 703 613 l 1
 688 607 673 604 659 604 c 0
 612 604 580 638 580 682 c 0
245 556 m 0
 209 556 185 523 185 496 c 0
 185 475 200 459 225 459 c 0
 252 459 284 484 284 518 c 0
 284 541 267 556 245 556 c 0
EndSplineSet
Substitution2: "Single Substitution lookup 22 subtable" uni0E2C.alt1
Substitution2: "Single Substitution lookup 22 subtable" uni0E2C.alt1
EndChar

StartChar: uni0E2D
Encoding: 3629 3629 256
Width: 629
VWidth: 1494
Flags: W
HStem: 1 56<211 496> 254 51<286.499 361.406> 401 50<293.467 373.135> 555 50<313.845 520.086>
VStem: 376 52<318.789 398.228>
LayerCount: 2
Fore
SplineSet
428 373 m 0
 428 313 371 254 307 254 c 0
 292 254 279 257 268 263 c 1
 231 91 l 2
 228 74 221 63 211 57 c 1
 496 57 l 1
 578 441 l 2
 581 454 586 464 592 472 c 1
 566 512 509 555 423 555 c 0
 298 555 194 483 164 343 c 2
 161 330 l 1
 109 330 l 1
 111 342 112 354 115 366 c 0
 148 522 303 605 432 605 c 0
 564 605 616 542 634 513 c 1
 635 514 637 515 640 515 c 0
 657 515 670 492 670 481 c 0
 670 466 641 464 634 428 c 2
 556 61 l 2
 551 38 525 1 469 1 c 2
 170 1 l 2
 158 1 157 -8 137 -8 c 0
 122 -8 116 17 116 24 c 0
 116 37 164 47 172 85 c 2
 229 353 l 2
 240 405 292 451 349 451 c 256
 398 451 428 416 428 373 c 0
318 305 m 256
 353 305 376 335 376 365 c 0
 376 387 362 401 338 401 c 256
 303 401 279 371 279 341 c 0
 279 319 294 305 318 305 c 256
EndSplineSet
EndChar

StartChar: uni0E2E
Encoding: 3630 3630 257
Width: 571
VWidth: 1494
Flags: W
HStem: 1 56<158 438> 172 51<209.757 292.398> 318 51<221.778 303.653> 408 57<233.28 395.704> 552 58<267.63 460.986>
VStem: 169 60<481.559 525.289> 307 50<238.293 313.838>
LayerCount: 2
Fore
SplineSet
357 292 m 0
 357 236 306 172 236 172 c 0
 220 172 216 175 198 181 c 1
 179 91 l 2
 176 74 168 63 158 57 c 1
 438 57 l 1
 519 439 l 2
 522 452 526 463 533 471 c 1
 531 475 532 473 522 480 c 1
 449 433 387 408 307 408 c 0
 191 408 169 455 169 486 c 0
 169 544 263 610 375 610 c 0
 454 610 505 587 535 556 c 1
 568 583 612 626 653 680 c 1
 679 664 693 655 697 655 c 1
 662 603 598 540 566 514 c 1
 574 510 l 1
 576 511 578 512 580 512 c 0
 596 512 610 491 610 479 c 0
 610 462 581 458 574 423 c 2
 497 60 l 2
 492 39 469 1 411 1 c 2
 118 1 l 2
 106 1 105 -8 84 -8 c 0
 71 -8 65 14 65 23 c 0
 65 41 112 46 120 85 c 2
 162 280 l 2
 173 333 227 369 277 369 c 0
 328 369 357 335 357 292 c 0
246 223 m 0
 283 223 307 255 307 281 c 0
 307 304 290 318 267 318 c 0
 235 318 207 290 207 259 c 0
 207 237 224 223 246 223 c 0
362 552 m 0
 251 552 229 508 229 496 c 0
 229 488 244 465 314 465 c 0
 361 465 390 465 482 517 c 1
 456 538 416 552 362 552 c 0
EndSplineSet
EndChar

StartChar: uni0E2F
Encoding: 3631 3631 258
Width: 536
VWidth: 1494
Flags: W
HStem: -9 21G<369.5 386.5> 356 51<252.562 372.159> 556 51<212.31 293.979>
VStem: 147 51<463.725 541.142> 297 51<474.127 551.908>
LayerCount: 2
Fore
SplineSet
348 529 m 0
 348 485 312 424 241 419 c 1
 256 411 273 407 291 407 c 0
 368 407 482 478 537 605 c 1
 586 592 l 1
 583 589 571 562 568 555 c 1
 467 82 l 2
 454 19 395 -9 378 -9 c 0
 361 -9 355 11 355 22 c 0
 355 42 373 33 396 63 c 0
 405 73 410 83 412 94 c 2
 488 453 l 1
 426 394 356 356 282 356 c 0
 223 356 147 400 147 479 c 0
 147 556 211 607 268 607 c 256
 313 607 348 575 348 529 c 0
237 460 m 256
 268 460 297 486 297 519 c 0
 297 542 280 556 257 556 c 256
 222 556 198 526 198 496 c 0
 198 474 213 460 237 460 c 256
EndSplineSet
EndChar

StartChar: uni0E30
Encoding: 3632 3632 259
Width: 521
VWidth: 1494
Flags: W
HStem: 2 44<218 312.265> 166 51<148.848 229.452> 379 44<298 393.013> 543 50<228.848 309.452>
VStem: 82 53<73.3153 152.439> 162 53<450.669 529.485> 232 53<84.0293 162.482> 312 53<461.029 539.443>
LayerCount: 2
Fore
SplineSet
285 141 m 0
 285 97 252 52 218 46 c 1
 223 46 l 2
 312 46 421 115 481 214 c 1
 525 191 l 1
 429 38 302 2 219 2 c 0
 151 2 82 28 82 94 c 0
 82 161 144 217 204 217 c 256
 252 217 285 183 285 141 c 0
173 70 m 256
 208 70 232 100 232 130 c 0
 232 152 217 166 193 166 c 256
 162 166 135 140 135 107 c 0
 135 84 151 70 173 70 c 256
365 518 m 0
 365 474 333 429 298 423 c 1
 303 423 l 2
 392 423 502 492 561 590 c 1
 605 568 l 1
 509 415 383 379 300 379 c 0
 232 379 162 405 162 472 c 0
 162 538 224 593 284 593 c 256
 332 593 365 560 365 518 c 0
253 447 m 256
 288 447 312 477 312 507 c 0
 312 529 297 543 273 543 c 256
 242 543 215 517 215 484 c 0
 215 461 231 447 253 447 c 256
EndSplineSet
EndChar

StartChar: uni0E31
Encoding: 3633 3633 260
Width: 0
VWidth: 1494
Flags: W
HStem: 711 63<-130.064 9.08758> 711 46<-72.6813 74.2607> 864 46<-120.434 -44.0587>
VStem: -182 49<776.927 851.964> -42 49<785.438 861.753>
LayerCount: 2
Fore
SplineSet
7 838 m 0xb8
 7 801 -12 774 -32 759 c 1
 -25 758 -17 757 -9 757 c 0x78
 73 757 212 832 289 952 c 1
 328 930 l 1
 234 770 57 711 -50 711 c 0
 -160 711 -182 763 -182 799 c 0
 -182 860 -125 910 -69 910 c 256
 -22 910 7 879 7 838 c 0xb8
-97 774 m 256xb8
 -66 774 -42 800 -42 831 c 0
 -42 851 -55 864 -78 864 c 256
 -107 864 -133 839 -133 809 c 0
 -133 789 -119 774 -97 774 c 256xb8
EndSplineSet
Substitution2: "Single Substitution lookup 22 subtable" uni0E31.alt1
Substitution2: "Single Substitution lookup 22 subtable" uni0E31.alt1
EndChar

StartChar: uni0E32
Encoding: 3634 3634 261
Width: 521
VWidth: 1494
Flags: W
HStem: 0 21G<378 440.266> 504 20G<534.5 544.5> 556 54<278.195 440.934>
VStem: 122 55<406.72 512.816>
LayerCount: 2
Fore
SplineSet
529 436 m 2
 436 0 l 1
 378 0 l 1
 473 447 l 2
 476 460 481 470 488 478 c 1
 479 504 445 556 356 556 c 0
 259 556 204 477 177 392 c 1
 122 392 l 1
 157 518 249 610 368 610 c 0
 467 610 518 560 530 522 c 1
 531 523 533 524 536 524 c 0
 553 524 565 501 565 491 c 0
 565 474 537 474 529 436 c 2
EndSplineSet
EndChar

StartChar: uni0E33
Encoding: 3635 3635 262
Width: 521
VWidth: 1494
Flags: W
HStem: 0 21<378 440.266> 504 20<534.5 544.5> 556 54<278.195 440.934> 732 53<-22.6317 71.3209> 900 52<-7.84399 85.8618>
VStem: -83 53<792.742 877.489> 93 55<807.297 892.61> 122 55<406.72 512.816>
LayerCount: 2
Back
SplineSet
-91 803 m 0
 -85 833 -69 858.667 -43 880 c 128
 -17 901.333 10.6667 912 40 912 c 256
 70 912 93.5 901.333 110.5 880 c 128
 127.5 858.667 133 833 127 803 c 0
 124.333 787.667 118.5 773.333 109.5 760 c 128
 100.5 746.667 90 735 78 725 c 128
 66 715 53 707 39 701 c 128
 25 695 10.6667 692 -4 692 c 0
 -35.3333 692 -59.5 702.667 -76.5 724 c 128
 -93.5 745.333 -98.3333 771.667 -91 803 c 0
4 744 m 256
 20 744 34.8333 749.5 48.5 760.5 c 128
 62.1667 771.5 71 785.667 75 803 c 0
 77.6667 819 74.8333 832.5 66.5 843.5 c 128
 58.1667 854.5 46 860 30 860 c 256
 14 860 -0.666667 854.5 -14 843.5 c 128
 -27.3333 832.5 -35.6667 819 -39 803 c 0
 -43 785.667 -40.6667 771.5 -32 760.5 c 128
 -23.3333 749.5 -11.3333 744 4 744 c 256
436 0 m 1
 378 0 l 1
 472 447 l 2
 475 456 475 456 477.5 463.5 c 128
 479.167 468.5 482.333 473.333 487 478 c 1
 484.333 485.333 480 493.5 474 502.5 c 128
 468 511.5 459.667 520 449 528 c 128
 438.333 536 425.333 542.667 410 548 c 128
 394.667 553.333 376.667 556 356 556 c 0
 310 556 272.333 540.5 243 509.5 c 128
 213.667 478.5 191.333 439.333 176 392 c 1
 121 392 l 1
 130.333 422.667 142.333 451.167 157 477.5 c 128
 171.667 503.833 189.333 526.667 210 546 c 128
 230.667 565.333 254.167 580.833 280.5 592.5 c 128
 306.833 604.167 335.333 610 366 610 c 0
 391.333 610 413.333 607.167 432 601.5 c 128
 450.667 595.833 466.833 588.833 480.5 580.5 c 128
 494.167 572.167 505 562.833 513 552.5 c 128
 521 542.167 526.333 532 529 522 c 1
 531 524 534.833 524.5 540.5 523.5 c 128
 546.167 522.5 552 518 558 510 c 0
 564.667 498.667 566.333 490.5 563 485.5 c 128
 559.667 480.5 554 474.667 546 468 c 0
 538 462 532.333 451.333 529 436 c 2
 436 0 l 1
EndSplineSet
Fore
Refer: 261 3634 N 1 0 0 1 0 0 2
Refer: 284 3661 N 1 0 0 1 0 0 2
Substitution2: "Single Substitution lookup 22 subtable" uni0E33.alt1
Substitution2: "Single Substitution lookup 22 subtable" uni0E33.alt1
EndChar

StartChar: uni0E34
Encoding: 3636 3636 263
Width: 0
VWidth: 1494
Flags: MW
HStem: 694 38<-317.029 -51.9405> 821 49<-229.781 -61.3086>
LayerCount: 2
Fore
SplineSet
74 681 m 0
 74 651 43 642 43 642 c 1
 36 642 -62 694 -233 694 c 0
 -310 694 -403 680 -404 680 c 0
 -416 680 -424 698 -424 707 c 0
 -424 714 -415 710 -348 772 c 0
 -286 828 -208 870 -130 870 c 0
 5 870 74 742 74 681 c 0
25 688 m 1
 4 748 -49 821 -137 821 c 0
 -250 821 -294 761 -342 723 c 1
 -302 729 -258 732 -211 732 c 0
 -123 732 -57 721 25 688 c 1
EndSplineSet
Substitution2: "Single Substitution lookup 22 subtable" uni0E34.alt1
Substitution2: "Single Substitution lookup 22 subtable" uni0E34.alt1
EndChar

StartChar: uni0E35
Encoding: 3637 3637 264
Width: 0
VWidth: 1494
Flags: MW
HStem: 694 38<-317.029 -51.9405> 821 49<-232.31 -56.934>
LayerCount: 2
Fore
SplineSet
76 687 m 0
 76 652 44 642 43 642 c 0
 36 642 -62 694 -233 694 c 0
 -310 694 -403 680 -404 680 c 0
 -416 680 -424 698 -424 707 c 0
 -424 714 -415 710 -348 772 c 0
 -291 823 -214 870 -139 870 c 0
 -48 870 -9 833 3 821 c 1
 30 951 l 1
 85 951 l 1
 45 764 l 1
 63 730 l 2
 73 711 76 697 76 687 c 0
-342 723 m 1
 -302 729 -258 732 -211 732 c 0
 -123 732 -57 721 25 688 c 1
 12 723 -8 754 -34 781 c 0
 -60 808 -95 821 -139 821 c 0
 -248 821 -308 751 -342 723 c 1
EndSplineSet
Substitution2: "Single Substitution lookup 22 subtable" uni0E35.alt1
Substitution2: "Single Substitution lookup 22 subtable" uni0E35.alt1
EndChar

StartChar: uni0E36
Encoding: 3638 3638 265
Width: 0
VWidth: 1494
Flags: W
HStem: 694 38<-319.447 -92.4998> 821 49<-232.039 -78.8112> 906 36<1.79014 78.8097>
VStem: -46 34<849.14 891.844> 82 39<829.672 901.92>
LayerCount: 2
Fore
SplineSet
121 878 m 0
 121 840 93 792 30 782 c 1
 65 732 75 705 75 684 c 0
 75 650 43 642 43 642 c 1
 36 642 -62 694 -233 694 c 0
 -310 694 -403 680 -404 680 c 0
 -416 680 -424 698 -424 707 c 0
 -424 714 -415 710 -348 772 c 0
 -291 823 -214 870 -139 870 c 0
 -129 870 -75 868 -46 849 c 1
 -46 911 15 942 49 942 c 0
 96 942 121 913 121 878 c 0
-344 723 m 1
 -304 729 -259 732 -212 732 c 0
 -138 732 -70 727 25 688 c 1
 12 723 -8 754 -35 780 c 0
 -62 808 -96 821 -137 821 c 0
 -243 821 -287 768 -344 723 c 1
25 816 m 0
 59 816 82 849 82 871 c 0
 82 894 61 906 43 906 c 0
 13 906 -12 876 -12 851 c 0
 -12 831 6 816 25 816 c 0
EndSplineSet
Substitution2: "Single Substitution lookup 22 subtable" uni0E36.alt1
Substitution2: "Single Substitution lookup 22 subtable" uni0E36.alt1
EndChar

StartChar: uni0E37
Encoding: 3639 3639 266
Width: 0
VWidth: 1494
Flags: W
HStem: 694 38<-318.37 -51.2773> 821 49<-232.224 -58.7801>
LayerCount: 2
Fore
SplineSet
-139 870 m 1
 -139 870 -80 870 -51 857 c 1
 -31 951 l 1
 18 951 l 1
 -8 830 l 1
 10 814 24 797 36 779 c 1
 72 951 l 1
 121 951 l 1
 69 704 l 1
 73 695 74 686 74 679 c 0
 74 674 73 671 73 668 c 0
 71 657 47 642 43 642 c 0
 36 642 -62 694 -233 694 c 0
 -310 694 -403 680 -404 680 c 0
 -416 680 -424 698 -424 707 c 0
 -424 714 -415 710 -348 772 c 0
 -291 823 -214 870 -139 870 c 1
28 686 m 1
 6 747 -45 821 -137 821 c 0
 -248 821 -310 750 -342 723 c 1
 -304 729 -263 732 -218 732 c 0
 -129 732 -61 722 28 686 c 1
EndSplineSet
Substitution2: "Single Substitution lookup 22 subtable" uni0E37.alt1
Substitution2: "Single Substitution lookup 22 subtable" uni0E37.alt1
EndChar

StartChar: uni0E38
Encoding: 3640 3640 267
Width: 0
VWidth: 1494
Flags: W
HStem: -247 48<-254.185 -199.717> -109 49<-244.499 -168.992>
VStem: -309 51<-195.352 -121.501> -167 51<-170.258 -111.842>
LayerCount: 2
Fore
SplineSet
-309 -173 m 0
 -309 -121 -259 -60 -192 -60 c 256
 -149 -60 -116 -90 -116 -134 c 0
 -116 -140 -116 -147 -118 -154 c 2
 -163 -365 l 1
 -222 -365 l 1
 -195 -241 l 1
 -207 -245 -219 -247 -232 -247 c 0
 -271 -247 -309 -220 -309 -173 c 0
-202 -109 m 0
 -233 -109 -258 -137 -258 -162 c 0
 -258 -182 -242 -199 -219 -199 c 0
 -193 -199 -167 -173 -167 -144 c 0
 -167 -124 -179 -109 -202 -109 c 0
EndSplineSet
Substitution2: "Single Substitution lookup 21 subtable" a
Substitution2: "Single Substitution lookup 22 subtable" uni0E38.alt1
Substitution2: "Single Substitution lookup 21 subtable" a
Substitution2: "Single Substitution lookup 22 subtable" uni0E38.alt1
EndChar

StartChar: uni0E39
Encoding: 3641 3641 268
Width: 0
VWidth: 1494
Flags: W
HStem: -354 58<-295 -207> -248 49<-394.713 -340.364> -108 50<-385.602 -307.816>
VStem: -448 50<-195.632 -121.987> -306 52<-168.869 -110.703>
LayerCount: 2
Fore
SplineSet
-448 -174 m 0
 -448 -108 -387 -58 -332 -58 c 0
 -291 -58 -254 -88 -254 -133 c 0
 -254 -139 -255 -145 -256 -152 c 2
 -278 -253 l 2
 -282 -272 -288 -286 -295 -296 c 1
 -207 -296 l 1
 -157 -61 l 1
 -98 -61 l 1
 -149 -299 l 2
 -156 -332 -185 -354 -216 -354 c 2
 -340 -354 l 1
 -347 -358 -356 -366 -366 -366 c 0
 -376 -366 -391 -349 -391 -336 c 0
 -391 -315 -349 -313 -341 -274 c 2
 -334 -241 l 1
 -348 -246 -361 -248 -373 -248 c 0
 -417 -248 -448 -217 -448 -174 c 0
-343 -108 m 0
 -368 -108 -398 -132 -398 -162 c 0
 -398 -181 -385 -199 -362 -199 c 256
 -328 -199 -306 -168 -306 -142 c 0
 -306 -122 -319 -108 -343 -108 c 0
EndSplineSet
Substitution2: "Single Substitution lookup 21 subtable" b
Substitution2: "Single Substitution lookup 22 subtable" uni0E39.alt1
Substitution2: "Single Substitution lookup 21 subtable" b
Substitution2: "Single Substitution lookup 22 subtable" uni0E39.alt1
EndChar

StartChar: uni0E3A
Encoding: 3642 3642 269
Width: 0
VWidth: 1494
Flags: W
HStem: -203 110<-198.389 -122.118>
VStem: -217 114<-184.152 -110.968>
LayerCount: 2
Fore
SplineSet
-103 -138 m 0
 -103 -165 -128 -203 -172 -203 c 0
 -208 -203 -217 -180 -217 -161 c 0
 -217 -131 -194 -93 -149 -93 c 0
 -112 -93 -103 -119 -103 -138 c 0
EndSplineSet
Substitution2: "Single Substitution lookup 21 subtable" c
Substitution2: "Single Substitution lookup 22 subtable" uni0E3A.alt1
Substitution2: "Single Substitution lookup 21 subtable" c
Substitution2: "Single Substitution lookup 22 subtable" uni0E3A.alt1
EndChar

StartChar: uni0E3F
Encoding: 3647 3647 270
Width: 550
VWidth: 1494
Flags: W
HStem: 1 57<130 224 286 397.207> 341 55<202 296> 650 60<256 362 425 486.286>
VStem: 483 58<177.433 298.133> 513 58<485.284 625.767>
LayerCount: 2
Fore
SplineSet
359 399 m 1xe8
 419 407 513 454 513 571 c 0
 513 625 479 647 412 650 c 1
 359 399 l 1xe8
202 396 m 1
 308 396 l 1
 362 650 l 1
 256 650 l 1
 202 396 l 1
236 58 m 1
 296 341 l 1
 190 341 l 1
 130 58 l 1
 236 58 l 1
479 203 m 0
 481 214 483 225 483 236 c 0xf0
 483 284 456 335 346 341 c 1
 286 58 l 1
 377 58 453 81 479 203 c 0
541 241 m 0
 541 181 494 1 306 1 c 2
 274 1 l 1
 258 -75 l 1
 208 -75 l 1
 224 1 l 1
 61 1 l 1
 199 650 l 1
 199 652 200 654 200 656 c 0
 200 672 185 674 185 688 c 0
 185 701 205 722 228 722 c 0
 236 722 243 718 248 710 c 1
 375 710 l 1
 391 786 l 1
 441 786 l 1
 425 710 l 1
 543 706 571 633 571 575 c 0xe8
 571 474 491 386 412 375 c 1
 479 368 541 321 541 241 c 0
EndSplineSet
EndChar

StartChar: uni0E40
Encoding: 3648 3648 271
Width: 312
VWidth: 1494
Flags: W
HStem: -7 50<176.671 258.334> 141 49<209.576 269.509> 578 20G<225.745 290>
VStem: 120 53<48.0375 97.45> 273 51<57.8636 136.938>
LayerCount: 2
Fore
SplineSet
324 112 m 0
 324 47 263 -7 204 -7 c 0
 153 -7 120 28 120 75 c 0
 120 81 l 1
 230 598 l 1
 290 598 l 1
 201 181 l 1
 215 187 229 190 245 190 c 0
 291 190 324 158 324 112 c 0
235 141 m 0
 198 141 173 108 173 80 c 0
 173 57 190 43 214 43 c 0
 241 43 273 67 273 103 c 0
 273 126 256 141 235 141 c 0
EndSplineSet
EndChar

StartChar: uni0E41
Encoding: 3649 3649 272
Width: 575
VWidth: 1494
Flags: W
HStem: -7 50<176.671 258.334 440.163 521.45> 141 49<209.576 269.509 472.534 532.183> 578 20G<225.745 290 488.745 553>
VStem: 120 53<48.0375 97.45> 273 51<57.8636 136.938> 383 54<48.0375 97.45> 536 52<58.2576 137.577>
LayerCount: 2
Fore
SplineSet
324 112 m 0
 324 47 263 -7 204 -7 c 0
 153 -7 120 28 120 75 c 0
 120 81 l 1
 230 598 l 1
 290 598 l 1
 201 181 l 1
 215 187 229 190 245 190 c 0
 291 190 324 158 324 112 c 0
235 141 m 0
 198 141 173 108 173 80 c 0
 173 57 190 43 214 43 c 0
 241 43 273 67 273 103 c 0
 273 126 256 141 235 141 c 0
588 113 m 0
 588 48 526 -7 467 -7 c 0
 416 -7 383 28 383 75 c 0
 383 81 l 1
 493 598 l 1
 553 598 l 1
 464 181 l 1
 478 187 492 190 508 190 c 0
 552 190 588 160 588 113 c 0
498 141 m 0
 463 141 437 110 437 80 c 0
 437 57 454 43 477 43 c 0
 504 43 536 67 536 103 c 0
 536 126 519 141 498 141 c 0
EndSplineSet
EndChar

StartChar: uni0E42
Encoding: 3650 3650 273
Width: 378
VWidth: 1494
Flags: W
HStem: -9 49<242.552 320.474> 136 49<275.576 331.578> 897 40<232 293.927> 1058 53<357.461 527.684>
VStem: 188 51<43.5268 101.568> 335 51<54.6771 132.102> 605 52<944.676 1025.6>
LayerCount: 2
Fore
SplineSet
297 136 m 0
 265 136 239 106 239 77 c 0
 239 54 255 40 277 40 c 0
 312 40 335 71 335 99 c 0
 335 121 319 136 297 136 c 0
232 937 m 1
 368 937 418 832 418 824 c 0
 418 810 406 796 398 789 c 1
 267 176 l 1
 281 182 294 185 307 185 c 0
 352 185 386 155 386 109 c 0
 386 44 325 -9 266 -9 c 0
 219 -9 188 23 188 68 c 0
 188 73 188 77 189 82 c 2
 348 828 l 1
 309 878 263 897 197 897 c 0
 189 897 180 882 166 882 c 0
 154 882 143 896 143 906 c 0
 143 916 156 923 181 954 c 0
 198 974 306 1111 444 1111 c 0
 591 1111 637 1027 657 960 c 1
 605 933 l 1
 593 975 562 1058 436 1058 c 0
 353 1058 255 973 232 937 c 1
EndSplineSet
EndChar

StartChar: uni0E43
Encoding: 3651 3651 274
Width: 378
VWidth: 1494
Flags: W
HStem: -7 49<241.764 322.649> 138 49<275.818 332.782> 786 56<265.031 354.734> 928 58<309.141 368.965> 1058 53<325.781 489.794>
VStem: 176 55<859.594 972.465> 189 50<44.8779 107.108> 337 50<57.3298 133.821> 370 55<856.901 921.433> 537 61<890.817 1007.49>
LayerCount: 2
Fore
SplineSet
176 891 m 0xfcc0
 176 1005 283 1111 427 1111 c 0
 541 1111 598 1048 598 944 c 0
 598 921 595 895 589 867 c 0
 576 805 565 848 419 727 c 0
 403 714 388 702 377 691 c 1
 268 178 l 1
 281 184 295 187 309 187 c 0
 357 187 387 153 387 111 c 0
 387 53 334 -7 268 -7 c 256
 223 -7 189 23 189 69 c 0xfb40
 189 76 189 83 191 90 c 2
 315 673 l 1
 308 675 306 684 309 694 c 0
 311 706 315 713 382 764 c 0
 409 784 518 862 531 868 c 1
 535 888 537 907 537 924 c 0
 537 1003 496 1058 419 1058 c 0
 295 1058 231 967 231 906 c 0
 231 852 285 842 303 842 c 0
 346 842 370 872 370 898 c 0
 370 912 365 928 344 928 c 0
 326 928 326 919 316 919 c 0
 306 919 289 944 289 951 c 0
 289 958 327 986 362 986 c 0
 398 986 425 958 425 916 c 0
 425 858 373 786 286 786 c 0
 244 786 176 808 176 891 c 0xfcc0
278 42 m 0
 306 42 337 67 337 100 c 0
 337 122 319 138 298 138 c 0
 264 138 239 109 239 78 c 0
 239 56 254 42 278 42 c 0
EndSplineSet
EndChar

StartChar: uni0E44
Encoding: 3652 3652 275
Width: 378
VWidth: 1494
Flags: W
HStem: -7 50<241.657 322.353> 139 49<274.309 333.743>
VStem: 187 52<46.5946 107.329> 337 50<57.2341 136.141>
LayerCount: 2
Fore
SplineSet
278 43 m 256
 313 43 337 73 337 103 c 0
 337 123 324 139 299 139 c 256
 267 139 239 111 239 79 c 0
 239 57 254 43 278 43 c 256
387 112 m 0
 387 46 328 -7 268 -7 c 256
 223 -7 187 23 187 70 c 0
 187 77 188 84 189 91 c 2
 309 656 l 1
 302 662 298 670 300 679 c 0
 310 724 437 860 560 912 c 1
 558 932 527 985 509 997 c 1
 465 978 l 2
 349 930 323 847 299 847 c 0
 283 847 274 851 274 861 c 0
 274 864 274 867 276 871 c 1
 267 922 238 990 113 1027 c 1
 160 1067 l 1
 227 1037 291 998 314 927 c 1
 416 1033 527 1055 527 1055 c 1
 561 1055 625 927 625 893 c 0
 625 863 582 861 573 860 c 1
 500 831 416 758 381 710 c 1
 268 181 l 1
 283 186 296 188 309 188 c 0
 354 188 387 158 387 112 c 0
EndSplineSet
EndChar

StartChar: uni0E45
Encoding: 3653 3653 276
Width: 521
VWidth: 1494
Flags: W
HStem: 504 20G<534.5 544.5> 556 54<278.195 440.934>
VStem: 122 55<406.72 512.816>
LayerCount: 2
Fore
SplineSet
529 436 m 2
 359 -363 l 1
 301 -363 l 1
 473 447 l 2
 476 460 481 470 488 478 c 1
 479 504 445 556 356 556 c 0
 259 556 204 477 177 392 c 1
 122 392 l 1
 157 518 249 610 368 610 c 0
 467 610 518 560 530 522 c 1
 531 523 533 524 536 524 c 0
 553 524 565 501 565 491 c 0
 565 474 537 474 529 436 c 2
EndSplineSet
EndChar

StartChar: uni0E46
Encoding: 3654 3654 277
Width: 591
VWidth: 1494
Flags: W
HStem: 302 49<208.173 287.694> 448 51<234.646 300.655> 548 52<263.205 379.259>
VStem: 144 60<354.959 433.427> 303 52<366.492 444.667>
LayerCount: 2
Fore
SplineSet
244 351 m 256
 280 351 303 384 303 413 c 0
 303 434 289 448 264 448 c 256
 235 448 204 426 204 390 c 0
 204 367 219 351 244 351 c 256
144 402 m 0
 144 494 228 600 343 600 c 0
 369 600 424 595 450 534 c 1
 479 556 524 602 549 602 c 0
 571 602 609 550 619 528 c 1
 622 528 l 0
 640 528 650 503 650 495 c 0
 650 471 555 445 527 317 c 2
 402 -274 l 2
 386 -346 315 -367 308 -367 c 0
 297 -367 287 -347 287 -338 c 0
 287 -318 335 -316 344 -274 c 2
 472 329 l 2
 482 377 531 450 571 483 c 0
 572 484 572 486 572 487 c 0
 572 497 562 525 536 544 c 1
 522 535 493 515 470 492 c 1
 471 485 471 479 470 475 c 0
 467 459 434 449 425 449 c 0
 406 449 405 548 328 548 c 0
 287 548 237 517 219 481 c 1
 235 495 265 499 275 499 c 0
 324 499 355 464 355 421 c 0
 355 356 292 302 233 302 c 0
 171 302 144 349 144 402 c 0
EndSplineSet
EndChar

StartChar: uni0E47
Encoding: 3655 3655 278
Width: 0
VWidth: 1494
Flags: MW
HStem: 684 53<-81.0121 3.66278> 795 43<-49.6156 0.889069> 888 46<-216.837 -103.677 -103.677 32.5177>
VStem: -300 45<744.559 851.517> -98 45<739.359 791.941> 7 44<741.04 794.661>
LayerCount: 2
Fore
SplineSet
51 777 m 0
 51 733 6 684 -65 684 c 0
 -118 684 -165 697 -178 767 c 1
 -194 754 -215 730 -227 704 c 1
 -230 690 -252 687 -257 687 c 0
 -270 687 -300 720 -300 775 c 0
 -300 841 -265 934 -128 934 c 0
 -99 934 -95 933 -80 933 c 0
 5 933 100 964 148 1069 c 1
 155 1069 187 1058 191 1057 c 1
 116 898 -18 888 -104 888 c 0
 -190 888 -255 882 -255 770 c 0
 -255 759 -253 748 -249 741 c 1
 -237 761 -210 798 -177 813 c 1
 -167 821 -176 832 -150 832 c 0
 -129 832 -134 823 -133 812 c 0
 -126 750 -107 736 -92 728 c 1
 -96 735 -98 743 -98 751 c 0
 -98 790 -58 838 -9 838 c 0
 30 838 51 809 51 777 c 0
-30 737 m 0
 -16 737 7 746 7 772 c 0
 7 790 -9 795 -18 795 c 0
 -34 795 -53 781 -53 758 c 0
 -53 742 -40 737 -30 737 c 0
EndSplineSet
Substitution2: "Single Substitution lookup 22 subtable" uni0E47.alt1
Substitution2: "Single Substitution lookup 22 subtable" uni0E47.alt1
EndChar

StartChar: uni0E48
Encoding: 3656 3656 279
Width: 0
VWidth: 1494
Flags: MW
LayerCount: 2
Fore
SplineSet
146 1236 m 1
 99 1016 l 1
 44 1016 l 1
 91 1236 l 1
 146 1236 l 1
EndSplineSet
Substitution2: "Single Substitution lookup 22 subtable" uni0E48.alt2
Substitution2: "Single Substitution lookup 22 subtable" uni0E48.alt2
EndChar

StartChar: uni0E49
Encoding: 3657 3657 280
Width: 0
VWidth: 1494
Flags: W
HStem: 991 40<-11.0146 6.3385 6.3385 17> 1085 40<27.5216 72.927> 1202 42<35.719 102.165>
VStem: -17 44<1125.82 1193.27> 104 50<1133.56 1193.23>
LayerCount: 2
Fore
SplineSet
-17 1145 m 0
 -17 1188 23 1244 84 1244 c 0
 135 1244 154 1207 154 1170 c 0
 154 1127 130 1072 76 1034 c 1
 147 1046 248 1099 312 1239 c 1
 355 1226 l 1
 325 1167 292 1122 255 1089 c 0
 151 997 69 991 5 991 c 0
 -22 991 -27 998 -27 1004 c 0
 -27 1012 -11 1031 -4 1031 c 0
 2 1031 4 1030 17 1030 c 1
 47 1043 59 1055 83 1091 c 1
 71 1087 60 1085 49 1085 c 0
 12 1085 -17 1109 -17 1145 c 0
70 1202 m 0
 41 1198 27 1172 27 1152 c 0
 27 1137 36 1125 55 1125 c 0
 67 1125 104 1134 104 1170 c 0
 104 1185 97 1202 70 1202 c 0
EndSplineSet
Substitution2: "Single Substitution lookup 22 subtable" uni0E49.alt2
Substitution2: "Single Substitution lookup 22 subtable" uni0E49.alt2
EndChar

StartChar: uni0E4A
Encoding: 3658 3658 281
Width: 0
VWidth: 1494
Flags: W
HStem: 1007 32<-63.7567 -16.9128> 1095 37<-67.1875 -18.8836> 1183 42<-32.6471 50.3522 101.141 154.771>
VStem: -118 48<1039.02 1124.65> -13 40<1042.46 1094.35> 165 44<1083.81 1178.39>
LayerCount: 2
Fore
SplineSet
-118 1082 m 0
 -118 1156 -56 1225 12 1225 c 0
 45 1225 70 1211 80 1187 c 1
 90 1198 112 1225 148 1225 c 0
 171 1225 209 1207 209 1157 c 0
 209 1115 183 1073 166 1052 c 1
 229 1076 277 1119 299 1225 c 2
 303 1242 l 1
 328 1247 343 1254 348 1254 c 1
 345 1243 l 2
 335 1196 313 1086 206 1034 c 0
 171 1018 126 1006 118 1006 c 0
 108 1006 105 1025 106 1030 c 0
 107 1033 110 1035 118 1039 c 1
 142 1058 165 1106 165 1143 c 0
 165 1173 147 1180 133 1180 c 0
 116 1180 102 1168 97 1152 c 1
 98 1135 98 1125 100 1108 c 1
 63 1108 l 1
 61 1147 54 1183 3 1183 c 0
 -13 1183 -63 1174 -77 1105 c 1
 -67 1119 -44 1132 -22 1132 c 0
 9 1132 27 1113 27 1085 c 0
 27 1037 -17 1007 -56 1007 c 0
 -102 1007 -118 1045 -118 1082 c 0
-48 1039 m 0
 -34 1039 -13 1053 -13 1075 c 0
 -13 1091 -32 1095 -37 1095 c 0
 -53 1095 -70 1078 -70 1061 c 0
 -70 1047 -58 1039 -48 1039 c 0
EndSplineSet
Substitution2: "Single Substitution lookup 22 subtable" uni0E4A.alt2
Substitution2: "Single Substitution lookup 22 subtable" uni0E4A.alt2
EndChar

StartChar: uni0E4B
Encoding: 3659 3659 282
Width: 0
VWidth: 1494
Flags: MW
HStem: 1105 52<-28 65 128 222 -39 233 -28 -28>
LayerCount: 2
Fore
SplineSet
117 1105 m 1
 98 1015 l 1
 46 1015 l 1
 65 1105 l 1
 -39 1105 l 1
 -28 1157 l 1
 76 1157 l 1
 95 1245 l 1
 147 1245 l 1
 128 1157 l 1
 233 1157 l 1
 222 1105 l 1
 117 1105 l 1
EndSplineSet
Substitution2: "Single Substitution lookup 22 subtable" uni0E4B.alt2
Substitution2: "Single Substitution lookup 22 subtable" uni0E4B.alt2
EndChar

StartChar: uni0E4C
Encoding: 3660 3660 283
Width: 0
VWidth: 1494
Flags: W
HStem: 898 44<-49.5981 28.8313>
VStem: -97 45<944.554 1018.05> 41 46<955.445 1028.4>
LayerCount: 2
Fore
SplineSet
87 1000 m 0
 87 954 42 898 -23 898 c 0
 -62 898 -97 921 -97 969 c 0
 -97 1048 -26 1087 38 1100 c 0
 171 1127 195 1153 210 1191 c 1
 252 1172 l 1
 217 1093 134 1075 50 1058 c 1
 73 1050 87 1025 87 1000 c 0
6 1031 m 0
 -18 1031 -52 1012 -52 977 c 0
 -52 952 -33 942 -17 942 c 0
 18 942 41 971 41 995 c 0
 41 1015 26 1031 6 1031 c 0
EndSplineSet
Substitution2: "Single Substitution lookup 22 subtable" uni0E4C.alt2
Substitution2: "Single Substitution lookup 22 subtable" uni0E4C.alt2
EndChar

StartChar: uni0E4D
Encoding: 3661 3661 284
Width: 0
VWidth: 1494
Flags: W
HStem: 732 53<-22.6317 71.3209> 900 52<-7.84399 85.8618>
VStem: -83 53<792.742 877.489> 93 55<807.297 892.61>
LayerCount: 2
Fore
SplineSet
148 865 m 0
 148 794 76 732 10 732 c 0
 -46 732 -83 770 -83 820 c 0
 -83 892 -13 952 56 952 c 0
 106 952 148 917 148 865 c 0
45 900 m 0
 12 900 -30 874 -30 831 c 0
 -30 803 -9 785 21 785 c 0
 56 785 93 815 93 855 c 0
 93 882 71 900 45 900 c 0
EndSplineSet
Substitution2: "Single Substitution lookup 22 subtable" uni0E4D.alt1
Substitution2: "Single Substitution lookup 22 subtable" uni0E4D.alt1
EndChar

StartChar: uni0E4E
Encoding: 3662 3662 285
Width: 0
VWidth: 1494
Flags: W
HStem: 659 35<-99.4671 -34.7643 -42.1505 -27.3782 -27.3782 -20> 981 13<74.1693 120 120 132>
VStem: -166 62<701.561 775.453> -45 54<864.717 929.736>
LayerCount: 2
Fore
SplineSet
-45 883 m 0
 -45 914 -21 994 120 994 c 0
 132 994 l 1
 158 981 l 1
 95 979 9 941 9 880 c 0
 9 867 16 849 47 842 c 1
 32 818 l 1
 -89 807 -104 748 -104 730 c 0
 -104 706 -77 694 -37 694 c 0
 -22 694 -10 694 -1 695 c 1
 -20 664 l 1
 -44 661 -64 659 -81 659 c 0
 -138 659 -166 678 -166 717 c 0
 -166 741 -149 823 -22 837 c 1
 -37 850 -45 865 -45 883 c 0
EndSplineSet
Substitution2: "Single Substitution lookup 22 subtable" uni0E4E.alt1
Substitution2: "Single Substitution lookup 22 subtable" uni0E4E.alt1
EndChar

StartChar: uni0E4F
Encoding: 3663 3663 286
Width: 674
VWidth: 1494
Flags: W
HStem: -4 50<260.774 439.717> 99 53<313.486 433.772> 344 52<344.502 464.922> 448 53<338.702 516.634>
VStem: 131 53<123.21 295.949> 237 55<172.496 290.561> 487 53<203.164 322.509> 595 52<200.231 373.751>
LayerCount: 2
Fore
SplineSet
409 344 m 256
 345 344 292 286 292 226 c 0
 292 183 323 152 368 152 c 256
 429 152 487 205 487 267 c 0
 487 309 459 344 409 344 c 256
237 216 m 0
 237 304 320 396 420 396 c 256
 494 396 540 345 540 279 c 0
 540 193 459 99 357 99 c 256
 286 99 237 149 237 216 c 0
431 448 m 0
 304 448 184 334 184 204 c 0
 184 110 253 46 346 46 c 0
 473 46 595 162 595 291 c 0
 595 380 532 448 431 448 c 0
131 194 m 0
 131 352 279 501 442 501 c 0
 564 501 647 413 647 299 c 0
 647 150 504 -4 335 -4 c 256
 213 -4 131 80 131 194 c 0
EndSplineSet
EndChar

StartChar: uni0E50
Encoding: 3664 3664 287
Width: 696
VWidth: 1494
Flags: W
HStem: -10 47<263.548 459.227> 380 48<327.284 521.5>
VStem: 131 51<108.254 255.811> 602 51<162.433 307.932>
LayerCount: 2
Fore
SplineSet
653 249 m 0
 653 94 482 -10 346 -10 c 0
 228 -10 131 63 131 169 c 0
 131 305 283 428 439 428 c 0
 541 428 653 365 653 249 c 0
356 37 m 0
 487 37 602 136 602 238 c 0
 602 320 526 380 429 380 c 256
 310 380 182 290 182 177 c 0
 182 87 273 37 356 37 c 0
EndSplineSet
EndChar

StartChar: uni0E51
Encoding: 3665 3665 288
Width: 730
VWidth: 1494
Flags: W
HStem: -2 47<230.915 307.963> 176 51<334.724 417.273> 365 57<340.832 536.304>
VStem: 134 62<79.9082 234.239> 267 53<82.2286 160.753> 421 51<93.6112 172.347> 614 60<154.711 292.482>
LayerCount: 2
Fore
SplineSet
134 141 m 0
 134 271 261 422 459 422 c 0
 581 422 674 345 674 225 c 0
 674 208 672 190 668 172 c 0
 646 72 579 -14 424 -79 c 1
 409 -31 l 1
 549 25 614 115 614 212 c 0
 614 299 550 365 447 365 c 0
 304 365 196 263 196 147 c 0
 196 71 255 45 287 45 c 0
 295 45 302 46 309 48 c 1
 279 53 267 84 267 110 c 0
 267 169 328 227 392 227 c 256
 451 227 472 184 472 145 c 0
 472 64 371 -2 282 -2 c 0
 190 -2 134 58 134 141 c 0
361 78 m 256
 397 78 421 111 421 138 c 0
 421 161 404 176 381 176 c 256
 350 176 320 150 320 116 c 0
 320 93 337 78 361 78 c 256
EndSplineSet
EndChar

StartChar: uni0E52
Encoding: 3666 3666 289
Width: 742
VWidth: 1494
Flags: W
HStem: 0 57<169 619.829> 96 48<303.436 382.713> 238 49<314.304 392.929> 363 56<352.789 457.038 567.589 659.836>
VStem: 161 57<262.827 575.658> 240 60<146.843 258.554> 396 49<157.925 234.656> 491 52<233 247.892 247.892 250.023 248.957 310.561 284.638 336.484>
LayerCount: 2
Fore
SplineSet
240 200 m 0
 240 296 314 419 427 419 c 0
 444 419 507 412 527 363 c 1
 546 398 594 421 637 421 c 0
 674 421 707 401 719 369 c 1
 722 371 725 372 729 372 c 0
 744 372 752 351 752 342 c 0
 752 324 730 334 721 294 c 2
 678 88 l 2
 666 35 621 0 564 0 c 2
 94 0 l 2
 86 0 84 2 84 9 c 0
 84 13 85 20 87 30 c 0
 92 52 97 53 115 58 c 1
 127 112 l 2
 147 204 161 309 161 405 c 0
 161 486 151 560 125 614 c 1
 176 652 l 1
 208 587 218 503 218 420 c 0
 218 366 213 234 169 57 c 1
 576 57 l 2
 603 57 619 68 624 90 c 2
 669 302 l 2
 672 314 675 322 681 327 c 1
 668 361 638 363 618 363 c 0
 565 363 546 310 542 293 c 1
 542 291 543 284 543 276 c 0
 543 264 542 247 539 233 c 1
 488 233 l 1
 490 245 491 256 491 267 c 0
 491 320 469 363 408 363 c 0
 375 363 320 339 301 251 c 1
 316 272 345 287 367 287 c 0
 417 287 445 252 445 210 c 0
 445 158 397 96 326 96 c 256
 264 96 240 145 240 200 c 0
337 144 m 0
 368 144 396 169 396 201 c 0
 396 222 382 238 357 238 c 0
 326 238 300 209 300 180 c 0
 300 158 315 144 337 144 c 0
EndSplineSet
EndChar

StartChar: uni0E53
Encoding: 3667 3667 290
Width: 768
VWidth: 1494
Flags: W
HStem: -9 51<213.791 294.946> 141 52<225.435 306.25> 360 60<270.24 410.65 572.17 694.322>
VStem: 116 54<97.3308 237.307> 310 54<56.3518 136.968>
LayerCount: 2
Fore
SplineSet
250 42 m 256
 283 42 310 70 310 103 c 0
 310 125 296 141 271 141 c 256
 234 141 209 108 209 80 c 0
 209 57 226 42 250 42 c 256
116 141 m 0
 116 299 229 420 358 420 c 0
 394 420 463 408 494 324 c 1
 527 395 598 416 642 416 c 0
 684 416 720 401 742 369 c 1
 745 371 748 372 752 372 c 0
 766 372 774 351 774 342 c 0
 774 323 753 336 744 294 c 2
 682 0 l 1
 628 0 l 1
 692 302 l 2
 695 315 699 324 704 329 c 1
 690 345 671 361 637 361 c 0
 595 361 526 327 506 235 c 2
 461 24 l 2
 460 19 456 16 450 16 c 0
 408 16 l 0
 402 16 400 19 401 24 c 2
 446 235 l 1
 446 240 447 244 447 249 c 0
 447 310 414 360 348 360 c 0
 206 360 170 197 170 126 c 0
 170 116 171 106 172 96 c 1
 184 151 226 193 282 193 c 0
 330 193 364 163 364 115 c 0
 364 48 305 -9 239 -9 c 0
 149 -9 116 63 116 141 c 0
EndSplineSet
EndChar

StartChar: uni0E54
Encoding: 3668 3668 291
Width: 745
VWidth: 1494
Flags: MW
HStem: 0 54<234 421 476.126 638> 115 43<432 467.15> 257 52<400.266 480.134> 363 56<367 380> 585 20G<833.5 929>
VStem: 141 59<87.8289 294.337> 332 52<161.759 241.65> 484 55<173.776 253.491>
LayerCount: 2
Fore
SplineSet
539 231 m 0
 539 175 487 115 432 115 c 1
 452 96 l 2
 460 88 498 54 523 54 c 2
 649 54 l 1
 638 0 l 1
 182 0 l 2
 159 0 159 37 159 37 c 1
 161 45 172 50 174 51 c 1
 168 67 141 140 141 211 c 0
 141 336 238 413 380 419 c 0
 573 419 789 452 878 605 c 1
 929 587 l 1
 790 349 408 369 367 363 c 0
 231 348 200 287 200 207 c 0
 200 141 225 76 234 54 c 1
 421 54 l 1
 381 81 332 133 332 187 c 0
 332 240 385 309 456 309 c 0
 504 309 539 277 539 231 c 0
424 158 m 256
 459 158 484 189 484 219 c 0
 484 242 468 257 445 257 c 256
 410 257 384 226 384 197 c 0
 384 174 399 158 424 158 c 256
EndSplineSet
EndChar

StartChar: uni0E55
Encoding: 3669 3669 292
Width: 745
VWidth: 1494
Flags: MW
HStem: 0 54<234 421 476.126 638> 115 43<432 467.15> 257 52<400.266 480.134> 513 57<485.434 559.794> 585 20G<849 929>
VStem: 141 59<87.8289 292.362> 332 52<161.759 241.65> 367 13<363 419> 415 59<433.044 501.698> 484 55<173.776 253.491> 563 57<453.24 510.349>
LayerCount: 2
Fore
SplineSet
415 455 m 0
 415 509 472 570 540 570 c 0
 587 570 620 537 620 492 c 0
 620 475 614 455 604 438 c 1
 722 464 820 508 878 605 c 1
 929 587 l 1
 790 349 408 369 367 363 c 0
 231 348 200 287 200 207 c 0
 200 141 225 76 234 54 c 1
 421 54 l 1
 381 81 332 133 332 187 c 0
 332 240 385 309 456 309 c 0
 504 309 539 277 539 231 c 0
 539 175 487 115 432 115 c 1
 452 96 l 2
 460 88 498 54 523 54 c 2
 649 54 l 1
 638 0 l 1
 182 0 l 2
 159 0 159 37 159 37 c 1
 161 45 172 50 174 51 c 1
 168 67 141 140 141 211 c 0
 141 336 242 419 380 419 c 2
 427 419 l 1
 419 431 415 442 415 455 c 0
510 426 m 0
 540 426 563 455 563 478 c 0
 563 499 548 513 527 513 c 0
 498 513 474 490 474 460 c 0
 474 439 489 426 510 426 c 0
424 158 m 256
 459 158 484 189 484 219 c 0
 484 242 468 257 445 257 c 256
 410 257 384 226 384 197 c 0
 384 174 399 158 424 158 c 256
EndSplineSet
EndChar

StartChar: uni0E56
Encoding: 3670 3670 293
Width: 665
VWidth: 1494
Flags: W
HStem: -9 52<296 304.5 256.869 410.005> 158 51<204.13 285.866> 382 54<313.798 514.834>
VStem: 135 53<65.0553 141.729> 289 53<75.7207 154.567> 568 61<183.949 332.413>
LayerCount: 2
Fore
SplineSet
313 42 m 0
 438 42 568 150 568 260 c 0
 568 313 540 382 427 382 c 0
 350 382 261 347 206 300 c 0
 200 295 194 292 188 292 c 0
 174 292 158 306 158 316 c 0
 158 321 160 324 171 338 c 1
 102 422 37 555 37 607 c 0
 37 610 37 613 38 616 c 1
 99 620 l 1
 96 580 136 501 188 425 c 2
 224 375 l 1
 293 423 375 436 433 436 c 0
 588 436 629 347 629 273 c 0
 629 136 483 -9 290 -9 c 0
 225 -9 135 11 135 86 c 0
 135 152 195 209 259 209 c 0
 311 209 342 175 342 131 c 0
 342 92 319 56 296 43 c 1
 302 43 307 42 313 42 c 0
228 60 m 256
 259 60 289 87 289 120 c 0
 289 143 273 158 249 158 c 256
 215 158 188 128 188 98 c 0
 188 75 205 60 228 60 c 256
EndSplineSet
EndChar

StartChar: uni0E57
Encoding: 3671 3671 294
Width: 899
VWidth: 1494
Flags: W
HStem: -4 50<198.709 281.16> 145 52<209.712 293.456> 363 60<266.112 401.432 557.062 661.496>
VStem: 111 61<107.641 257.15> 111 83<51.5876 193.304> 297 52<61.8203 141.315> 689 55<237.683 335.472>
LayerCount: 2
Fore
SplineSet
111 141 m 0xf6
 111 312 234 423 356 423 c 0
 442 423 471 349 479 326 c 1
 502 362 551 420 630 420 c 0
 712 420 744 358 744 287 c 0
 744 264 738 214 720 173 c 1
 842 316 988 586 1006 634 c 1
 1052 617 l 1
 975 453 757 114 621 -3 c 0
 617 -7 611 -9 607 -9 c 0
 596 -9 577 5 577 17 c 0
 577 29 650 63 683 212 c 0
 686 229 689 247 689 264 c 0
 689 313 671 359 608 359 c 0
 535 359 501 280 494 251 c 2
 450 43 l 2
 449 39 444 37 419 37 c 258
 398 37 l 2
 392 37 389 39 390 43 c 2
 434 248 l 1
 434 253 435 258 435 262 c 0
 435 333 385 363 342 363 c 0
 234 363 172 248 172 169 c 0
 172 163 172 157 173 151 c 1
 184 163 217 197 268 197 c 0
 315 197 349 165 349 119 c 0
 349 55 291 -4 225 -4 c 0
 141 -4 111 64 111 141 c 0xf6
236 46 m 256
 272 46 297 78 297 108 c 0
 297 130 280 145 257 145 c 256
 222 145 194 115 194 86 c 0xee
 194 64 210 46 236 46 c 256
EndSplineSet
EndChar

StartChar: uni0E58
Encoding: 3672 3672 295
Width: 793
VWidth: 1494
Flags: MW
HStem: 0 54<223 277 522.113 649.957> 158 53<588.084 669.116> 359 60<366 377>
VStem: 141 54<150.459 286.699> 519 53<63.8241 141.724> 673 53<75.5548 154.177>
LayerCount: 2
Fore
SplineSet
726 132 m 0
 726 56 656 -5 547 -5 c 0
 430 -5 391 71 378 117 c 1
 303 15 l 2
 292 2 286 0 283 0 c 2
 181 0 l 2
 158 0 161 34 161 34 c 1
 162 39 166 42 173 45 c 1
 151 104 141 157 141 203 c 0
 141 333 230 412 377 419 c 0
 635 433 808 488 884 619 c 1
 934 598 l 1
 803 371 439 366 366 359 c 0
 251 349 195 305 195 188 c 0
 195 154 202 110 223 54 c 1
 277 54 l 1
 404 241 l 2
 406 244 409 246 412 246 c 0
 420 246 445 228 449 226 c 0
 452 225 452 223 452 220 c 1
 451 218 451 217 450 215 c 2
 421 175 l 1
 422 81 502 45 535 42 c 1
 524 55 519 69 519 86 c 0
 519 145 578 211 644 211 c 0
 695 211 726 176 726 132 c 0
612 60 m 256
 643 60 673 87 673 120 c 0
 673 143 657 158 633 158 c 256
 599 158 572 128 572 98 c 0
 572 75 589 60 612 60 c 256
EndSplineSet
EndChar

StartChar: uni0E59
Encoding: 3673 3673 296
Width: 727
VWidth: 1494
Flags: MW
HStem: -9 51<253.405 332.77> 142 51<263.551 346.268> 366 72<371 388> 380 53<568.16 670.004>
VStem: 103 61<91.9304 242.481> 196 52<79.927 124.938> 350 52<58.0586 137.505> 528 55<13.1078 245.219>
LayerCount: 2
Fore
SplineSet
289 42 m 256
 318 42 350 70 350 103 c 0
 350 127 333 142 310 142 c 256
 278 142 248 115 248 81 c 0
 248 58 266 42 289 42 c 256
685 282 m 0
 685 283 688 287 688 305 c 0
 688 349 664 380 624 380 c 0
 565 380 509 305 509 248 c 1
 510 246 536 171 583 27 c 1
 528 0 l 1
 487 167 416 331 371 366 c 1
 358 361 358 359 307 334 c 0
 266 314 164 272 164 172 c 0
 164 133 178 93 196 79 c 1
 196 123 250 193 321 193 c 0
 368 193 402 161 402 114 c 0
 402 40 324 -9 267 -9 c 0
 134 -9 103 90 103 160 c 0
 103 302 231 359 286 385 c 2
 286 385 340 413 341 413 c 1
 357 426 374 438 388 438 c 0
 400 438 416 429 438 386 c 2
 479 311 l 1
 493 369 555 433 630 433 c 0
 727 433 731 374 734 351 c 1
 810 449 863 562 893 616 c 1
 938 590 l 1
 938 589 832 380 732 271 c 0
 729 268 725 266 719 266 c 0
 702 266 685 275 685 282 c 0
EndSplineSet
EndChar

StartChar: uni0E5A
Encoding: 3674 3674 297
Width: 696
VWidth: 1494
Flags: W
HStem: -9 21G<384.5 401.5 547.5 564.5> 356 51<268.468 387.159> 556 51<228.232 308.979>
VStem: 159 54<462.873 541.49> 312 51<474.127 551.908>
LayerCount: 2
Fore
SplineSet
252 460 m 256
 283 460 312 486 312 519 c 0
 312 542 295 556 272 556 c 256
 237 556 213 526 213 496 c 0
 213 474 228 460 252 460 c 256
363 529 m 0
 363 485 327 424 256 419 c 1
 271 411 288 407 306 407 c 0
 383 407 497 478 552 605 c 1
 601 592 l 1
 598 589 586 562 583 555 c 1
 557 431 l 1
 580 442 668 491 715 605 c 1
 764 592 l 1
 761 589 749 562 746 555 c 1
 645 82 l 2
 632 19 573 -9 556 -9 c 0
 539 -9 533 11 533 22 c 0
 533 42 551 33 574 63 c 0
 583 73 588 83 590 94 c 2
 666 453 l 1
 625 412 584 384 543 369 c 1
 482 82 l 2
 469 19 410 -9 393 -9 c 0
 376 -9 370 11 370 22 c 0
 370 42 388 33 411 63 c 0
 420 73 425 83 427 94 c 2
 503 453 l 1
 441 394 371 356 297 356 c 0
 236 356 159 401 159 481 c 0
 159 556 226 607 283 607 c 256
 328 607 363 575 363 529 c 0
EndSplineSet
EndChar

StartChar: uni0E5B
Encoding: 3675 3675 298
Width: 1325
VWidth: 1494
Flags: W
HStem: 37 54<252.407 438.716> 235 51<361.546 443.269> 381 51<373.327 449.557> 528 56<322.534 462.511>
VStem: 131 61<152.401 348.936> 308 50<289.628 366.457> 491 51<412.594 500.285> 675 53<275 284.15 284.15 359.523> 980 36<278.609 345.727>
LayerCount: 2
Fore
SplineSet
417 381 m 0
 388 381 358 355 358 323 c 0
 358 300 375 286 397 286 c 0
 428 286 458 311 458 344 c 0
 458 367 441 381 417 381 c 0
308 312 m 0
 308 377 369 432 428 432 c 0
 440 432 461 432 485 408 c 1
 487 414 491 428 491 441 c 0
 491 476 474 528 395 528 c 0
 258 528 192 348 192 242 c 0
 192 119 272 91 337 91 c 0
 516 91 589 263 613 334 c 0
 634 399 649 451 649 468 c 1
 702 451 728 394 728 297 c 2
 728 275 l 1
 735 285 815 405 815 456 c 1
 859 441 880 390 880 305 c 1
 907 335 943 392 953 439 c 1
 995 423 1016 381 1016 314 c 0
 1016 303 1015 291 1014 278 c 1
 1055 313 1071 380 1071 395 c 1
 1080 394 1098 378 1126 348 c 0
 1156 318 1214 302 1305 299 c 1
 1239 289 1195 284 1171 284 c 0
 1132 284 1105 298 1091 327 c 1
 1070 270 1038 239 992 233 c 0
 982 233 980 249 980 271 c 0
 980 301 l 0
 980 325 979 350 969 366 c 1
 931 289 892 240 850 217 c 1
 841 217 839 228 839 245 c 0
 839 254 840 266 840 279 c 0
 840 305 837 336 825 365 c 1
 793 280 748 223 693 194 c 1
 679 194 675 211 675 235 c 0
 675 263 680 299 680 328 c 0
 680 344 679 357 674 365 c 1
 613 150 498 41 326 37 c 0
 237 39 131 77 131 224 c 0
 131 336 201 578 402 584 c 0
 491 581 542 534 542 450 c 0
 542 354 479 235 386 235 c 0
 341 235 308 267 308 312 c 0
EndSplineSet
EndChar

StartChar: zerowidthnonjoiner
Encoding: 8204 8204 299
Width: 0
VWidth: 1494
Flags: W
LayerCount: 2
Back
SplineSet
-70 -460 m 1
 -123 -460 l 1
 51 359 l 1
 103 359 l 1
 -70 -460 l 1
EndSplineSet
EndChar

StartChar: zerowidthjoiner
Encoding: 8205 8205 300
Width: 0
VWidth: 1494
Flags: W
LayerCount: 2
Back
SplineSet
-70 -460 m 1
 -123 -460 l 1
 21 224 l 1
 -13 193 l 1
 -34 218 l 1
 33 275 l 1
 -10 333 l 1
 21 359 l 1
 63 302 l 1
 133 359 l 1
 154 333 l 1
 85 275 l 1
 130 218 l 1
 97 193 l 1
 73 224 l 1
 -70 -460 l 1
EndSplineSet
EndChar

StartChar: lefttorightmark
Encoding: 8206 8206 301
Width: 0
VWidth: 1494
Flags: W
LayerCount: 2
Back
SplineSet
-70 -460 m 1
 -123 -460 l 1
 39 305 l 1
 239 305 l 1
 220 332 l 1
 248 357 l 1
 311 278 l 1
 215 199 l 1
 197 226 l 1
 227 251 l 1
 79 251 l 1
 -70 -460 l 1
EndSplineSet
EndChar

StartChar: righttoleftmark
Encoding: 8207 8207 302
Width: 0
VWidth: 1494
Flags: W
LayerCount: 2
Back
SplineSet
-70 -460 m 1
 -123 -460 l 1
 27 251 l 1
 -120 251 l 1
 -99 226 l 1
 -129 199 l 1
 -191 278 l 1
 -96 357 l 1
 -76 332 l 1
 -108 305 l 1
 91 305 l 1
 -70 -460 l 1
EndSplineSet
EndChar

StartChar: endash
Encoding: 8211 8211 303
Width: 490
VWidth: 1494
Flags: W
HStem: 223 43<49 543>
LayerCount: 2
Fore
SplineSet
543 223 m 1
 40 223 l 1
 49 266 l 1
 552 266 l 1
 543 223 l 1
EndSplineSet
EndChar

StartChar: emdash
Encoding: 8212 8212 304
Width: 977
VWidth: 1494
Flags: W
HStem: 223 43<49 1031>
LayerCount: 2
Fore
SplineSet
1031 223 m 1
 40 223 l 1
 49 266 l 1
 1040 266 l 1
 1031 223 l 1
EndSplineSet
EndChar

StartChar: quoteleft
Encoding: 8216 8216 305
Width: 298
VWidth: 1494
Flags: MW
VStem: 198 123<505.552 586.156>
LayerCount: 2
Fore
SplineSet
321 551 m 0
 321 522 290 484 251 484 c 0
 217 484 198 503 198 534 c 0
 198 603 274 679 340 704 c 1
 340 703 355 672 354 670 c 1
 320 657 273 624 260 590 c 1
 268 593 274 594 280 594 c 0
 299 594 321 579 321 551 c 0
EndSplineSet
EndChar

StartChar: quoteright
Encoding: 8217 8217 306
Width: 298
VWidth: 1494
Flags: MW
VStem: 227 122<601.872 684.118>
LayerCount: 2
Fore
SplineSet
227 638 m 0
 227 667 257 706 296 706 c 0
 337 706 349 682 349 657 c 0
 349 611 306 525 208 486 c 1
 205 494 192 518 193 520 c 1
 227 533 275 565 287 599 c 1
 281 597 274 595 268 595 c 0
 247 595 227 612 227 638 c 0
EndSplineSet
EndChar

StartChar: quotesinglbase
Encoding: 8218 8218 307
Width: 298
VWidth: 1494
Flags: MW
VStem: 100 122<4.95557 86.7926>
LayerCount: 2
Fore
SplineSet
100 41 m 0
 100 72 132 108 169 108 c 0
 211 108 222 83 222 58 c 0
 222 10 177 -74 81 -112 c 1
 80 -109 65 -79 65 -78 c 1
 100 -65 148 -32 160 1 c 1
 154 -2 147 -3 141 -3 c 0
 122 -3 100 13 100 41 c 0
EndSplineSet
EndChar

StartChar: quotedblleft
Encoding: 8220 8220 308
Width: 487
VWidth: 1494
Flags: MW
HStem: 484 110<262.477 300.427 447.477 486.814>
VStem: 200 122<505.405 587.968> 385 123<505.532 588.599>
LayerCount: 2
Fore
SplineSet
508 551 m 0
 508 522 478 484 438 484 c 0
 397 484 385 508 385 533 c 0
 385 590 444 673 527 704 c 1
 527 703 542 672 541 670 c 1
 507 657 459 624 446 590 c 1
 454 593 460 594 467 594 c 0
 487 594 508 578 508 551 c 0
322 551 m 0
 322 522 291 484 252 484 c 0
 218 484 200 503 200 533 c 0
 200 601 274 678 341 704 c 1
 344 696 357 672 356 670 c 1
 322 657 274 624 261 590 c 1
 269 593 275 594 281 594 c 0
 300 594 322 579 322 551 c 0
EndSplineSet
EndChar

StartChar: quotedblright
Encoding: 8221 8221 309
Width: 487
VWidth: 1494
Flags: MW
HStem: 595 111<249.322 286.288 435.019 472.263>
VStem: 228 123<601.679 684.448> 414 122<602.435 685.432>
LayerCount: 2
Fore
SplineSet
228 638 m 0
 228 668 258 706 298 706 c 0
 332 706 351 687 351 656 c 0
 351 601 295 518 209 486 c 1
 209 487 194 518 195 520 c 1
 229 533 276 565 288 599 c 1
 282 597 275 595 269 595 c 0
 248 595 228 612 228 638 c 0
414 638 m 0
 414 668 443 706 483 706 c 0
 524 706 536 682 536 657 c 0
 536 607 487 522 394 486 c 1
 389 502 l 1
 382 514 l 2
 380 517 379 519 380 520 c 1
 414 533 462 565 474 599 c 1
 468 597 460 595 454 595 c 0
 434 595 414 612 414 638 c 0
EndSplineSet
EndChar

StartChar: quotedblbase
Encoding: 8222 8222 310
Width: 481
VWidth: 1494
Flags: MW
HStem: -3 111<112.573 149.864 300.573 337.864>
VStem: 91 122<5.02499 86.5947> 279 123<4.31104 86.4476>
LayerCount: 2
Fore
SplineSet
91 41 m 0
 91 70 122 108 161 108 c 0
 195 108 213 89 213 59 c 0
 213 4 161 -77 72 -112 c 1
 71 -109 56 -79 56 -78 c 1
 91 -65 139 -32 151 1 c 1
 145 -2 138 -3 132 -3 c 0
 113 -3 91 13 91 41 c 0
279 41 m 0
 279 70 310 108 349 108 c 0
 383 108 402 89 402 58 c 0
 402 9 355 -75 260 -112 c 1
 259 -111 245 -80 245 -78 c 1
 279 -65 327 -31 339 1 c 1
 333 -2 326 -3 320 -3 c 0
 301 -3 279 13 279 41 c 0
EndSplineSet
EndChar

StartChar: dagger
Encoding: 8224 8224 311
Width: 611
VWidth: 1494
Flags: W
HStem: 442 54<166 371 436 643>
LayerCount: 2
Fore
SplineSet
643 442 m 1
 425 442 l 1
 296 -164 l 1
 242 -164 l 1
 371 442 l 1
 154 442 l 1
 166 496 l 1
 383 496 l 1
 428 707 l 1
 481 707 l 1
 436 496 l 1
 655 496 l 1
 643 442 l 1
EndSplineSet
EndChar

StartChar: daggerdbl
Encoding: 8225 8225 312
Width: 611
VWidth: 1494
Flags: W
HStem: 28 56<78 280 354 558> 468 54<172 372 448 650>
LayerCount: 2
Fore
SplineSet
558 28 m 1
 344 28 l 1
 303 -155 l 1
 239 -155 l 1
 280 28 l 1
 67 28 l 1
 78 84 l 1
 290 84 l 1
 372 468 l 1
 160 468 l 1
 172 522 l 1
 384 522 l 1
 423 707 l 1
 487 707 l 1
 448 522 l 1
 662 522 l 1
 650 468 l 1
 436 468 l 1
 354 84 l 1
 568 84 l 1
 558 28 l 1
EndSplineSet
EndChar

StartChar: bullet
Encoding: 8226 8226 313
Width: 382
VWidth: 1494
Flags: W
HStem: 129 302<196.657 308.118>
VStem: 98 310<231.997 328.211>
LayerCount: 2
Fore
SplineSet
408 315 m 0
 408 231 339 129 220 129 c 256
 132 129 98 184 98 243 c 0
 98 328 165 431 285 431 c 256
 373 431 408 375 408 315 c 0
EndSplineSet
EndChar

StartChar: ellipsis
Encoding: 8230 8230 314
Width: 681
VWidth: 1494
Flags: W
HStem: 0 109<88.9844 161.596 315.984 389.929 541.984 613.817>
VStem: 70 110<17.9683 90.691> 297 111<17.9683 90.691> 523 109<17.8447 90.5391>
LayerCount: 2
Fore
SplineSet
180 68 m 0
 180 38 157 0 114 0 c 256
 79 0 70 23 70 42 c 0
 70 62 87 109 137 109 c 256
 170 109 180 87 180 68 c 0
408 68 m 0
 408 38 385 0 341 0 c 256
 306 0 297 23 297 42 c 0
 297 62 314 109 364 109 c 256
 398 109 408 87 408 68 c 0
632 66 m 0
 632 37 608 0 567 0 c 256
 532 0 523 23 523 42 c 0
 523 62 540 109 590 109 c 256
 624 109 632 85 632 66 c 0
EndSplineSet
EndChar

StartChar: perthousand
Encoding: 8240 8240 315
Width: 1083
VWidth: 1494
Flags: W
HStem: -6 43<529.205 635.111 865.865 970.768> 321 45<580.063 685.77 918.294 1022.19> 332 45<206.797 312.924> 659 45<258.767 363.195>
VStem: 138 50<394.725 568.156> 384 47<470.138 638.326> 461 48<55.6433 228.194> 706 48<130.163 301.518> 798 49<56.0388 230.336> 1043 47<129.249 300.117>
LayerCount: 2
Fore
SplineSet
730 722 m 1x9fc0
 200 -25 l 1
 149 -25 l 1
 678 722 l 1
 730 722 l 1x9fc0
461 124 m 0
 461 232 534 366 648 366 c 0xdfc0
 716 366 754 311 754 234 c 0
 754 112 667 -6 569 -6 c 0
 491 -6 461 56 461 124 c 0
638 321 m 0
 550 321 509 200 509 127 c 0
 509 80 526 37 578 37 c 0
 659 37 706 152 706 231 c 0
 706 288 681 321 638 321 c 0
798 129 m 0
 798 238 879 366 984 366 c 256
 1052 366 1090 311 1090 235 c 0
 1090 112 1003 -6 905 -6 c 256
 827 -6 798 61 798 129 c 0
974 321 m 0
 887 321 847 200 847 127 c 0
 847 80 863 37 914 37 c 0
 993 37 1043 147 1043 231 c 0
 1043 287 1018 321 974 321 c 0
138 466 m 0
 138 585 227 704 325 704 c 256
 393 704 431 649 431 574 c 0
 431 467 357 332 246 332 c 256xbfc0
 169 332 138 396 138 466 c 0
255 377 m 0
 344 377 384 499 384 570 c 0
 384 625 359 659 315 659 c 0
 236 659 188 550 188 464 c 0
 188 419 203 377 255 377 c 0
EndSplineSet
EndChar

StartChar: minute
Encoding: 8242 8242 316
Width: 213
VWidth: 1494
Flags: W
HStem: 508 239<205 274 274 274>
LayerCount: 2
Fore
SplineSet
274 747 m 1
 368 747 l 1
 205 508 l 1
 156 508 l 1
 274 747 l 1
EndSplineSet
EndChar

StartChar: second
Encoding: 8243 8243 317
Width: 418
VWidth: 1494
Flags: W
HStem: 508 199<195 279 279 279>
LayerCount: 2
Fore
SplineSet
279 707 m 1
 373 707 l 1
 195 508 l 1
 145 508 l 1
 279 707 l 1
430 707 m 1
 524 707 l 1
 346 508 l 1
 296 508 l 1
 430 707 l 1
EndSplineSet
EndChar

StartChar: guilsinglleft
Encoding: 8249 8249 318
Width: 300
VWidth: 1494
Flags: MW
LayerCount: 2
Fore
SplineSet
283 462 m 1
 343 462 l 1
 165 253 l 1
 254 43 l 1
 194 43 l 1
 114 239 l 2
 113 242 112 245 112 247 c 0
 112 253 115 261 120 266 c 2
 283 462 l 1
EndSplineSet
EndChar

StartChar: guilsinglright
Encoding: 8250 8250 319
Width: 291
VWidth: 1494
Flags: MW
LayerCount: 2
Fore
SplineSet
296 266 m 2
 297 264 298 261 298 258 c 0
 298 252 295 246 290 239 c 2
 126 43 l 1
 66 43 l 1
 245 253 l 1
 155 462 l 1
 215 462 l 1
 296 266 l 2
EndSplineSet
EndChar

StartChar: fraction
Encoding: 8260 8260 320
Width: 174
VWidth: 1494
Flags: MW
HStem: 0 21G<-73 -26.9887>
LayerCount: 2
Fore
SplineSet
-39 0 m 1
 -73 0 l 1
 338 706 l 1
 385 706 l 1
 -39 0 l 1
EndSplineSet
EndChar

StartChar: Euro
Encoding: 8364 8364 321
Width: 644
VWidth: 1494
Flags: W
HStem: -13 63<341.454 543.265> 247 47<81 183 247 510> 375 48<109 201 277 537> 656 63<461.718 647.859>
VStem: 183 64<148.757 247 294 321.581>
LayerCount: 2
Fore
SplineSet
438 50 m 0
 497 50 556 67 604 111 c 1
 635 63 l 1
 580 16 505 -13 429 -13 c 0
 300 -13 181 62 183 247 c 1
 72 247 l 1
 81 294 l 1
 185 294 l 1
 191 339 192 349 201 375 c 1
 99 375 l 1
 109 423 l 1
 214 423 l 1
 283 626 437 719 573 719 c 0
 645 719 704 694 742 650 c 1
 700 589 l 1
 669 634 614 656 560 656 c 0
 437 656 329 567 277 423 c 1
 547 423 l 1
 537 375 l 1
 262 375 l 1
 253 334 l 2
 250 321 248 307 247 294 c 1
 519 294 l 1
 510 247 l 1
 247 247 l 1
 250 147 300 50 438 50 c 0
EndSplineSet
EndChar

StartChar: uni2113
Encoding: 8467 8467 322
Width: 318
VWidth: 1494
Flags: MW
HStem: -5 57<159.666 251.523> 652 49<301.951 353.64>
VStem: 124 55<52.1075 94.2507> 355 52<558.841 644.772>
LayerCount: 2
Fore
SplineSet
281 31 m 1
 234 7 199 -5 173 -5 c 0
 140 -5 124 15 124 54 c 0
 124 68 126 84 130 102 c 2
 176 318 l 1
 122 286 l 1
 89 320 l 1
 189 380 l 1
 229 571 l 2
 248 658 284 701 337 701 c 0
 383 701 407 678 407 630 c 0
 407 584 375 427 234 347 c 1
 181 100 l 2
 180 92 179 86 179 80 c 0
 179 62 186 52 202 52 c 0
 221 52 252 64 293 90 c 1
 281 31 l 1
247 411 m 1
 340 481 355 589 355 618 c 0
 355 638 349 652 330 652 c 0
 309 652 293 625 281 571 c 2
 247 411 l 1
EndSplineSet
EndChar

StartChar: trademark
Encoding: 8482 8482 323
Width: 852
VWidth: 1494
Flags: MW
HStem: 658 43<249 346 390 491>
LayerCount: 2
Fore
SplineSet
822 330 m 1
 777 321 l 1
 820 635 l 1
 665 327 l 1
 617 327 l 1
 594 635 l 1
 500 321 l 1
 460 330 l 1
 566 677 l 2
 572 696 593 707 607 707 c 0
 619 707 633 700 634 679 c 2
 634 679 652 458 655 395 c 1
 796 679 l 2
 807 701 825 707 836 707 c 0
 854 707 867 692 866 677 c 2
 822 330 l 1
500 701 m 1
 491 658 l 1
 390 658 l 1
 318 320 l 1
 274 320 l 1
 346 658 l 1
 240 658 l 1
 249 701 l 1
 500 701 l 1
EndSplineSet
EndChar

StartChar: Ohm
Encoding: 8486 8486 324
Width: 733
VWidth: 1494
Flags: W
HStem: 0 69<95.6504 296 462 669.856> 658 22<407.592 602.975>
VStem: 87 1<130.359 154> 121 96<275.352 460.513> 687 95<369.38 559.273> 706 1<83.5365 154>
LayerCount: 2
Fore
SplineSet
506 658 m 0xf8
 348 658 217 514 217 353 c 0
 217 276 248 196 342 176 c 1
 305 0 l 1
 54 0 l 1
 87 154 l 1
 88 154 l 1
 87 145 86 137 86 130 c 0
 86 85 106 69 169 69 c 2
 296 69 l 1
 316 164 l 1
 217 176 121 245 121 364 c 0
 121 542 306 680 511 680 c 0
 660 680 782 605 782 470 c 0xf8
 782 347 689 195 482 164 c 1
 462 69 l 1
 589 69 l 2
 661 69 685 89 706 154 c 1
 707 154 l 1xf4
 674 0 l 1
 423 0 l 1
 460 176 l 1
 600 205 687 351 687 480 c 0
 687 582 628 658 506 658 c 0xf8
EndSplineSet
EndChar

StartChar: estimated
Encoding: 8494 8494 325
Width: 488
VWidth: 1494
Flags: W
HStem: -9 50<200.472 340.111> 232 56<167 450> 475 50<278.559 413.97>
VStem: 97 54<93.5066 256.641> 457 45<303.702 428.691>
LayerCount: 2
Fore
SplineSet
97 176 m 0
 97 331 208 525 363 525 c 0
 467 525 502 441 502 351 c 0
 502 323 499 295 493 268 c 0
 487 240 479 232 450 232 c 2
 157 232 l 1
 153 212 151 194 151 177 c 0
 151 83 212 41 260 41 c 0
 305 41 347 63 370 82 c 1
 391 37 l 1
 366 20 311 -9 242 -9 c 0
 158 -9 97 61 97 176 c 0
349 475 m 0
 248 475 182 359 167 288 c 1
 450 288 l 1
 454 308 457 327 457 345 c 0
 457 422 418 475 349 475 c 0
EndSplineSet
EndChar

StartChar: partialdiff
Encoding: 8706 8706 326
Width: 515
VWidth: 1494
Flags: W
HStem: -15 24<175.65 287.852> 384 35<286.63 399.644> 665 36<413.305 501.113>
VStem: 83 72<35.9365 210.137> 513 50<458.779 632.599>
LayerCount: 2
Fore
SplineSet
445 315 m 1
 490 432 513 533 513 587 c 0
 513 632 500 665 462 665 c 0
 408 665 377 589 328 589 c 0
 295 589 286 610 286 623 c 0
 286 664 377 701 426 701 c 0
 486 701 563 667 563 524 c 0
 563 350 442 -15 215 -15 c 0
 112 -15 83 53 83 117 c 0
 83 240 197 419 337 419 c 256
 387 419 428 405 445 315 c 1
347 384 m 0
 246 384 155 212 155 103 c 0
 155 56 171 9 226 9 c 0
 351 9 417 222 417 299 c 0
 417 344 402 384 347 384 c 0
EndSplineSet
EndChar

StartChar: Delta
Encoding: 8710 8710 327
Width: 560
VWidth: 1494
Flags: W
HStem: 0 33<61 460>
LayerCount: 2
Fore
SplineSet
425 662 m 1
 552 0 l 1
 7 0 l 1
 418 662 l 1
 425 662 l 1
373 534 m 1
 61 33 l 1
 460 33 l 1
 373 534 l 1
EndSplineSet
EndChar

StartChar: product
Encoding: 8719 8719 328
Width: 908
VWidth: 1494
Flags: W
HStem: -120 27<59 149 219 297 564 650 720 802> 771 26<248 333 403 834 904 992>
LayerCount: 2
Fore
SplineSet
992 771 m 1
 904 771 l 1
 720 -93 l 1
 808 -93 l 1
 802 -120 l 1
 558 -120 l 1
 564 -93 l 1
 650 -93 l 1
 834 771 l 1
 403 771 l 1
 219 -93 l 1
 303 -93 l 1
 297 -120 l 1
 53 -120 l 1
 59 -93 l 1
 149 -93 l 1
 333 771 l 1
 243 771 l 1
 248 797 l 1
 997 797 l 1
 992 771 l 1
EndSplineSet
EndChar

StartChar: summation
Encoding: 8721 8721 329
Width: 675
VWidth: 1494
Flags: W
HStem: -233 66<97 456.62> -39 20G<560 616> 674 35<295 485.046 485.046 593.459>
LayerCount: 2
Fore
SplineSet
616 -19 m 1
 564 -136 l 2
 555 -160 523 -233 442 -233 c 2
 -19 -233 l 1
 441 202 l 1
 194 709 l 1
 634 709 l 2
 700 709 714 695 714 651 c 0
 714 641 713 630 712 617 c 2
 701 499 l 1
 677 499 l 1
 672 545 669 662 519 672 c 0
 497 673 475 674 451 674 c 2
 295 674 l 1
 528 241 l 1
 97 -167 l 1
 298 -167 l 2
 465 -167 526 -128 594 -19 c 1
 616 -19 l 1
EndSplineSet
EndChar

StartChar: minus
Encoding: 8722 8722 330
Width: 503
VWidth: 1494
Flags: W
HStem: 269 54<118 510 106 522 118 118>
LayerCount: 2
Fore
SplineSet
510 269 m 1
 106 269 l 1
 118 323 l 1
 522 323 l 1
 510 269 l 1
EndSplineSet
EndChar

StartChar: radical
Encoding: 8730 8730 331
Width: 618
VWidth: 1494
Flags: W
HStem: 765 33<728 782>
LayerCount: 2
Fore
SplineSet
714 798 m 1
 789 798 l 1
 782 765 l 1
 728 765 l 1
 275 -22 l 1
 252 -22 l 1
 188 414 l 1
 122 392 l 1
 122 417 l 1
 249 459 l 1
 301 85 l 1
 714 798 l 1
EndSplineSet
EndChar

StartChar: infinity
Encoding: 8734 8734 332
Width: 941
VWidth: 1494
Flags: W
HStem: 141 51<220.214 369.251> 141 59<636.577 796.064> 450 61<278.173 418.404 701.649 860.499>
VStem: 146 33<230.142 368.333> 898 34<281.652 416.521>
LayerCount: 2
Fore
SplineSet
146 288 m 0xb8
 146 381 227 511 377 511 c 0
 498 511 541 414 551 387 c 1
 625 475 692 511 767 511 c 0
 867 511 932 455 932 367 c 0
 932 251 828 141 701 141 c 0x78
 605 141 559 201 536 265 c 1
 516 238 430 141 311 141 c 0
 209 141 146 207 146 288 c 0xb8
356 450 m 0
 257 450 179 385 179 292 c 0
 179 226 231 192 287 192 c 0xb8
 408 192 484 316 510 354 c 1
 486 442 384 450 356 450 c 0
722 200 m 0x78
 806 200 898 259 898 357 c 0
 898 415 854 453 782 453 c 0
 685 453 605 351 566 302 c 1
 585 241 651 200 722 200 c 0x78
EndSplineSet
EndChar

StartChar: integral
Encoding: 8747 8747 333
Width: 369
VWidth: 1494
Flags: W
HStem: -157 48<-68.8654 26.4717> 632 47<387.09 482.663 473.977 490>
LayerCount: 2
Fore
SplineSet
132 -16 m 2
 98 -110 43 -157 -31 -157 c 0
 -50 -157 -70 -154 -91 -148 c 1
 -74 -105 l 1
 -63 -107 -51 -109 -41 -109 c 0
 13 -109 54 -77 79 -15 c 2
 284 541 l 2
 316 633 372 679 454 679 c 0
 471 679 489 677 508 673 c 1
 490 629 l 1
 479 631 468 632 458 632 c 0
 400 632 360 601 338 540 c 2
 132 -16 l 2
EndSplineSet
EndChar

StartChar: approxequal
Encoding: 8776 8776 334
Width: 674
VWidth: 1494
Flags: W
HStem: 133 57<409.151 544.365> 190 60<225.038 361.652> 308 57<446.607 581.615> 365 60<261.209 399.097>
LayerCount: 2
Fore
SplineSet
526 365 m 0
 578 365 649 392 679 420 c 1
 665 354 l 1
 589 315 545 308 518 308 c 0
 443 308 389 365 311 365 c 0
 254 365 193 334 156 308 c 1
 170 372 l 1
 256 424 311 425 329 425 c 0
 397 425 461 365 526 365 c 0
488 190 m 0
 540 190 612 217 642 245 c 1
 628 179 l 1
 552 140 508 133 481 133 c 0
 406 133 351 190 273 190 c 0
 216 190 155 159 119 133 c 1
 133 197 l 1
 219 249 274 250 292 250 c 0
 360 250 423 190 488 190 c 0
EndSplineSet
EndChar

StartChar: notequal
Encoding: 8800 8800 335
Width: 523
VWidth: 1494
Flags: MW
HStem: -10 21G<156 216.182> 149 53<112 229 305 483> 359 54<157 324 402 527>
LayerCount: 2
Fore
SplineSet
483 149 m 1
 280 149 l 1
 207 -10 l 1
 156 -10 l 1
 229 149 l 1
 101 149 l 1
 112 202 l 1
 252 202 l 1
 324 359 l 1
 145 359 l 1
 157 413 l 1
 351 413 l 1
 417 556 l 1
 468 556 l 1
 402 413 l 1
 539 413 l 1
 527 359 l 1
 376 359 l 1
 305 202 l 1
 494 202 l 1
 483 149 l 1
EndSplineSet
EndChar

StartChar: lessequal
Encoding: 8804 8804 336
Width: 578
VWidth: 1494
Flags: MW
LayerCount: 2
Fore
SplineSet
532 102 m 1
 130 283 l 1
 144 347 l 1
 621 522 l 1
 608 463 l 1
 190 311 l 1
 544 158 l 1
 532 102 l 1
74 24 m 1
 516 24 l 1
 526 70 l 1
 84 70 l 1
 74 24 l 1
EndSplineSet
EndChar

StartChar: greaterequal
Encoding: 8805 8805 337
Width: 578
VWidth: 1494
Flags: W
HStem: 24 46<84 516> 502 20G<176.593 227.057>
LayerCount: 2
Fore
SplineSet
104 158 m 1
 522 311 l 1
 168 463 l 1
 181 522 l 1
 584 347 l 1
 570 283 l 1
 92 102 l 1
 104 158 l 1
516 24 m 1
 74 24 l 1
 84 70 l 1
 526 70 l 1
 516 24 l 1
EndSplineSet
EndChar

StartChar: lozenge
Encoding: 9674 9674 338
Width: 588
VWidth: 1494
Flags: MW
HStem: -138 108<265 288> 718 107<447 469>
VStem: 136 51<345 345> 550 51<345 345>
LayerCount: 2
Fore
SplineSet
469 825 m 1
 601 345 l 1
 265 -138 l 1
 136 345 l 1
 469 825 l 1
187 345 m 1
 288 -30 l 1
 550 345 l 1
 447 718 l 1
 187 345 l 1
EndSplineSet
EndChar

StartChar: dottedcircle
Encoding: 9676 9676 339
Width: 632
VWidth: 1494
Flags: W
HStem: 28 56<298.947 350.539> 49 54<205.544 256.95 404.712 452.792> 105 55<134.503 185.941 495.584 546.567> 190 55<95.5221 146.552 570.522 622.522> 286 55<95.9219 148.938 612.516 663.443> 380 55<136.928 187.947 609.95 661.678> 468 54<212.142 263.522 572.15 625.265> 522 53<302.448 354.449 504.448 554.287> 540 55<425.718 460.03>
VStem: 93 56<209.199 225.42 297.83 337.828> 132 57<124.199 140.42 400.844 417.212> 296 57<33.2084 80.739 538.65 555.621> 402 53<67.457 82.6531 542.719 590.403> 568 57<209.199 225.42 482.895 499.167> 610 56<297.83 337.447 401.654 417.391>
LayerCount: 2
Fore
SplineSet
627 501 m 0x3e18
 627 485 621 466 595 466 c 0
 578 466 569 472 569 484 c 0
 569 496 577 520 607 520 c 0
 621 520 627 514 627 501 c 0x3e18
556 557 m 0
 556 542 550 522 525 522 c 0
 510 522 502 528 502 540 c 0x3e98
 502 552 509 575 536 575 c 0x3e18
 550 575 556 569 556 557 c 0
665 418 m 0
 665 410 661 380 630 380 c 0
 615 380 608 387 608 400 c 0
 608 416 615 435 642 435 c 0
 657 435 665 429 665 418 c 0
356 556 m 0
 356 541 350 522 323 522 c 256
 308 522 300 528 300 540 c 0x3e98
 300 552 307 575 334 575 c 256x3e18
 349 575 356 569 356 556 c 0
625 226 m 0x3e1c
 625 212 618 190 590 190 c 0
 575 190 568 196 568 208 c 0
 568 221 574 245 602 245 c 0
 618 245 625 239 625 226 c 0x3e1c
266 502 m 0
 266 487 259 468 231 468 c 0
 216 468 209 473 209 484 c 0
 209 492 213 522 243 522 c 0
 259 522 266 515 266 502 c 0
549 140 m 0
 549 126 543 103 517 103 c 0x7e18
 501 103 493 109 493 122 c 0
 493 135 500 158 529 158 c 0
 543 158 549 152 549 140 c 0
455 85 m 0
 455 71 449 49 423 49 c 256
 409 49 402 55 402 66 c 0
 402 79 409 103 435 103 c 256
 449 103 455 97 455 85 c 0
191 418 m 0
 191 410 187 380 159 380 c 0
 143 380 135 387 135 401 c 0
 135 415 142 435 168 435 c 256
 183 435 191 429 191 418 c 0
149 226 m 0x3e58
 149 212 142 190 115 190 c 256
 100 190 93 196 93 208 c 0
 93 221 99 245 127 245 c 256
 142 245 149 239 149 226 c 0x3e58
260 85 m 0
 260 74 253 49 225 49 c 256
 210 49 203 55 203 67 c 0
 203 77 208 103 237 103 c 256x7e18
 252 103 260 97 260 85 c 0
189 141 m 0x3e38
 189 127 182 105 154 105 c 0
 139 105 132 111 132 123 c 0
 132 136 138 160 166 160 c 0
 182 160 189 154 189 141 c 0x3e38
438 595 m 256x3e98
 452 595 462 583 462 570 c 0
 462 556 445 540 427 540 c 256
 415 540 405 550 405 562 c 0
 405 581 426 595 438 595 c 256x3e98
353 60 m 0
 353 43 332 28 318 28 c 256
 306 28 296 39 296 51 c 0
 296 67 315 84 330 84 c 256xbe18
 343 84 353 74 353 60 c 0
666 319 m 0x3e1a
 666 302 649 286 634 286 c 0
 619 286 610 298 610 309 c 0
 610 322 624 341 645 341 c 0
 657 341 666 332 666 319 c 0x3e1a
151 318 m 0
 151 299 130 286 116 286 c 256
 103 286 93 298 93 309 c 0x3e58
 93 322 110 341 127 341 c 256
 139 341 151 332 151 318 c 0
EndSplineSet
EndChar

StartChar: uni0E10.alt1
Encoding: 63232 63232 340
Width: 571
VWidth: 1494
Flags: W
HStem: -2 21G<397 406> 197 51<240.822 322.392> 344 49<251.627 332.677> 432 44<244.53 478.509> 559 50<356.555 514.302>
VStem: 187 50<252.092 329.545>
LayerCount: 2
Fore
SplineSet
187 275 m 0
 187 336 244 393 308 393 c 0
 372 393 391 347 404 246 c 2
 413 182 l 2
 414 160 416 142 417 127 c 1
 506 365 l 2
 509 376 514 384 522 389 c 1
 510 400 449 432 318 432 c 0
 282 432 242 429 198 423 c 1
 182 400 174 399 169 399 c 0
 167 399 145 400 145 417 c 0
 145 448 228 535 289 571 c 0
 341 601 393 609 434 609 c 0
 468 609 491 607 567 584 c 2
 618 568 l 2
 634 563 646 560 656 558 c 1
 629 513 l 1
 622 514 612 516 597 522 c 2
 548 538 l 2
 537 541 479 559 430 559 c 0
 348 559 280 524 235 472 c 1
 269 475 299 476 327 476 c 0
 418 476 511 463 560 428 c 1
 561 429 563 430 566 430 c 0
 584 430 594 404 594 394 c 0
 594 390 586 381 574 371 c 1
 563 365 556 356 550 344 c 2
 431 27 l 1
 427 20 414 -2 398 -2 c 0
 396 -2 367 1 367 14 c 0
 367 23 375 26 375 41 c 0
 375 54 374 78 368 118 c 2
 348 232 l 1
 325 209 296 197 266 197 c 0
 220 197 187 229 187 275 c 0
297 344 m 256
 264 344 237 315 237 285 c 0
 237 262 254 248 277 248 c 256
 312 248 336 278 336 306 c 0
 336 326 323 344 297 344 c 256
EndSplineSet
EndChar

